<?xml version="1.0" encoding="UTF-8" standalone="no"?>
<!-- Created with Inkscape (http://www.inkscape.org/) -->

<svg
   xmlns:dc="http://purl.org/dc/elements/1.1/"
   xmlns:cc="http://creativecommons.org/ns#"
   xmlns:rdf="http://www.w3.org/1999/02/22-rdf-syntax-ns#"
   xmlns:svg="http://www.w3.org/2000/svg"
   xmlns="http://www.w3.org/2000/svg"
   xmlns:sodipodi="http://sodipodi.sourceforge.net/DTD/sodipodi-0.dtd"
   xmlns:inkscape="http://www.inkscape.org/namespaces/inkscape"
   width="1553.7029"
   height="719.88019"
   id="svg2"
   version="1.1"
   inkscape:version="0.48.2 r9819"
   sodipodi:docname="inverted-index.svg">
  <defs
     id="defs4" />
  <sodipodi:namedview
     id="base"
     pagecolor="#ffffff"
     bordercolor="#666666"
     borderopacity="1.0"
     inkscape:pageopacity="0.0"
     inkscape:pageshadow="2"
     inkscape:zoom="0.71238679"
     inkscape:cx="630.52216"
     inkscape:cy="280.05381"
     inkscape:document-units="px"
     inkscape:current-layer="layer1"
     showgrid="false"
     fit-margin-top="0"
     fit-margin-left="0"
     fit-margin-right="0"
     fit-margin-bottom="0"
     inkscape:window-width="1440"
     inkscape:window-height="852"
     inkscape:window-x="0"
     inkscape:window-y="0"
     inkscape:window-maximized="1"
     showguides="false">
    <inkscape:grid
       type="xygrid"
       id="grid3426"
       empspacing="5"
       visible="true"
       enabled="true"
       snapvisiblegridlinesonly="true" />
  </sodipodi:namedview>
  <metadata
     id="metadata7">
    <rdf:RDF>
      <cc:Work
         rdf:about="">
        <dc:format>image/svg+xml</dc:format>
        <dc:type
           rdf:resource="http://purl.org/dc/dcmitype/StillImage" />
        <dc:title />
      </cc:Work>
    </rdf:RDF>
  </metadata>
  <g
     inkscape:label="Layer 1"
     inkscape:groupmode="layer"
     id="layer1"
     transform="translate(665.19628,-334.14015)">
    <path
       style="fill:#525252"
       d="m 214.07821,972.52499 c -0.75708,-0.91222 -1.03005,-2.8757 -0.6906,-4.96748 0.52935,-3.26196 0.38007,-3.48988 -2.62053,-4.00106 -13.86936,-2.36279 -55.47395,-2.63537 -76.32698,-0.50007 -5.57982,0.57136 -13.22982,0.77396 -17,0.45022 -3.77018,-0.32373 -16.97988,-0.72137 -29.354876,-0.88364 -20.56541,-0.26966 -23.32058,-0.51802 -32.04359,-2.88854 -12.870876,-3.49772 -14.613636,-4.23586 -16.305946,-6.90634 -2.15527,-3.40102 -2.93695,-8.39081 -1.68185,-10.73598 1.79053,-3.34565 3.03139,-2.36915 3.03139,2.38559 0,6.8728 2.54116,9.0164 14.499996,12.23145 8.97544,2.41298 11.89542,2.70641 28.5,2.86398 10.175,0.0966 24.575006,0.28938 32.000006,0.42849 7.425,0.13912 20.32245,-0.19309 28.66101,-0.73825 20.06403,-1.31173 55.38903,-0.88644 61.83899,0.7445 3.04536,0.77005 13.2095,1.36032 26,1.50992 11.55,0.13508 28.875,0.75945 38.5,1.38746 17.71772,1.15606 95.03657,1.61211 118,0.69599 24.02496,-0.95846 29.6085,-2.42078 43.61553,-11.42281 5.01386,-3.22232 9.27135,-10.80221 9.63001,-17.14497 0.32277,-5.70802 2.83222,-6.20883 4.16117,-0.83045 0.76631,3.1013 0.4733,4.57241 -1.89214,9.5 -3.1056,6.46943 -6.16986,10.33045 -8.19867,10.33045 -0.73451,0 -2.11857,0.92651 -3.07569,2.05891 -4.51522,5.34212 -17.49911,9.48478 -33.74021,10.76518 -15.14368,1.19389 -102.35166,1.24436 -121,0.07 -30.62525,-1.92855 -46.25212,-2.52757 -51.5,-1.97414 -5.30485,0.55944 -5.50129,0.68646 -5.53649,3.58005 -0.0201,1.65002 -0.38413,3.56252 -0.80902,4.25 -1.06742,1.72712 -5.14492,1.56889 -6.66151,-0.25849 z"
       id="path3354"
       inkscape:connector-curvature="0" />
    <g
       id="g3538">
      <path
         d="m 186.28523,995.83345 c -1.67356,-1.6736 -1.50108,-4.8 0.26482,-4.8 1.7249,0 3.8962,3.6068 3.02241,5.0206 -0.80589,1.304 -1.83146,1.2351 -3.28723,-0.2206 z m -46.03121,2.0389 c 0.18217,-1.2864 1.00621,-2.3389 1.83121,-2.3389 2.16873,0 1.86998,3.9014 -0.33121,4.3253 -1.42006,0.27335 -1.75684,-0.1725 -1.5,-1.9864 z m 12.75552,25.58045 c -3.61467,-3.8476 -3.42724,-10.7299 0.38145,-14.006 5.6412,-4.8523 7.92416,-1.7972 2.62033,3.5067 -6.51677,6.5167 0.39753,10.9116 11.82391,7.5154 1.65755,-0.4927 2.25,-0.258 2.25,0.8912 0,2.6582 -4.11717,4.6733 -9.54819,4.6733 -4.19291,0 -5.53561,-0.4603 -7.5275,-2.5806 z m -11.77643,-1.6694 c -1.75519,-9.2711 -1.9895,-12.3902 -1.03936,-13.8358 1.55749,-2.3697 3.88994,1.8302 3.90249,7.0269 0.006,2.5074 0.28993,6.2464 0.63084,8.3089 0.49514,2.9956 0.30602,3.75 -0.94011,3.75 -1.08896,0 -1.86003,-1.5851 -2.55386,-5.25 z m -13.85492,-3.4183 c 3.33588,-1.705 4.70704,-4.8886 4.70704,-10.9289 0,-9.19555 -2.90786,-12.56485 -12.11469,-14.03705 l -3.99728,-0.6392 0.6362,12.88665 c 0.34991,7.0878 0.82473,13.4851 1.05516,14.2164 0.48484,1.5387 5.19248,0.8128 9.71357,-1.4979 z m -13.98394,7.4183 c -0.44496,-0.6875 -0.82919,-3.05 -0.85384,-5.25 -0.0246,-2.2 -0.17941,-8.275 -0.34392,-13.5 -0.52298,-16.61085 -0.50018,-16.75565 2.75074,-17.46965 3.28277,-0.721 11.52835,1.0287 14.98154,3.179 2.93306,1.8265 6.11496,8.86415 6.31492,13.96735 0.14182,3.6194 -2.55342,13.8823 -4.09284,15.5848 -0.78042,0.863 -14.27019,4.7385 -16.49394,4.7385 -0.79951,0 -1.8177,-0.5625 -2.26266,-1.25 z m 96.06886,-3.2634 c 4.42828,-1.8503 4.56026,-3.5194 0.54539,-6.8977 -3.64156,-3.0642 -3.8197,-3.0828 -8.43576,-0.8816 -2.89198,1.3791 -3.52335,2.1918 -3.28392,4.2269 0.17597,1.4958 1.31218,3.0308 2.79641,3.7779 3.21799,1.6198 4.0125,1.5984 8.37788,-0.2255 z m -31.83021,4.2634 c -0.21425,-0.6875 -0.92714,-4.2931 -1.58418,-8.0124 -0.65705,-3.7193 -1.70513,-7.0891 -2.32906,-7.4885 -0.62394,-0.3993 -2.69902,-0.7312 -4.61129,-0.7376 -4.86794,-0.016 -5.46481,-3.0753 -0.83773,-4.2936 3.63137,-0.9561 3.81344,-1.7532 2.30726,-10.10095 -1.09836,-6.0874 1.57554,-5.1827 3.1438,1.0637 0.62506,2.4897 1.64491,5.47655 2.26632,6.63775 1.07433,2.0074 5.68183,3.8466 11.07005,4.4189 2.43929,0.2591 2.74364,0.7988 6.60244,11.7067 0.36039,1.0187 0.93985,0.617 1.96777,-1.3643 0.80132,-1.5446 1.45695,-3.3721 1.45695,-4.0611 0,-0.6891 1.80439,-2.4469 4.00975,-3.9064 3.7473,-2.4798 4.19575,-2.5573 6.85155,-1.1839 3.08249,1.594 9.1387,8.0038 9.1387,9.6722 0,4.3857 -8.6682,9.4276 -14.36928,8.358 -1.92499,-0.3611 -4.24668,-1.4816 -5.15931,-2.4901 -0.91263,-1.0084 -2.29777,-1.5885 -3.0781,-1.2891 -2.18427,0.8382 -4.02044,-1.2759 -5.40584,-6.2241 -1.45948,-5.2127 -1.90323,-5.5923 -7.26047,-6.2112 l -3.98575,-0.4604 0.65653,3.3582 c 1.54564,7.9061 1.84401,13.8582 0.69467,13.8582 -0.63537,0 -1.33052,-0.5625 -1.54478,-1.25 z m 73.62359,-6.405 c 2.20586,-1.9963 2.39583,-6.6295 0.34173,-8.3342 -3.99851,-3.3185 -14.47912,5.6897 -10.84632,9.3225 1.33896,1.339 8.69804,0.6466 10.50459,-0.9883 z m -30.03213,6.915 c -0.52867,-0.9879 -1.28435,-5.5005 -1.6793,-10.028 -0.61222,-7.0184 -0.49368,-8.232 0.80406,-8.232 0.83717,0 1.80857,0.7465 2.15867,1.6588 0.55135,1.4368 1.00792,1.303 3.41171,-1 1.52634,-1.4623 3.32904,-2.6588 4.00599,-2.6588 0.67695,0 2.09883,2.025 3.15974,4.5 1.06091,2.475 2.29789,4.5 2.74886,4.5 0.45096,0 1.62063,-1.3555 2.59927,-3.0122 0.97864,-1.6567 3.51607,-3.8982 5.63872,-4.9811 3.50934,-1.7903 4.17109,-1.8387 7.29627,-0.5329 3.49504,1.4603 4.67112,3.3989 6.62331,10.9175 0.5557,2.1402 2.01313,4.9586 3.23872,6.2632 1.51405,1.6116 1.90154,2.6988 1.20882,3.3915 -1.39225,1.3923 -4.14534,0.1867 -4.88329,-2.1384 -0.72871,-2.2959 -2.18585,-2.3953 -6.14737,-0.419 -1.93811,0.9669 -5.23401,1.3945 -9.40364,1.2202 l -6.41967,-0.2684 -2.19152,-5.4702 c -1.20533,-3.0086 -2.41254,-6.303 -2.68269,-7.3208 -0.27014,-1.0179 -0.97789,-1.5498 -1.57277,-1.1822 -2.00955,1.242 -5.05302,8.4299 -5.05302,11.9339 0,4.0147 -1.46095,5.4746 -2.86087,2.8589 z m 60.28737,25.409 c -0.77118,-2.0096 1.33429,-10.2872 4.10792,-16.1502 1.35607,-2.8665 2.46558,-6.069 2.46558,-7.1167 0,-1.0478 -1.77216,-5.287 -3.93813,-9.4205 l -3.93813,-7.5155 -5.81187,0.517 c -6.48596,0.5769 -6.48883,0.5827 -4.82581,9.7669 0.93978,5.1901 -0.40563,5.5761 -3.63378,1.0425 -1.6202,-2.2753 -2.39903,-5.0153 -2.68004,-9.4284 l -0.39612,-6.2211 5.36194,0.3261 c 2.94907,0.1794 6.58351,0.805 8.07654,1.3903 1.82571,0.7157 2.91992,0.732 3.34164,0.05 1.21166,-1.9605 2.90221,-0.2026 6.40649,6.6619 1.98888,3.896 4.19044,6.9291 5.02944,6.9291 0.83732,0 2.91271,-2.8495 4.72914,-6.493 3.44337,-6.9071 4.87467,-8.2234 5.93551,-5.4589 0.42496,1.1074 -2.22079,7.4212 -7.47288,17.8331 -4.47191,8.8654 -8.61006,18.0313 -9.19589,20.3688 -1.05773,4.2204 -2.58258,5.4702 -3.56155,2.919 z"
         style="fill:#525252"
         id="path3358"
         inkscape:connector-curvature="0" />
      <path
         d="m 713.28523,988.83345 c -1.35634,-1.3563 -1.61356,-3.8 -0.4,-3.8 1.24622,0 3.2,2.259 3.2,3.7 0,1.6264 -1.22969,1.6703 -2.8,0.1 z m 1.77525,22.63485 c -1.55258,-4.0836 -1.23715,-9.4349 0.55613,-9.4349 1.80643,0 2.15977,0.9258 2.76692,7.25 0.34799,3.6247 0.12391,4.75 -0.94589,4.75 -0.77105,0 -1.84077,-1.1543 -2.37716,-2.5651 z m -43.54035,-2.4101 c 3.48733,-1.3259 3.22328,-3.6529 -0.6849,-6.0358 -4.08192,-2.4888 -4.84745,-2.4785 -7.61725,0.1019 -3.79905,3.5394 -2.32869,5.5158 5.05215,6.7908 0.3767,0.065 1.8392,-0.3206 3.25,-0.8569 z m -8.16262,4.1255 c -8.04579,-2.3487 -8.19205,-10.5548 -0.26124,-14.65595 4.12126,-2.1312 5.61292,-1.8908 9.96442,1.60615 6.82421,5.4841 6.24193,10.8519 -1.38551,12.7725 -4.87281,1.227 -5.04476,1.2328 -8.31767,0.2773 z m -14.70755,1.6631 c -0.9894,-3.0855 -2.56473,-14.8451 -2.56473,-19.14525 0,-5.2608 1.72662,-6.285 2.66719,-1.5822 0.33945,1.6973 1.23168,3.3218 1.98272,3.61 1.96957,0.7558 6.35009,-2.4151 6.35009,-4.5965 0,-3.7781 -4.05107,-5.0866 -11.25,-3.6337 -3.06728,0.6191 -3.75,0.4699 -3.75,-0.8192 0,-2.1567 3.07936,-3.6248 8.00789,-3.81794 3.38927,-0.13281 4.66925,0.38704 7.21078,2.92854 5.1281,5.1281 3.86319,11.0555 -2.96867,13.91115 -3.14835,1.3161 -3.25,1.5439 -3.25,7.2861 0,5.4659 -1.44587,8.9445 -2.43527,5.859 z m 38.12134,1.0875 c -3.4695,-0.9397 -5.68607,-2.703 -5.68607,-4.5233 0,-1.5885 4.55826,-1.9014 5.5,-0.3776 0.93112,1.5066 3.5,1.2003 3.5,-0.4173 0,-0.7795 -2.025,-2.1906 -4.5,-3.1359 -3.82124,-1.4593 -4.5,-2.1321 -4.5,-4.4602 0,-3.15575 2.26923,-5.48095 4.50991,-4.62115 1.26738,0.4864 1.31985,0.9343 0.30059,2.56635 -1.9354,3.0991 -0.27269,3.5501 5.65692,1.5346 l 5.47375,-1.8606 -0.61732,-7.30285 c -0.38558,-4.5614 -0.24626,-7.3029 0.37113,-7.3029 1.17313,0 3.30502,6.6485 3.30502,10.307 0,2.6476 1.36756,4.11595 4,4.29485 0.825,0.056 2.5125,0.1686 3.75,0.25 3.98167,0.2621 2.61466,3.0662 -1.84217,3.7788 l -4.09217,0.6544 0.66982,4.4667 c 0.87433,5.8304 -1.39492,5.4397 -3.33037,-0.5734 -1.41273,-4.3892 -2.62216,-5.0198 -5.53793,-2.8877 -1.50362,1.0994 -1.58652,1.6825 -0.55967,3.9362 2.16418,4.7498 -0.62208,7.2311 -6.37144,5.674 z m 84.46554,6.214 c -2.27905,-1.4443 -0.89232,-4.5532 2.2781,-5.1072 4.81738,-0.8418 4.19087,-2.8433 -1.70641,-5.4514 -4.80385,-2.1245 -6.7233,-3.9658 -6.7233,-6.4495 0,-1.5696 4.18284,-5.1068 6.03896,-5.1068 2.56641,0 2.52256,2.6291 -0.067,4.015 -2.54868,1.364 -1.80995,2.642 2.01245,3.4816 5.29981,1.164 9.67634,8.4703 7.25025,12.1037 -0.94429,1.4142 -4.71855,3.4042 -6.41895,3.3844 -0.72366,-0.01 -1.92252,-0.3999 -2.66413,-0.8698 z m -19.39256,-13.1149 c 0.14248,-1.375 -0.20416,-3.175 -0.77032,-4 -0.88066,-1.2833 -1.31534,-1.159 -3.00905,0.8608 -1.08882,1.2984 -1.97968,3.2408 -1.97968,4.3164 0,1.5435 0.57959,1.889 2.75,1.6392 2.09446,-0.241 2.81175,-0.9123 3.00905,-2.8164 z m -6.33005,24.4934 c -5.19896,-5.5125 -4.00889,-7.5199 2.071,-3.4934 3.78352,2.5057 5.72359,2.5154 7.96404,0.04 1.42636,-1.5761 1.69244,-3.2413 1.35777,-8.4972 -0.50941,-8.0001 -1.47258,-9.2238 -5.45904,-6.9359 -2.12675,1.2206 -3.98605,1.4991 -6.65972,0.9975 -3.021,-0.5668 -4.08813,-1.4386 -5.75132,-4.6987 -1.12315,-2.2016 -2.71352,-4.2605 -3.53416,-4.5754 -1.87777,-0.7206 -5.2075,2.2142 -5.6117,4.9461 -0.61562,4.1607 -2.70785,2.8689 -4.31668,-2.6653 -1.22438,-4.2117 -1.34255,-6.0163 -0.49738,-7.5955 1.3723,-2.56415 3.00819,-1.72465 3.00819,1.5437 0,2.9612 1.08598,3.1342 2.76793,0.441 1.90865,-3.05615 4.78102,-2.4027 8.40335,1.9119 l 3.28421,3.9118 2.02226,-3.5659 c 3.31996,-5.85435 5.00278,-6.30335 8.40034,-2.2414 3.64088,4.3528 7.61698,15.9975 7.54023,22.0827 -0.0338,2.6762 -0.88547,6.0211 -2.03707,8 -1.61546,2.7761 -2.67208,3.4587 -5.75115,3.7155 -3.24077,0.2703 -4.2551,-0.1975 -7.2011,-3.3212 z"
         style="fill:#525252"
         id="path3356"
         inkscape:connector-curvature="0" />
      <path
         inkscape:connector-curvature="0"
         id="path3352"
         d="m 710.93717,963.78345 c -0.0814,-0.6875 -0.19393,-2.08939 -0.25,-3.11532 -0.18427,-3.37184 -7.75627,-5.51584 -19.70272,-5.57881 -5.83042,-0.0307 -12.08323,-0.57266 -13.89511,-1.20428 -2.56398,-0.89381 -4.09356,-0.85529 -6.89923,0.17372 -2.63058,0.96479 -9.28062,1.27215 -24.60488,1.13721 -27.76499,-0.24449 -50.31508,-0.9302 -51.3358,-1.56104 -0.45301,-0.27998 -9.78778,-0.76359 -20.74393,-1.0747 -26.41897,-0.75018 -31.44326,-2.35987 -32.85685,-10.52678 -0.72599,-4.19436 0.83438,-7.4191 2.41938,-5 0.54055,0.825 0.89824,2.69267 0.79489,4.15039 -0.41501,5.85318 4.80912,7.65713 22.72231,7.84626 6.6,0.0697 14.475,0.31073 17.5,0.53566 20.10496,1.49494 41.54929,2.08946 61,1.69116 24.06284,-0.49274 27.89544,-0.48524 46.5,0.091 9.74103,0.30172 12.99011,0.80168 17.2596,2.65587 4.76058,2.06747 5.68236,2.16582 9.71539,1.03664 2.45068,-0.68615 5.12238,-0.99175 5.9371,-0.67911 0.81473,0.31264 3.85946,0.1925 6.76608,-0.26697 2.90662,-0.45948 6.28967,-0.45335 7.5179,0.0136 1.29546,0.49254 2.47292,0.46105 2.80421,-0.075 0.82979,-1.34263 38.84824,-0.45398 39.30582,0.91875 0.40604,1.21813 7.45262,1.48957 8.61071,0.3317 0.41258,-0.4125 19.05008,-0.77226 41.41667,-0.79947 40.42008,-0.0492 40.69859,-0.0637 45.95881,-2.39134 6.42746,-2.84418 8.20771,-5.18273 8.20771,-10.7817 0,-4.67284 1.52475,-5.6577 2.95108,-1.90616 1.48602,3.90854 -0.68991,10.19209 -4.54863,13.13527 -7.4753,5.7017 -7.97721,5.75251 -56.90245,5.76076 -24.75,0.004 -48.825,-0.27278 -53.5,-0.61545 -4.675,-0.34268 -11.425,-0.6561 -15,-0.69649 -3.575,-0.0404 -7.4,-0.0936 -8.5,-0.11818 -1.1,-0.0246 -2.9,0.0248 -4,0.10991 -1.1,0.0851 -6.95,0.36285 -13,0.61731 -14.26417,0.59993 -15.09117,0.82401 -16.34805,4.42951 -1.06651,3.05937 -4.99159,4.35985 -5.30001,1.75603 z"
         style="fill:#525252" />
    </g>
    <g
       id="g3533">
      <path
         d="m 150.69204,910.78345 c -0.35797,-2.8875 -0.90754,-7.09914 -1.22126,-9.3592 -0.47157,-3.39714 -0.25115,-4.223 1.27202,-4.76598 1.01334,-0.36123 2.96743,-1.31796 4.34243,-2.12606 4.51446,-2.6532 11.98869,-1.57657 13.33053,1.92021 0.46865,1.22127 -0.27866,1.37451 -4.35096,0.8922 -3.72452,-0.44111 -5.56148,-0.1599 -7.57538,1.15965 -2.54571,1.66801 -2.6313,2.00823 -2.01602,8.01374 0.69036,6.73826 0.14565,9.51544 -1.86633,9.51544 -0.77573,0 -1.51565,-2.02849 -1.91503,-5.25 z m 23.64319,8.51779 c -2.80538,-0.25267 -4.25,-0.86115 -4.25,-1.7901 0,-2.16923 3.36147,-3.47769 8.93426,-3.47769 2.78616,0 5.06574,-0.41 5.06574,-0.91111 0,-1.12675 -4.73558,-5.03871 -8.72244,-7.20541 -3.66964,-1.99431 -4.4845,-4.74608 -2.57373,-8.6914 1.55511,-3.21093 6.26005,-5.80365 8.77821,-4.83735 2.51797,0.96624 1.7269,2.53115 -2.21865,4.38896 -5.43437,2.55886 -5.28598,4.56611 0.58138,7.86432 7.47374,4.20119 10.23597,10.19897 6.32649,13.737 -1.78181,1.61251 -3.11642,1.71582 -11.92126,0.92278 z m -58.71482,-4.8828 c 4.78147,-3.13294 1.97471,-10.38499 -4.0193,-10.38499 -3.63743,0 -7.51589,3.64497 -7.51589,7.06343 0,4.5533 6.70756,6.48475 11.53519,3.32156 z m -11.90903,2.96919 c -2.54264,-2.35767 -2.7973,-3.14351 -2.33831,-7.21565 0.40614,-3.6033 1.26585,-5.25786 4.06476,-7.82287 1.95232,-1.78917 4.78505,-3.56309 6.29494,-3.94205 2.38401,-0.59835 3.2454,-0.10901 6.54615,3.71869 3.21246,3.72532 3.80132,4.07203 3.80361,2.23949 0.004,-3.21867 1.0383,-5.33179 2.60969,-5.33179 1.01759,0 1.39301,1.44593 1.39301,5.36514 0,3.91357 0.56075,6.07802 2.07258,8 4.32249,5.49515 11.92742,1.60656 11.92742,-6.09879 0,-2.59708 -0.78941,-4.20135 -3.15448,-6.41066 -3.41758,-3.19249 -2.82808,-5.61971 1.06478,-4.38416 4.93107,1.56506 7.28513,13.52888 3.72971,18.95513 -3.52299,5.37677 -11.50137,5.76007 -16.18703,0.77768 -2.26852,-2.41218 -2.64711,-2.52368 -3.50432,-1.03208 -1.66007,2.88864 -7.49865,5.82774 -11.57691,5.82774 -2.82323,0 -4.67586,-0.72665 -6.7456,-2.64582 z m -12.895496,13.7239 c -0.27642,-1.05706 -0.26536,-4.0266 0.0246,-6.59897 0.49944,-4.43097 0.32677,-4.85534 -3.2818,-8.06573 -6.53021,-5.80963 -11.81765,-15.41338 -8.48599,-15.41338 0.5431,0 2.07415,1.72143 3.40233,3.8254 3.21129,5.08702 8.70344,10.49951 9.62576,9.48614 0.77484,-0.85135 3.36415,-8.81483 4.43259,-13.63258 0.74759,-3.37096 3.08982,-3.0403 2.96557,0.41866 -0.0834,2.32222 -4.43109,18.72477 -5.83755,22.02344 -0.40403,0.9476 -0.0441,2.26812 0.86634,3.17857 2.01772,2.01772 1.96369,3.02281 -0.27124,5.04538 -2.34182,2.11932 -2.8264,2.08173 -3.44059,-0.26693 z"
         style="fill:#525252"
         id="path3342"
         inkscape:connector-curvature="0" />
      <path
         inkscape:connector-curvature="0"
         id="path3340"
         d="m 380.17816,917.20709 c -0.5376,-1.00451 -1.2919,-6.39205 -1.67623,-11.97232 l -0.6988,-10.14595 -3.84808,3.04773 c -4.06165,3.21689 -7.13109,3.4943 -7.67052,0.69325 -0.2034,-1.05616 0.83029,-2.27741 2.78187,-3.28661 1.70805,-0.88327 3.58565,-2.65967 4.17246,-3.94757 0.5868,-1.28789 2.13917,-2.83018 3.44971,-3.4273 3.96811,-1.80799 5.08662,1.4533 5.86993,17.11513 0.67664,13.52906 0.0795,16.51999 -2.38034,11.92364 z"
         style="fill:#525252" />
      <path
         inkscape:connector-curvature="0"
         id="path3338"
         d="m 596.98523,911.93345 c -2.71154,-2.71154 -1.22916,-4.46273 2.3841,-2.81641 3.35288,1.52767 5.71988,0.57175 5.70059,-2.30221 -0.0195,-2.90405 -0.63756,-3.75087 -5.28532,-7.24155 l -3.80063,-2.85444 3.05063,-2.78633 c 1.67785,-1.53247 3.05063,-3.17568 3.05063,-3.65156 0,-2.27145 -2.96591,-4.43324 -6.78509,-4.9455 -3.2475,-0.43558 -4.21491,-0.99416 -4.21491,-2.43367 0,-2.66054 4.83691,-2.45599 9.02502,0.38167 4.16111,2.81936 5.71868,6.99187 3.88736,10.41371 -0.86576,1.61769 -0.99178,2.91202 -0.3662,3.76112 3.89203,5.2827 4.78715,7.08544 4.78715,9.6411 0,6.19636 -7.0783,9.1891 -11.43333,4.83407 z"
         style="fill:#525252" />
    </g>
    <g
       id="g3528">
      <path
         inkscape:connector-curvature="0"
         id="path3326"
         d="m 598.57295,850.78345 c -0.60371,-2.46804 0.95017,-19.20089 2.04301,-22 1.06311,-2.72293 -2.91951,-2.22097 -6.15274,0.77549 -3.18776,2.95432 -4.87799,2.7582 -4.87799,-0.566 0,-1.85342 1.28397,-3.09574 5.85664,-5.66667 5.69734,-3.20326 8.64758,-4.07161 8.63929,-2.54282 -0.0199,3.66865 -2.1937,29.14718 -2.60223,30.5 -0.73771,2.44286 -2.24975,2.1827 -2.90598,-0.5 z"
         style="fill:#525252" />
      <path
         inkscape:connector-curvature="0"
         id="path3324"
         d="m 377.06048,851.46835 c -0.53639,-1.4108 -0.97525,-4.95553 -0.97525,-7.87716 l 0,-5.31207 -4.5,0.50722 c -3.62992,0.40914 -4.5,0.20507 -4.5,-1.05545 0,-0.85947 1.0125,-1.86662 2.25,-2.23812 1.2375,-0.3715 3.74466,-2.31432 5.57147,-4.31739 3.24841,-3.56181 3.35473,-3.59793 4.83317,-1.64193 1.09695,1.45127 1.35409,3.37181 0.93722,7 -0.31596,2.75 -0.57839,7.8125 -0.58317,11.25 -0.009,6.54375 -1.33441,8.15369 -3.03344,3.6849 z"
         style="fill:#525252" />
      <path
         inkscape:connector-curvature="0"
         d="m 118.28523,825.83345 c -1.62082,-1.62082 -1.519,-3.8 0.17756,-3.8 1.84566,0 3.95615,2.65103 3.14951,3.9562 -0.84463,1.36664 -1.8515,1.31937 -3.32707,-0.1562 z m 3.85258,24.45 c -1.44579,-5.20603 -1.40865,-15.00607 0.0513,-13.54609 1.07175,1.07175 3.79012,12.01723 3.86096,15.54609 0.066,3.29004 -2.85835,1.79506 -3.91229,-2 z m 55.89551,-4.22222 c 3.28566,-1.75843 3.63654,-7.02778 0.46797,-7.02778 -1.93561,0 -4.58484,4.3966 -3.83176,6.3591 0.73541,1.91643 0.95192,1.95947 3.36379,0.66868 z m -13.59764,7.97822 c -2.43342,-0.98176 -3.66352,-4.31963 -5.43803,-14.756 l -1.23273,-7.25 -4.83984,0 c -2.66192,0 -4.83985,-0.45 -4.83985,-1 0,-0.55 -0.1125,-1.3375 -0.25,-1.75 -0.1375,-0.4125 1.775,-0.975 4.25,-1.25 l 4.5,-0.5 0.31058,-4.31314 c 0.37715,-5.23754 2.27858,-5.1644 3.61579,0.13909 l 0.92636,3.67405 7.88938,0 c 8.47177,0 11.75743,1.05767 11.75866,3.78518 6.9e-4,1.52536 -1.06301,1.67605 -9.62782,1.36393 l -9.62861,-0.35088 0.68071,5.85088 c 1.42724,12.26766 1.46107,12.35089 5.01957,12.35089 4.09393,0 4.55587,-0.51151 3.56911,-3.95213 -1.15654,-4.0326 2.01285,-10.76545 5.47694,-11.63488 1.97091,-0.49467 3.24406,-0.0714 5.13862,1.70847 2.15708,2.02648 2.47207,3.08459 2.19464,7.3723 l -0.32393,5.00624 5,-0.25416 c 2.75,-0.13978 5.5625,-0.46316 6.25,-0.71861 1.63136,-0.60616 1.52144,-5.01865 -0.24884,-9.98895 -1.6065,-4.51046 -1.23002,-5.47455 1.47755,-3.78365 1.61232,1.00691 2.39354,0.67312 5.35452,-2.28786 4.61007,-4.61007 8.28277,-4.63775 13.09557,-0.0987 5.0652,4.7771 4.72053,7.28023 -0.4288,3.11412 -6.61247,-5.34986 -14.44637,1.03331 -13.79596,11.24114 l 0.29596,4.6449 -6.5,1.37838 c -3.575,0.7581 -8.94439,1.19393 -11.93198,0.96851 -2.98759,-0.22542 -7.44661,0.19646 -9.90893,0.93751 -5.08028,1.52893 -4.91351,1.52139 -7.80864,0.35336 z m -28.66897,0.244 c -0.9227,-1.58523 -3.55272,-11.90947 -3.85955,-15.15088 -0.19642,-2.07495 0.16521,-3.56942 0.92754,-3.83316 1.28491,-0.44453 1.64106,0.21915 2.69617,5.02432 l 0.61268,2.79028 3.33892,-3.54028 c 3.84218,-4.0739 4.85786,-4.28518 7.56861,-1.57443 2.80352,2.80352 7.19044,11.81952 6.08382,12.50345 -1.20548,0.74503 -4.5611,-2.87557 -6.09318,-6.57434 -0.65952,-1.59223 -1.80916,-2.89496 -2.55476,-2.89496 -1.7086,0 -4.06533,3.5875 -4.92695,7.5 -1.20103,5.45371 -1.60074,6.5 -2.48315,6.5 -0.48048,0 -1.07004,-0.3375 -1.31015,-0.75 z m -49.059606,2.5 c -2.39272,-3.78003 -8.92478,-19.78044 -8.32151,-20.38371 1.22405,-1.22405 3.07489,1.20749 6.29102,8.26481 1.84696,4.0529 3.54756,7.3689 3.77911,7.3689 0.23155,0 1.86483,-2.25 3.6295,-5 1.76467,-2.75 3.83427,-5 4.59912,-5 0.76485,0 2.34101,2.02185 3.502586,4.49299 1.16157,2.47115 2.50106,4.25251 2.97665,3.95858 0.47558,-0.29393 1.70617,-2.43672 2.73465,-4.76176 2.87847,-6.50723 7.15129,-12.82991 8.22282,-12.16767 1.61244,0.99654 1.09106,3.9381 -1.51909,8.57058 -1.3658,2.424 -2.94843,5.53228 -3.51695,6.90728 -3.29072,7.95872 -4.44033,10.02225 -5.41449,9.71885 -0.59692,-0.18591 -2.2103,-2.44729 -3.5853,-5.02528 -1.374996,-2.578 -2.941056,-4.54166 -3.480126,-4.36371 -0.53907,0.17796 -2.06235,2.42654 -3.38508,4.99685 -2.66034,5.16954 -4.37155,5.80624 -6.51291,2.42329 z"
         style="fill:#525252"
         id="path3322" />
    </g>
    <g
       id="g3523">
      <path
         inkscape:connector-curvature="0"
         d="m 106.69221,788.45166 c -0.33385,-0.86998 -0.60707,-5.03248 -0.60716,-9.25 -10e-5,-4.21751 -0.6751,-11.1953 -1.5,-15.50618 -1.95974,-10.24143 -1.93009,-11.89154 0.20632,-11.4801 2.26507,0.43621 3.07392,3.7304 3.19418,13.00905 0.10559,8.14755 1.11116,10.01359 3.99143,7.40698 4.1248,-3.73289 9.5249,-0.45757 13.13635,7.96759 2.2043,5.14242 2.48688,7.43445 0.91658,7.43445 -0.58043,0 -2.16795,-2.43029 -3.52782,-5.40064 -2.99659,-6.54542 -4.91714,-8.39069 -7.25068,-6.96648 -2.4294,1.4827 -5.16283,7.36656 -5.16463,11.11712 -0.002,3.45566 -2.27916,4.57491 -3.39457,1.66821 z m -23.595636,1.82844 c -3.52354,-3.52354 -4.01135,-4.5729 -4.01135,-8.629 0,-4.4353 -0.11525,-4.61765 -2.91822,-4.61765 -3.85128,0 -6.08178,-0.91688 -6.08178,-2.5 0,-1.48314 2.189,-2.5 5.38178,-2.5 3.05281,0 4.61539,-1.83792 4.63353,-5.45 0.008,-1.6775 0.40811,-3.67015 0.88819,-4.42812 1.21431,-1.91715 3.0965,-0.48547 3.0965,2.35535 0,4.62156 0.95219,5.52191 5.85698,5.53808 9.31686,0.0307 9.93141,4.42287 0.72567,5.18628 -3.06919,0.25452 -5.87097,0.75339 -6.22618,1.1086 -0.35521,0.35521 -0.86147,2.88998 -1.12502,5.63282 -0.44165,4.59633 -0.2784,5.07848 2.08399,6.15485 2.0634,0.94015 3.3678,0.84592 6.68978,-0.48327 4.23908,-1.69615 5.99478,-1.46494 5.99478,0.78944 0,2.12508 -3.52177,4.6441 -7.36462,5.26771 -3.23698,0.52529 -4.02984,0.1691 -7.62403,-3.42509 z m 63.438656,-13.37889 c 0.59527,-0.54374 0.52926,-1.2885 -0.17678,-1.99454 -1.90298,-1.90298 -9.1767,0.8559 -7.86256,2.98222 0.72194,1.16812 6.4496,0.46445 8.03934,-0.98768 z m 6.05,17.43097 c -17.06338,-4.00369 -22.25087,-8.46351 -19.50876,-16.77218 1.26843,-3.8434 6.28038,-7.52655 10.24194,-7.52655 3.45229,0 7.76682,3.61962 7.76682,6.51588 0,3.12712 -3.31516,5.32439 -9.21383,6.10687 -9.90406,1.31382 -4.31162,4.34022 16.63788,9.00373 5.63079,1.25345 5.90105,3.40453 0.40928,3.25752 -2.38333,-0.0638 -5.23333,-0.32718 -6.33333,-0.58527 z"
         style="fill:#525252"
         id="path3314" />
      <path
         inkscape:connector-curvature="0"
         d="m 601.82579,793.58169 c -1.51769,-0.79168 -4.89269,-1.57641 -7.5,-1.74383 -4.11782,-0.26442 -4.78452,-0.61513 -5.07522,-2.66975 -0.44064,-3.11433 1.22687,-4.63466 5.08335,-4.63466 2.66764,0 3.58669,-0.71722 6.09369,-4.7555 1.85458,-2.98736 3.1307,-6.61251 3.43217,-9.75 0.47957,-4.99102 0.47782,-4.9945 -2.52488,-4.9945 -1.65263,0 -3.56498,0.675 -4.24967,1.5 -1.69942,2.04768 -3,1.884 -3,-0.37756 0,-2.28235 1.63224,-3.74105 5.18342,-4.63234 6.42958,-1.61372 9.92688,3.64685 7.77488,11.69481 -0.63462,2.3733 -1.51189,4.76509 -1.94951,5.31509 -0.43761,0.55 -1.73011,2.67715 -2.87222,4.72699 l -2.07656,3.72699 3.94032,3.16652 c 5.37747,4.32146 3.86156,6.62087 -2.25977,3.42774 z m 51.77831,0.47261 c -1.72395,-1.90495 -1.72039,-2.00173 0.095,-2.58136 4.70974,-1.50373 6.38612,-2.49683 6.38612,-3.78319 0,-2.08541 -3.74198,-6.4243 -6.79761,-7.88194 -3.7686,-1.79776 -4.13184,-5.89809 -0.75762,-8.55226 3.36387,-2.64602 3.22351,-3.61164 -0.69269,-4.7653 -1.92862,-0.56815 -3.39146,-1.72665 -3.60129,-2.85206 -0.3155,-1.69209 0.11196,-1.83284 3.98769,-1.31299 2.74071,0.3676 4.99,1.38364 6.1013,2.75604 2.29337,2.83219 2.24372,3.22416 -0.87852,6.93473 l -2.63875,3.13597 3.08806,3.19075 c 3.72739,3.85135 6.50563,10.11914 5.66265,12.77513 -0.56794,1.78942 -5.19056,4.91563 -7.26857,4.91563 -0.49207,0 -1.70067,-0.89062 -2.68578,-1.97915 z m -40.51887,7.02924 c 0,-3.27321 4.82561,-12.05009 6.62525,-12.05009 1.99128,0 1.22678,3.69836 -1.9486,9.42654 -2.50956,4.52708 -4.67665,5.7428 -4.67665,2.62355 z"
         style="fill:#525252"
         id="path3308" />
      <path
         inkscape:connector-curvature="0"
         id="path3306"
         d="m 370.6884,789.83125 c -0.88174,-0.49345 -1.60317,-2.01096 -1.60317,-3.37224 0,-2.77191 3.90987,-4.90633 7.12072,-3.88724 2.96161,0.93997 6.87928,-4.00565 6.87928,-8.68434 0,-4.00268 -1.4591,-4.99488 -3.84164,-2.61234 -0.98886,0.98886 -1.4365,0.93796 -2.19875,-0.25 -1.59185,-2.48088 -0.60442,-4.47305 2.38737,-4.8166 5.99522,-0.68843 9.23392,6.57272 6.2827,14.08579 -1.56404,3.98164 -1.54549,4.19989 0.54626,6.42645 2.77362,2.95238 1.87192,3.81365 -2.48667,2.37518 -2.69668,-0.88998 -4.31753,-0.83616 -7.46384,0.24783 -2.54876,0.87812 -4.60559,1.05647 -5.62226,0.48751 z"
         style="fill:#525252" />
    </g>
    <g
       id="g3518">
      <path
         inkscape:connector-curvature="0"
         d="m 128.34366,723.78345 c -0.82281,-1.04263 -2.84806,-6.51233 -5.92428,-16 -0.41616,-1.28351 -0.0189,-1.75 1.4902,-1.75 1.13169,0 2.36725,-0.50099 2.74568,-1.11332 0.37844,-0.61232 2.63754,-1.97565 5.02022,-3.02963 3.85302,-1.70437 4.69589,-1.76427 7.62095,-0.54159 3.47437,1.4523 6.46604,4.34063 5.4983,5.30837 -0.31652,0.31653 -2.11583,0.0671 -3.99846,-0.55418 -4.24428,-1.40074 -7.9393,-0.1771 -10.28758,3.40682 -1.6512,2.52004 -1.61704,5.03834 0.17322,12.77353 0.66608,2.87792 -0.60656,3.69433 -2.33825,1.5 z m -19.40963,1.7298 c -5.78884,-3.1445 -9.355316,-17.4798 -4.34881,-17.4798 1.77218,0 2.55657,2.46713 1.87224,5.88877 -1.00822,5.0411 3.37695,9.96039 7.66554,8.59924 1.5391,-0.48849 1.9609,-1.52472 1.95607,-4.8054 -0.003,-2.30043 -0.67839,-5.47155 -1.5,-7.04692 -1.8956,-3.63464 -1.88213,-4.63569 0.0624,-4.63569 2.13177,0 5.56309,8.11541 5.77297,13.65365 0.13026,3.43731 -0.28996,4.84411 -1.77033,5.92675 -2.45316,1.79406 -6.29538,1.75425 -9.71007,-0.1006 z m -14.783066,-3.51498 c 2.8368,-1.51821 2.56184,-6.9956 -0.518,-10.3188 -3.90974,-4.21868 -9.38156,-3.31474 -11.89969,1.96582 -2.09861,4.40083 -2.07176,4.96446 0.35195,7.38816 2.21541,2.21541 8.75228,2.73812 12.06574,0.96482 z m -9.56574,5.13006 c -1.1,-0.48789 -3.29444,-2.25539 -4.87653,-3.92776 -5.51413,-5.82882 -3.57023,-13.79718 4.50849,-18.48098 l 3.63196,-2.10571 3.53022,2.41895 c 7.61551,5.21823 10.975206,14.97652 6.89229,20.01871 -2.00408,2.47493 -10.03969,3.69425 -13.68643,2.07679 z m 69.000006,2.18151 c -2.67387,-0.65725 -4.64557,-2.33969 -4.22402,-3.60434 0.18843,-0.56528 2.65701,-1.06134 5.48574,-1.10234 2.82872,-0.041 5.65924,-0.59067 6.29004,-1.22147 1.8898,-1.8898 0.052,-5.25468 -3.99868,-7.32116 -4.38328,-2.23618 -9.05308,-7.36963 -9.05308,-9.95193 0,-2.04176 6.72101,-5.46811 9.62794,-4.90829 3.22705,0.62148 2.27729,4.101 -1.37794,5.04816 -4.05582,1.05097 -4.08017,2.01489 -0.12526,4.95892 1.71861,1.27933 4.64361,3.8206 6.5,5.64726 7.57069,7.44944 1.91538,15.16889 -9.12474,12.45519 z"
         style="fill:#525252"
         id="path3296" />
      <path
         id="path3294"
         d="m 385.06128,726.50459 c -0.81801,-0.98564 -1.48603,-5.5586 -1.78106,-12.19228 l -0.47211,-10.61508 -2.84886,3.41811 c -2.37338,2.84763 -3.0153,3.16776 -3.84613,1.91811 -1.74748,-2.62841 -1.12378,-4.50047 2.76427,-8.29705 4.43528,-4.33094 5.91792,-4.59568 7.17789,-1.28172 0.9703,2.55209 1.6925,27.24956 0.82227,28.11978 -0.27903,0.27903 -1.09635,-0.20242 -1.81627,-1.06987 z"
         style="fill:#525252"
         inkscape:connector-curvature="0" />
      <path
         inkscape:connector-curvature="0"
         id="path3292"
         d="m 605.58465,725.03281 c -1.34531,-1.48655 -2.86269,-1.93624 -5.90499,-1.75 -4.05485,0.24822 -4.09741,0.21472 -4.40279,-3.46566 -0.27895,-3.36193 -0.0406,-3.77516 2.5,-4.33352 5.00418,-1.09982 5.37788,-1.37232 6.90966,-5.03839 2.85186,-6.82545 0.36105,-10.63224 -3.92837,-6.00388 -2.46934,2.66446 -3.67293,2.49996 -3.67293,-0.502 0,-2.28213 4.62461,-5.90591 7.53703,-5.90591 1.64405,0 2.5691,0.8657 3.36514,3.14922 1.64217,4.71072 1.35381,7.41212 -1.36363,12.77473 l -2.46146,4.85746 3.96146,2.7453 c 2.1788,1.50991 3.96146,3.35909 3.96146,4.10929 0,2.07133 -4.44376,1.63612 -6.50058,-0.63664 z"
         style="fill:#525252" />
    </g>
    <g
       id="g3512">
      <path
         inkscape:connector-curvature="0"
         d="m 87.741684,659.3385 c -0.28229,-0.99278 -0.82216,-5.57228 -1.19971,-10.17667 -0.56121,-6.84427 -0.43744,-8.28985 0.6784,-7.92347 2.12191,0.69672 3.98245,7.65278 3.65843,13.67791 -0.2891,5.37569 -2.12866,7.96883 -3.13712,4.42223 z m 15.593536,2.03267 c -0.6875,-0.27741 -1.25,-1.14189 -1.25,-1.92105 0,-1.03334 1.35294,-1.41667 5,-1.41667 2.75001,0 5.00001,-0.45 5.00001,-1 0,-1.38565 -3.11345,-4.36323 -6.90304,-6.60179 -5.13634,-3.03411 -5.561826,-9.39821 -0.62836,-9.39821 2.5798,0 3.34448,1.78692 1.53779,3.59359 -0.65812,0.65813 0.47305,2.21955 3.35031,4.62464 4.42521,3.69901 8.24134,10.0051 7.13646,11.79284 -0.61866,1.001 -10.94098,1.25561 -13.24317,0.32665 z"
         style="fill:#525252"
         id="path3288" />
      <path
         inkscape:connector-curvature="0"
         id="path3280"
         d="m 381.40785,661.33725 c -1.19756,-0.23312 -2.73099,-1.09091 -3.40762,-1.9062 -1.93181,-2.32769 0.39734,-3.8069 5.57251,-3.53901 3.41992,0.17703 4.51249,-0.12427 4.51249,-1.2444 0,-1.79949 -4.63655,-5.23386 -8.31099,-6.15609 -3.10039,-0.77814 -3.45063,-2.93639 -0.93901,-5.78633 1.91124,-2.16869 2.09819,-2.16652 -4.75,-0.0551 -2.85789,0.88113 -2.68623,-3.02257 0.22251,-5.05993 5.25165,-3.6784 12.54517,-0.14511 11.4106,5.52777 -0.44073,2.20365 -0.11679,3.12149 1.38548,3.92548 2.58684,1.38443 4.98141,6.14589 4.98141,9.90521 0,4.41095 -3.39476,5.80627 -10.67738,4.38862 z"
         style="fill:#525252" />
      <path
         inkscape:connector-curvature="0"
         id="path3276"
         d="m 85.469264,637.59186 c -0.9007,-2.34718 0.0142,-5.01142 1.84171,-5.36337 1.82779,-0.352 3.50279,3.81714 2.30937,5.74812 -0.94735,1.53285 -3.50624,1.29568 -4.15108,-0.38475 z"
         style="fill:#525252" />
      <path
         inkscape:connector-curvature="0"
         d="m 597.7519,656.36678 c -1.04154,-1.04153 -0.78166,-21.90069 0.30858,-24.76823 1.93789,-5.09705 3.02475,-2.65534 3.02475,6.79533 0,14.43109 -1.07561,20.23063 -3.33333,17.9729 z m 52.29249,4.11749 c -0.86562,-1.04302 -2.60449,-1.45145 -5.32185,-1.25 -3.42776,0.2541 -4.22242,-0.0681 -5.272,-2.13747 -1.89186,-3.73004 -0.0874,-6.27878 4.18457,-5.91073 4.39573,0.37872 5.37417,-0.71571 6.09712,-6.8199 0.83812,-7.07656 -0.7242,-9.7284 -5.2331,-8.88253 -3.44516,0.64632 -3.9555,0.1248 -2.80691,-2.86838 0.89976,-2.34474 5.9501,-1.97358 8.36125,0.61449 3.36676,3.6138 3.99562,7.81456 2.25739,15.0794 -1.51243,6.32114 -1.4967,6.56425 0.59688,9.2258 1.18263,1.50348 1.90481,3.1307 1.60485,3.61606 -0.84729,1.37094 -3.04983,1.04228 -4.4682,-0.66674 z m -44.88308,0.79918 c 0.10234,-3.69942 2.28185,-9.53598 3.74281,-10.02296 1.63417,-0.54473 1.4763,2.55034 -0.41289,8.09482 -1.76915,5.19216 -3.4471,6.16375 -3.32992,1.92814 z m 118.67392,6.66985 c -2.64319,-1.53946 -2.16824,-3.91985 0.78212,-3.91985 3.58629,0 9.46788,-2.64308 9.46788,-4.25469 0,-1.90342 -3.7444,-6.68303 -8.75,-11.16912 -2.3375,-2.0949 -4.25,-4.41808 -4.25,-5.16261 0,-0.74454 1.35,-2.3518 3,-3.5717 3.73632,-2.76238 3.82238,-4.62358 0.25,-5.40635 -4.87632,-1.06849 -5.40347,-1.3998 -5.06369,-3.18251 0.50009,-2.62382 3.95798,-2.62942 7.85348,-0.0127 4.22245,2.83632 5.07676,6.82326 2.02244,9.43845 -1.13423,0.97113 -2.06223,2.16209 -2.06223,2.64654 0,0.48446 2.02464,3.13272 4.4992,5.88503 7.26521,8.08065 7.8066,14.81581 1.44997,18.03811 -3.88335,1.96854 -6.62823,2.16889 -9.19917,0.67145 z m -51.75,0.065 c 0,-2.86935 5.91704,-12.98485 7.59546,-12.98485 2.2458,0 1.6552,2.46516 -2.14336,8.94642 -3.65163,6.23055 -5.4521,7.56418 -5.4521,4.03843 z"
         style="fill:#525252"
         id="path3274" />
    </g>
    <g
       id="g3507">
      <path
         inkscape:connector-curvature="0"
         d="m 123.56251,595.78345 c -1.13084,-3.07325 -3.45665,-11.35272 -3.46646,-12.33994 -0.006,-0.59947 1.73293,-1.66543 3.86418,-2.36881 3.054,-1.00791 4.64303,-1.02539 7.5,-0.0825 1.99375,0.65799 3.625,1.56331 3.625,2.01181 0,1.0832 -2.59367,2.02944 -5.56274,2.02944 -2.6356,0 -4.10284,3.34683 -3.11809,7.1125 0.95049,3.6347 -1.62835,6.93552 -2.84189,3.6375 z m -34.850496,10.5 c -0.27938,-0.9625 -0.8123,-4.34345 -1.18426,-7.51322 -0.37196,-3.16976 -1.18619,-6.09476 -1.80941,-6.5 -0.62322,-0.40523 -3.14667,-0.73678 -5.60768,-0.73678 -3.4044,0 -4.55534,-0.4049 -4.81235,-1.69299 -0.25166,-1.26135 0.6342,-1.88475 3.47456,-2.44512 2.09679,-0.41368 4.48735,-0.77683 5.31235,-0.80701 1.16807,-0.0427 1.63333,-2.00529 2.10253,-8.86888 0.45012,-6.58449 1.10931,-9.49343 2.60598,-11.5 2.31151,-3.09902 4.76408,-3.8686 6.83952,-2.14613 2.04726,1.69907 1.80426,3.96013 -0.42559,3.96013 -3.00265,0 -3.95392,2.06068 -4.6873,10.15378 l -0.6885,7.59783 3.87668,0.48475 c 2.13217,0.26662 4.72141,0.051 5.75385,-0.47905 2.356126,-1.20971 3.586186,0.48065 3.607506,4.95751 0.0243,5.11189 5.27521,7.0253 9.01533,3.28518 2.25697,-2.25697 2.59266,-6.07814 0.78785,-8.96809 -1.39916,-2.24042 -0.57732,-3.54884 1.68403,-2.68107 2.31933,0.89001 3.7641,5.58302 3.22821,10.48612 -0.57199,5.23329 -1.30268,6.06201 -6.01988,6.82751 -4.90259,0.79558 -9.17579,-1.14435 -11.61051,-5.27088 -1.675716,-2.84015 -2.578556,-3.39359 -5.535986,-3.39359 -3.49152,0 -3.53372,0.0508 -3.53372,4.2566 0,2.34113 0.38073,5.60363 0.84608,7.25 0.46534,1.64637 0.65284,3.5559 0.41666,4.2434 -0.6351,1.84874 -3.05059,1.51658 -3.63595,-0.5 z m 54.060716,4.10417 c -1.12328,-1.12328 -0.78893,-4.98551 0.84931,-9.81085 1.4972,-4.40989 1.46861,-4.64873 -1.10923,-9.26608 -1.45533,-2.60673 -3.49689,-5.82119 -4.53681,-7.14324 -2.01856,-2.56618 -2.54042,-6.134 -0.89721,-6.134 0.54646,0 2.90896,2.91564 5.25,6.47919 2.34104,3.56356 4.70644,6.48278 5.25644,6.48717 0.55,0.004 2.39889,-2.79875 4.10864,-6.22919 1.70975,-3.43044 3.84725,-6.38267 4.75,-6.56049 3.09514,-0.6097 1.767,4.72899 -3.83261,15.40581 -3.01068,5.74049 -5.84385,11.86471 -6.29594,13.60937 -0.82303,3.17618 -2.2526,4.45229 -3.54259,3.16231 z"
         style="fill:#525252"
         id="path3268" />
      <path
         inkscape:connector-curvature="0"
         id="path3266"
         d="m 385.33192,608.17127 c -0.44786,-1.21067 -0.51988,-4.99945 -0.16006,-8.41952 0.35983,-3.42006 0.41974,-10.8308 0.13313,-16.4683 -0.50552,-9.9435 -0.59135,-10.25 -2.87043,-10.25 -1.30131,0 -2.34933,0.6 -2.34933,1.34501 0,2.02884 -3.60629,4.87699 -5.6756,4.48243 -1.00342,-0.19133 -1.96185,-1.30736 -2.12985,-2.48008 -0.48438,-3.38116 5.11442,-6.77779 11.23515,-6.81606 l 5.00668,-0.0313 -0.24545,19.47726 c -0.23349,18.52762 -1.09775,24.1521 -2.94424,19.16056 z"
         style="fill:#525252" />
      <path
         inkscape:connector-curvature="0"
         id="path3264"
         d="m 618.13744,595.35542 c -3.29709,-3.74569 -4.2972,-4.36354 -5.47755,-3.38393 -0.79421,0.65913 -2.93591,1.05522 -4.75934,0.88019 -2.62021,-0.25151 -3.38608,-0.81868 -3.65281,-2.70514 -0.39542,-2.79659 1.22483,-4.07649 5.18749,-4.09778 1.90431,-0.0102 3.99792,-1.16323 6.30948,-3.47479 3.01225,-3.01225 3.41947,-4.00097 3.15,-7.64815 -0.40828,-5.52596 -2.88406,-7.26282 -5.83604,-4.09423 -2.43158,2.60999 -3.97344,2.09701 -3.97344,-1.32197 0,-4.80343 7.19184,-6.03196 11.07569,-1.89198 3.53108,3.76395 3.24118,11.90807 -0.62235,17.48314 l -2.78511,4.01892 4.16588,4.24472 c 4.59961,4.68666 4.83078,5.19991 2.70877,6.0142 -0.90818,0.3485 -2.97669,-1.16716 -5.49067,-4.0232 z"
         style="fill:#525252" />
    </g>
    <g
       id="g3502">
      <path
         inkscape:connector-curvature="0"
         id="path3252"
         d="m 385.69532,531.21158 c -0.33861,-0.54788 -0.21421,-7.44959 0.27644,-15.33714 0.49065,-7.88754 0.74057,-14.50482 0.55538,-14.70506 -0.18519,-0.20023 -1.93541,0.62399 -3.88938,1.83161 -3.32389,2.05427 -3.59653,2.08136 -4.23382,0.42063 -0.48766,-1.27082 0.13647,-2.35922 2.19717,-3.8316 1.58307,-1.13112 3.84764,-3.06251 5.03237,-4.29199 2.70655,-2.80877 6.32136,-3.29919 7.77937,-1.05543 0.86404,1.32969 0.61793,2.72321 -1.10851,6.27675 -1.22051,2.51218 -2.21911,6.21259 -2.21911,8.22313 0,5.54651 -2.1473,21.67852 -3.01198,22.6281 -0.41926,0.46043 -1.03933,0.38887 -1.37793,-0.159 z"
         style="fill:#525252" />
      <path
         inkscape:connector-curvature="0"
         id="path3248"
         d="m 616.7519,526.36678 c -0.36667,-0.36666 -0.66667,-5.51511 -0.66667,-11.44098 0,-5.92587 -0.38459,-11.012 -0.85464,-11.30251 -0.47005,-0.29051 -1.89849,0.58293 -3.17431,1.94098 -2.52703,2.6899 -5.97105,3.30593 -5.97105,1.06805 0,-1.76418 8.87373,-10.59887 10.64571,-10.59887 1.73121,0 2.11811,2.24181 2.79048,16.16881 0.63882,13.23204 -0.0711,16.86294 -2.76952,14.16452 z"
         style="fill:#525252" />
      <path
         inkscape:connector-curvature="0"
         d="m 171.28523,491.83345 c -1.60771,-1.60771 -1.52405,-3.8 0.14501,-3.8 1.35043,0 4.65499,3.07296 4.65499,4.32874 0,1.13257 -3.52723,0.74403 -4.8,-0.52874 z m 14.93684,26.02276 c -0.47794,-1.27752 -1.18684,-4.91188 -1.57532,-8.07636 -0.59787,-4.87008 -0.44938,-5.8522 0.967,-6.39572 2.12533,-0.81556 3.56564,1.42597 2.82146,4.39101 -0.81934,3.26452 1.31628,2.80437 3.11337,-0.67082 2.83105,-5.47465 8.83753,-4.64308 10.1153,1.40041 0.3522,1.6658 1.71608,4.4612 3.03086,6.212 2.89571,3.85604 2.94281,4.31672 0.44138,4.31672 -2.08585,0 -6.36633,-5.01215 -7.51968,-8.80505 -1.0296,-3.38589 -2.44859,-2.30544 -5.04186,3.839 -2.5267,5.98669 -4.98231,7.45129 -6.35251,3.78881 z m -13.2644,4.52168 c -0.95627,-1.15355 -1.30473,-4.05009 -1.14914,-9.5523 0.2461,-8.70287 0.63692,-9.97488 2.80873,-9.14148 1.10236,0.42302 1.46797,2.35477 1.46797,7.75633 0,4.02411 0.49905,7.69206 1.13278,8.32579 1.40943,1.40943 0.41896,4.26722 -1.47895,4.26722 -0.77492,0 -2.02654,-0.745 -2.78139,-1.65556 z m -49.09495,-3.90114 c 1.22238,-0.85619 2.22251,-2.12775 2.22251,-2.82569 0,-2.47323 -4.62415,-5.60436 -9.20372,-6.23206 -4.16623,-0.57104 -4.74634,-0.39141 -6.2762,1.94346 -0.92712,1.41496 -1.53193,3.37098 -1.34402,4.3467 0.76169,3.9551 10.31957,5.76672 14.60143,2.76759 z m -35.777496,6.26269 c -5.0062,-2.53218 -7.1207,-12.70517 -3.47756,-16.73079 1.97935,-2.18716 8.88893,-4.41506 11.08237,-3.57335 2.90312,1.11403 1.32562,3.37824 -3.13644,4.5018 -5.35063,1.3473 -7.1771,4.10206 -5.55265,8.37469 0.98205,2.58299 1.39269,2.7293 8.05952,2.87166 3.86362,0.0825 7.574796,0.195 8.247076,0.25 0.68449,0.056 1.53807,-1.74955 1.93991,-4.10346 0.96946,-5.67891 2.37566,-8.04396 6.1516,-10.34631 4.95983,-3.02423 9.02905,-2.5387 13.6406,1.62756 2.1781,1.96778 4.31001,4.55528 4.73759,5.75 0.6129,1.71256 0.88644,1.13061 1.2927,-2.75024 0.66327,-6.33609 2.5557,-6.98185 4.07996,-1.39223 l 1.17659,4.31468 2.12937,-2.88879 c 5.92846,-8.0428 6.65863,-8.17877 9.34852,-1.74094 l 1.51509,3.62611 1.63288,-2.30898 c 5.23612,-7.40414 5.48803,-7.57222 8.78973,-5.86485 3.08002,1.59274 9.44229,11.91164 8.14448,13.20945 -1.40615,1.40615 -4.69055,-0.75112 -5.28851,-3.47364 -0.3444,-1.56804 -1.45576,-3.60173 -2.46968,-4.51932 -2.06987,-1.87321 -2.37826,-1.65675 -6.34563,4.45404 -2.96899,4.57302 -5.17248,4.9229 -7.13256,1.13252 -0.8529,-1.64933 -1.94625,-3.24322 -2.42967,-3.54199 -0.48342,-0.29877 -2.51621,1.92269 -4.51732,4.93659 -4.02431,6.06104 -6.15147,6.83697 -7.68506,2.80331 l -1.0176,-2.67649 -2.79606,3.06129 c -3.48138,3.81162 -9.40078,5.03275 -15.76228,3.25164 -4.44409,-1.24427 -9.51644,-0.50131 -14.593396,2.13751 -2.44617,1.27144 -6.8229,1.09595 -9.76357,-0.39147 z M 218.04888,510.57725 c 1.45628,-1.75471 0.55458,-3.54956 -1.77267,-3.52849 -2.6862,0.0243 -4.5362,1.64269 -3.86808,3.38377 0.76709,1.99901 4.0323,2.08278 5.64075,0.14472 z m -10.26953,32.77029 c -1.22985,-1.98994 1.40488,-3.6182 8.43499,-5.21282 6.29014,-1.42678 7.56707,-2.08019 8.70889,-4.45634 1.17666,-2.44868 1.05129,-3.7105 -1.03969,-10.46468 l -2.37768,-7.68025 -3.99315,0.31474 c -2.90505,0.22898 -4.73355,-0.26766 -6.71031,-1.82258 -3.49886,-2.7522 -3.48696,-6.19105 0.0328,-9.48398 2.25083,-2.10577 3.56682,-2.52152 7.25,-2.29047 l 4.5,0.28229 0.61289,5.02109 c 0.33709,2.76159 1.56872,6.89464 2.73694,9.18455 1.20239,2.35687 2.40384,7.17402 2.76887,11.10156 0.80092,8.61764 -1.1099,12.72057 -6.59801,14.1673 -5.95587,1.57004 -13.73462,2.29738 -14.32657,1.33959 z"
         style="fill:#525252"
         id="path3246" />
    </g>
    <g
       id="g3497">
      <path
         inkscape:connector-curvature="0"
         id="path3228"
         d="m 387.09842,453.56816 c -0.51552,-1.35592 -0.88587,-7.6624 -0.82299,-14.0144 0.0629,-6.352 -0.083,-11.74643 -0.3242,-11.98762 -0.24119,-0.24119 -2.54577,0.31923 -5.12129,1.24538 -3.61718,1.30073 -4.95322,1.41344 -5.87135,0.49531 -1.73919,-1.73919 0.5347,-4.07169 4.73817,-4.86026 1.87581,-0.3519 3.65715,-1.03881 3.95853,-1.52646 0.8304,-1.34361 4.40748,-1.06052 4.59138,0.36336 0.0888,0.6875 0.2727,4.4 0.40868,8.25 0.13599,3.85 0.4816,10.9375 0.76801,15.75 0.51934,8.72629 -0.42555,11.28047 -2.32494,6.28469 z"
         style="fill:#525252" />
      <path
         inkscape:connector-curvature="0"
         id="path3226"
         d="m 610.7519,455.3668 c -1.72361,-1.7236 -0.21993,-3.55612 4.70531,-5.7343 2.95459,-1.30666 5.70174,-2.90929 6.10477,-3.56141 0.90344,-1.46179 -3.2108,-6.03762 -5.42856,-6.03762 -2.21426,0 -6.04819,-2.82587 -6.04819,-4.45793 0,-0.73948 1.61056,-2.29477 3.57903,-3.4562 5.2297,-3.0856 4.15505,-4.53598 -4.82903,-6.51745 -1.61604,-0.35643 -2.75,-1.27324 -2.75,-2.2234 0,-1.35046 0.77194,-1.51106 4.68504,-0.97471 8.48997,1.16368 12.31363,5.93038 8.9163,11.11537 -1.57094,2.39756 -1.51241,2.56891 1.96671,5.75728 2.65086,2.42933 3.63096,4.18309 3.7589,6.72604 0.16518,3.28338 -0.12263,3.58811 -6.32695,6.69873 -7.09952,3.55945 -7.35709,3.64184 -8.33333,2.6656 z"
         style="fill:#525252" />
      <path
         inkscape:connector-curvature="0"
         d="m 170.74022,422.20471 c -2.30431,-2.54623 -2.11281,-5.17126 0.37723,-5.17126 2.11715,0 4.0844,3.50274 3.22939,5.75 -0.65722,1.72738 -1.66612,1.56549 -3.60662,-0.57874 z m 3.47461,29.07093 c -3.2119,-6.0015 -4.26787,-17.96022 -1.30101,-14.73381 0.79771,0.8675 5.17141,14.31221 5.17141,15.89688 0,1.36115 -3.00232,0.45894 -3.8704,-1.16307 z m 52.99011,-12.88642 c 1.22165,-1.47199 1.10352,-1.56408 -1.12755,-0.87903 -4.54331,1.395 -5.7663,2.45929 -2.8646,2.49287 1.44515,0.0167 3.24162,-0.7095 3.99215,-1.61384 z m -5.012,14.46758 c -5.14551,-2.5458 -7.07064,-4.82006 -7.77992,-9.19084 -0.71824,-4.42595 0.45239,-5.99932 6.43144,-8.64413 5.77681,-2.55536 9.85641,-2.57506 11.20559,-0.0541 1.52387,2.84739 1.29954,3.89229 -1.41937,6.61119 -1.88606,1.88607 -3.50729,2.45455 -7,2.45455 -9.17828,0 -3.27663,4.71876 7.61155,6.08592 11.49007,1.44275 12.28957,4.3252 1.25864,4.53778 -4.52062,0.0871 -7.56915,-0.44533 -10.30793,-1.80037 z m -27.7748,1.07937 c -1.74189,-0.5043 -4.32939,-2.29824 -5.75,-3.98653 -4.66006,-5.53817 -2.60919,-13.00579 4.36524,-15.89469 3.68525,-1.52648 6.05185,-0.76505 6.05185,1.94714 0,1.57994 -0.65157,2.03138 -2.93191,2.03138 -3.84141,0 -7.7057,4.94009 -6.14518,7.85596 1.32529,2.47633 3.20055,3.141 8.90888,3.15769 5.4593,0.016 9.16821,0.86128 9.16821,2.08956 0,1.07611 -6.65085,3.92967 -8.87212,3.8066 -0.89534,-0.0496 -3.05307,-0.5028 -4.79497,-1.00711 z m -34.89801,-2.87795 c 3.60793,-1.37173 3.48107,-5.96805 -0.28094,-10.17847 l -2.84604,-3.18527 -4.31074,2.91949 c -5.46477,3.70108 -6.86299,5.82225 -5.38512,8.1695 1.69879,2.69815 8.52443,3.909 12.82284,2.27475 z m -10.9349,3.16653 c -5.50061,-2.57748 -6.85895,-4.46437 -6.10541,-8.48108 0.75048,-4.00039 9.48561,-12.7102 12.74716,-12.7102 2.60693,0 9.20259,6.65218 10.56362,10.65414 1.23986,3.64566 -0.0474,8.47706 -2.69589,10.11799 -3.67256,2.27545 -10.1487,2.46253 -14.50948,0.41915 z m -13.36225,0.0587 c -0.51294,-0.9625 -1.45164,-3.68302 -2.08601,-6.04561 -1.11375,-4.14796 -5.43485,-8.1904 -8.76596,-8.20065 -0.66783,-0.002 -2.03293,2.77629 -3.03357,6.17412 -1.9779,6.71625 -3.71815,8.29836 -5.11558,4.65069 -0.8394,-2.19108 -6.16304,-33.88046 -6.14499,-36.57855 0.0164,-2.45315 2.98093,-1.19895 3.5455,1.5 0.31639,1.5125 1.22496,5.54248 2.01905,8.95552 0.7941,3.41303 1.44381,7.31372 1.44381,8.66821 0,1.35448 0.28251,3.19891 0.62781,4.09873 0.55285,1.44071 0.90909,1.37178 2.98386,-0.57736 2.32504,-2.18427 2.4082,-2.18989 6.3173,-0.42713 5.42721,2.44733 7.6535,5.0874 10.57376,12.539 1.3735,3.50474 2.49727,6.51193 2.49727,6.68264 0,1.18402 -4.11305,-0.0338 -4.86225,-1.43961 z m -42.380096,3.47843 c -7.99481,-2.62432 -10.08783,-6.93293 -6.88506,-14.17334 1.55151,-3.50744 2.92381,-4.98991 5.68837,-6.14501 3.93037,-1.64222 7.56683,-1.56583 8.13771,0.17095 0.19543,0.59456 -1.48381,1.68799 -3.73165,2.42985 -6.98739,2.30605 -10.29585,9.46511 -5.71703,12.3709 3.20767,2.03564 11.726876,2.9577 15.183776,1.64339 2.00972,-0.76409 3.21047,-0.78093 3.93621,-0.0552 3.2375,3.2375 -9.45275,6.1086 -16.612326,3.75845 z"
         style="fill:#525252"
         id="path3224" />
    </g>
    <path
       id="path3140"
       style="fill:#525252"
       d="m -358.19542,670.70365 c -2.23287,-1.80807 -2.02625,-4.19526 0.35735,-4.12868 1.62346,0.0453 5.69098,3.53111 5.69098,4.87702 0,1.71362 -3.55043,1.27434 -6.04833,-0.74834 z m -81.70167,6.12972 c -1.45723,-0.53432 -1.71362,-5.29167 -0.28518,-5.29167 1.41459,0 3.36376,4.08418 2.37782,4.98236 -0.46345,0.4222 -1.40514,0.56139 -2.09264,0.30931 z m 212.23027,16.51751 c -1.17877,-3.07183 -3.15011,-14.4143 -2.71151,-15.60118 0.2626,-0.7106 1.20956,-1.18317 2.10435,-1.05015 0.89479,0.13301 4.0298,-0.57267 6.96669,-1.5682 3.78595,-1.28333 5.65054,-1.49931 6.40762,-0.74223 1.51078,1.51078 -0.66135,3.86495 -4.30433,4.66508 -4.61516,1.01366 -7.22778,5.10335 -6.47349,10.13333 0.6021,4.01512 -0.86665,7.089 -1.98933,4.16335 z m 18.76973,0.97033 c -3.49085,-1.68358 -2.68539,-2.64199 2.5,-2.97472 2.6125,-0.16763 4.75,-0.75479 4.75,-1.30479 0,-0.55 -1.91446,-1.88923 -4.25436,-2.97606 -5.10398,-2.37069 -6.1541,-4.83019 -3.55098,-8.31678 2.6036,-3.48724 4.69436,-4.65559 6.85054,-3.82819 1.6169,0.62046 1.46003,1.02335 -1.42407,3.65757 -3.15113,2.87812 -3.41722,4.96346 -0.63332,4.96346 0.75338,0 2.98318,1.52163 4.95511,3.3814 3.56187,3.35927 3.93241,5.93438 1.13002,7.85329 -1.56673,1.0728 -7.71701,0.80161 -10.32294,-0.45518 z m 20.13,0.76838 c -0.82613,-2.15288 0.42384,-3.54789 3.17902,-3.54789 1.93705,0 2.44098,0.51612 2.44098,2.5 0,2.00827 -0.49791,2.5 -2.53138,2.5 -1.39227,0 -2.78214,-0.65345 -3.08862,-1.45211 z m -70.31426,-3.58307 c 1.34612,-0.72043 1.93426,-2.09825 1.93426,-4.53139 0,-5.774 -4.69259,-5.91712 -7.91717,-0.24147 -2.6373,4.64199 0.92197,7.48139 5.98291,4.77286 z m -7.32958,3.78518 c -0.90536,-0.6875 -2.06985,-2.39444 -2.58776,-3.79321 -2.00804,-5.42329 4.43769,-12.94399 11.1016,-12.95305 2.24996,-0.003 2.75,0.44011 2.75,2.43724 0,3.50665 1.82942,4.13788 3.00803,1.03791 1.11778,-2.93999 3.65618,-2.83796 3.20273,0.12874 -1.13773,7.44369 0.76597,11.117 5.18642,10.00753 3.01346,-0.75633 5.60282,-5.21094 5.60282,-9.63882 0,-2.43407 0.38605,-3.04976 1.75,-2.79104 1.25528,0.23811 1.8336,1.46276 2.04571,4.33207 0.23973,3.24288 -0.32136,4.803 -2.964,8.24137 -2.72989,3.55191 -3.82554,4.24126 -6.74099,4.24126 -2.40821,0 -4.33859,-0.82135 -6.26257,-2.66464 l -2.78129,-2.66465 -2.09601,2.66465 c -1.60211,2.03674 -2.97643,2.66464 -5.8323,2.66464 -2.05496,0 -4.47704,-0.5625 -5.38239,-1.25 z m -66.23616,4.37186 c -4.4652,-0.95481 -3.85459,-3.51459 0.98322,-4.12186 l 3.98322,-0.5 -4.73322,-3.87046 c -2.60327,-2.12876 -4.73322,-4.62626 -4.73322,-5.55 0,-2.35287 1.98928,-4.07954 4.7,-4.07954 2.63835,0 3.1291,2.46787 0.67781,3.40851 -1.29347,0.49636 -0.68555,1.49473 3,4.92688 3.18348,2.9646 4.62219,5.1053 4.62219,6.87751 0,3.58285 -2.0568,4.28675 -8.5,2.90896 z m -18.91716,-1.37186 c -2.06553,-3.17607 -3.31712,-13.16143 -1.57697,-12.58138 1.12842,0.37614 2.55451,4.22621 4.66023,12.58138 0.32948,1.30733 0.10891,2.25 -0.52647,2.25 -0.60144,0 -1.752,-1.0125 -2.55679,-2.25 z m -281.12397,5.18347 c -0.92035,-1.48915 0.14672,-2.29879 2.06137,-1.56407 0.88358,0.33906 1.32643,1.06965 0.98411,1.62354 -0.81057,1.31154 -2.2151,1.28411 -3.04548,-0.0595 z m 231.97603,-12.90872 c 3.92391,-1.49187 3.12014,-3.0079 -0.9349,-1.76337 -1.925,0.5908 -3.5,1.44868 -3.5,1.9064 0,1.0929 1.29392,1.05117 4.4349,-0.14303 z m -6.04894,13.06305 c -2.75568,-1.25141 -4.32262,-2.69929 -4.74574,-4.38514 -0.34743,-1.38427 -0.88793,-3.18461 -1.20111,-4.00075 -0.81182,-2.11556 4.70269,-8.01117 9.52898,-10.18752 3.5759,-1.6125 4.38079,-1.66563 6.67035,-0.4403 1.43207,0.76642 2.81628,1.94731 3.07603,2.62421 0.66379,1.72981 -3.50417,7.28642 -5.53256,7.37586 -0.92505,0.0408 -3.42119,0.84272 -5.54698,1.78206 -3.46509,1.53115 -3.69499,1.84904 -2.22158,3.07187 0.90392,0.75018 5.6807,1.82734 10.61507,2.39368 9.36508,1.07487 11.12999,1.99655 5.84658,3.05323 -5.65436,1.13087 -12.30811,0.61145 -16.48904,-1.2872 z m -30.71813,-1.8378 c -1.93579,-6.15911 -2.66316,-12.63952 -1.60996,-14.34364 1.31024,-2.12001 2.34859,-0.24407 3.55664,6.42564 0.61444,3.3924 1.45879,7.6305 1.87633,9.418 0.60537,2.59162 0.44625,3.25 -0.78547,3.25 -0.96653,0 -2.10339,-1.77778 -3.03754,-4.75 z m 15.67,5.60143 c -5.42425,-1.21772 -7.76827,-4.60561 -7.02428,-10.15246 0.29699,-2.2142 1.409,-5.18978 2.47113,-6.61239 2.25011,-3.01378 6.50801,-3.52084 7.02495,-0.83658 0.22657,1.17647 -0.29277,1.75 -1.58462,1.75 -1.32986,0 -2.43178,1.29872 -3.57824,4.21731 -1.5822,4.02789 -1.5703,4.3036 0.26487,6.13877 1.19828,1.19828 3.84259,2.10606 7.02577,2.41193 5.32407,0.51157 7.29342,1.83829 4.94071,3.32848 -1.66378,1.05382 -4.02466,0.99317 -9.54029,-0.24506 z m -27.88488,-5.01195 c 1.40088,-0.63828 2.54705,-1.84034 2.54705,-2.67125 0,-1.94635 -2.91109,-5.16823 -4.66969,-5.16823 -1.44239,0 -5.32027,5.6422 -5.32657,7.75 -0.005,1.57038 4.09102,1.61958 7.44921,0.0895 z m -5.90827,5.02834 c -5.53572,-0.84987 -7.80079,-2.98364 -9.70839,-9.14561 -1.50056,-4.84712 -2.92838,-4.3089 -4.45609,1.67971 -0.66889,2.62206 -1.51487,5.06608 -1.87995,5.43116 -1.21177,1.21178 -3.40996,-3.03698 -3.99312,-7.71811 -0.3162,-2.53823 -1.54282,-9.21932 -2.72581,-14.84686 -2.01748,-9.59729 -1.96758,-12.88507 0.16243,-10.70144 1.07512,1.10218 5.05625,16.3377 5.05625,19.34994 0,1.14587 0.45,2.08339 1,2.08339 0.55,0 1,-0.41786 1,-0.92857 0,-0.51072 0.70625,-1.63482 1.56945,-2.49802 2.28154,-2.28154 4.833,-0.51121 6.29473,4.3676 0.66886,2.23245 1.58824,4.05899 2.04308,4.05899 0.45483,0 1.9564,-1.70669 3.33682,-3.79265 3.09862,-4.68233 9.90842,-8.1556 12.22334,-6.23439 0.83236,0.6908 1.49011,2.66698 1.46167,4.39152 -0.0284,1.72453 0.20824,4.48552 0.52596,6.13552 0.436,2.26423 0.0118,3.62855 -1.72972,5.56282 -3.03182,3.36745 -4.27894,3.71106 -10.18065,2.805 z m -36.65807,0.5516 c -3.53448,-1.49106 -5.88661,-4.78513 -5.88661,-8.24397 0,-2.7847 2.83081,-6.04849 7.16303,-8.25862 4.53104,-2.31156 6.83697,-1.95682 6.83697,1.05179 0,1.57923 -0.65159,2.03138 -2.92742,2.03138 -2.91954,0 -7.07258,3.80176 -7.07258,6.47434 0,2.05645 4.81187,3.52566 11.54705,3.52566 6.54985,0 8.43519,1.30065 4.20295,2.89951 -4.86471,1.83779 -10.25982,2.04012 -13.86339,0.51991 z m -88.51751,2.36878 c -0.41192,-0.66649 -1.09352,-6.34652 -1.51466,-12.6223 -0.42114,-6.27577 -1.01015,-11.65493 -1.3089,-11.95368 -0.29875,-0.29875 -3.58122,-0.083 -7.29437,0.47953 -7.65763,1.16003 -9.25118,0.8618 -9.25118,-1.73135 0,-2.26391 1.06479,-2.57947 13.5,-4.00087 11.23994,-1.28477 17.65769,-0.0953 18.33023,3.39722 0.32415,1.68333 -0.11782,1.79137 -4.73195,1.15677 -4.03604,-0.5551 -5.20732,-0.39293 -5.65876,0.78351 -0.3131,0.81593 -0.1225,6.30557 0.42356,12.19921 0.54606,5.89363 0.75211,11.34301 0.45789,12.10973 -0.65855,1.71616 -1.95439,1.79616 -2.95186,0.18223 z m 37.63888,0.45935 c -1.92061,-0.96115 -5.24634,-4.11005 -7.39052,-6.99755 -2.26736,-3.05339 -4.67651,-5.25 -5.75798,-5.25 -1.62192,0 -1.85948,0.8304 -1.85948,6.5 0,4.96606 -0.33706,6.5 -1.42828,6.5 -1.47565,0 -1.89697,-1.65636 -5.05981,-19.89149 -1.02353,-5.9011 -1.27748,-9.74294 -0.68329,-10.33713 1.29346,-1.29346 1.92338,-0.0587 3.51342,6.88695 l 1.3373,5.84167 3.60507,-0.3219 c 3.35574,-0.29963 3.83366,0.0276 6.91033,4.73203 1.81789,2.77967 3.63419,5.06202 4.03621,5.0719 0.40202,0.01 1.02496,-1.21953 1.38431,-2.73203 0.75437,-3.17515 3.15754,-6.25 4.88474,-6.25 2.61773,0 4.78443,3.85984 4.19738,7.47738 -0.66658,4.10768 -1.21401,3.90635 10.80262,3.97283 7.3112,0.0404 9,0.33126 9,1.54979 0,0.94334 -1.11333,1.59463 -3,1.75499 -1.65,0.14025 -5.475,0.68571 -8.5,1.21213 -11.70938,2.03772 -12.45443,2.05078 -15.99202,0.28043 z m 262.41109,2.50245 c -0.39363,-1.2375 -0.63927,-4.42762 -0.54586,-7.08915 0.14426,-4.1104 -0.21587,-5.14255 -2.3914,-6.85381 -2.86952,-2.25717 -9.48181,-14.65778 -9.48181,-17.78208 0,-4.64621 3.58082,-0.96912 6.11085,6.27515 1.48887,4.26313 6.33661,10.54972 7.36158,9.54658 0.36714,-0.35932 1.54917,-4.18139 2.62675,-8.49349 2.09171,-8.37035 4.30995,-12.05655 5.45679,-9.06793 0.34621,0.9022 -0.0831,3.79459 -0.95408,6.42754 -0.87095,2.63296 -1.85165,7.03719 -2.17934,9.78719 -0.32768,2.75 -1.24452,6.72839 -2.03743,8.84088 -0.87232,2.32406 -1.18908,5.18718 -0.80209,7.25 0.50331,2.68291 0.31067,3.40912 -0.90435,3.40912 -0.84915,0 -1.86597,-1.0125 -2.25961,-2.25 z m -349.91908,2.25 c -1.07686,-1.74239 0.51928,-3.22888 2.07801,-1.93525 0.76998,0.63902 1.15336,1.56088 0.85196,2.04856 -0.72948,1.18032 -2.16477,1.12481 -2.92997,-0.11331 z m -27.3878,8.73526 c -3.87378,-2.00399 -2.9711,-3.19727 2.88781,-3.81746 7.52857,-0.79694 9,-1.60392 9,-4.9359 0,-2.9478 -3.5514,-6.66432 -9.11988,-9.54389 -3.7715,-1.95032 -3.92551,-6.16839 -0.33908,-9.28675 3.38738,-2.94529 2.35868,-4.15126 -3.54104,-4.15126 -4.97233,0 -7.36699,-1.52007 -4.87812,-3.09649 2.01792,-1.27813 7.9977,-1.0658 10.87812,0.38626 3.25518,1.64099 3.70306,5.26801 1.08739,8.80589 -1.14807,1.55285 -2.08739,2.99029 -2.08739,3.19433 0,0.20403 2.02961,1.82853 4.51026,3.61 7.131,5.1211 9.56038,11.91613 5.55593,15.5401 -1.82047,1.64751 -8.369,4.43722 -10.56619,4.50128 -0.55,0.016 -2.07452,-0.52672 -3.38781,-1.20611 z"
       inkscape:connector-curvature="0" />
    <path
       id="path3102"
       style="fill:#525252"
       d="m -489.58986,601.48148 c 0,-1.81524 1.77905,-3.17654 4.15134,-3.17654 0.54327,0 0.84396,1.0125 0.66821,2.25 -0.42408,2.98601 -4.81955,3.83102 -4.81955,0.92654 z m 240.05305,22.38738 c -1.76552,-2.12732 0.38525,-5.56392 3.48213,-5.56392 2.52541,0 3.19152,1.94267 1.85783,5.41821 -0.75733,1.97358 -3.75507,2.05538 -5.33996,0.14571 z m -46.85771,-2.55524 c -2.88642,-6.61046 -2.78059,-8.56653 0.55466,-10.25147 1.5125,-0.76411 3.76406,-2.03128 5.00346,-2.81595 1.65921,-1.05045 2.69833,-1.14605 3.94048,-0.36252 2.75623,1.73858 2.71317,3.42126 -0.0876,3.42126 -3.64878,0 -5.68218,3.5929 -5.36513,9.47984 0.34792,6.46013 -1.35865,6.6832 -4.04592,0.52884 z m -20.80032,3.47725 c -1.95884,-1.95884 -2.44571,-3.33916 -2.20455,-6.25 0.24575,-2.96609 0.72166,-3.73593 2.30953,-3.73593 1.61905,0 2,0.66667 2,3.5 0,3.17864 0.28327,3.52764 3.08517,3.80107 4.16013,0.40596 6.13587,-1.92314 4.56185,-5.37774 -1.80187,-3.95468 -1.45445,-5.60609 1.10298,-5.24288 1.64693,0.2339 2.48931,1.28789 3.14285,3.93234 1.24674,5.04478 0.10198,8.57996 -3.35768,10.36902 -4.25812,2.20196 -7.77111,1.87316 -10.64015,-0.99588 z m -104.2215,0.76407 c -0.49327,-0.9625 -1.20654,-3.04274 -1.58505,-4.62275 -0.63275,-2.64131 -0.97079,-2.82689 -4.196,-2.30351 -7.26003,1.17814 -8.88958,-2.3142 -2.14247,-4.59162 3.55646,-1.20044 4.21131,-1.82599 4.01291,-3.83333 -0.13041,-1.31933 -0.52481,-4.92456 -0.87645,-8.01162 -0.44192,-3.87953 -0.27096,-5.84052 0.55362,-6.35014 1.80076,-1.11293 2.15126,-0.30093 3.08704,7.15167 1.1572,9.21594 1.61999,10.14527 5.23098,10.50429 4.2013,0.41771 4.72896,2.6596 0.81044,3.4433 -3.07804,0.61561 -3.09807,0.66038 -2.45711,5.49219 0.66459,5.00991 -0.62435,6.66027 -2.43791,3.12152 z m -216.58514,1.89303 c -0.90729,-1.46804 0.44094,-4.14303 2.08815,-4.14303 0.93253,0 1.34675,0.78701 1.14301,2.17167 -0.34608,2.35195 -2.27036,3.52597 -3.23116,1.97136 z m 148.46179,1.95072 c -1.2644,-2.36257 -1.37778,-17.02817 -0.14666,-18.97187 2.01577,-3.18252 3.09649,0.26507 3.09649,9.87812 0,9.85461 -0.95953,12.81266 -2.94983,9.09375 z m 106.44275,-11.0823 c 0.35034,-0.56686 -0.0511,-0.7345 -0.94098,-0.39301 -1.73242,0.66479 -2.04939,1.38156 -0.61096,1.38156 0.51754,0 1.21592,-0.44485 1.55194,-0.98855 z m -1.24292,12.98992 c -1.2375,-0.51531 -2.25,-1.38576 -2.25,-1.93435 0,-0.54858 -1.29605,-2.47559 -2.88011,-4.28222 -1.58406,-1.80664 -3.88361,-5.4223 -5.11012,-8.0348 -1.22652,-2.6125 -2.84509,-4.75 -3.59684,-4.75 -1.72679,0 -4.60794,4.30513 -5.92248,8.84961 -2.19106,7.57465 -4.01006,4.60655 -6.34275,-10.34961 -2.03372,-13.03932 -2.18363,-15.35976 -1.03806,-16.06776 1.61104,-0.99568 2.85741,1.50504 2.87505,5.76854 0.0168,4.06217 1.89569,13.79922 2.66273,13.79922 0.26494,0 1.61765,-1.35 3.00603,-3 3.59955,-4.27782 6.67691,-3.96901 9.96525,1 1.45589,2.2 2.89577,4 3.19974,4 0.30396,0 1.5905,-0.975 2.85897,-2.16667 1.34023,-1.25908 3.60322,-2.16666 5.40243,-2.16666 5.7159,0 6.10134,4.78425 0.76326,9.47405 -3.86204,3.39302 -2.7249,4.0815 6.74119,4.0815 4.07864,0 7.41571,0.42531 7.41571,0.94512 0,1.23973 -7.55033,4.52587 -12,5.22278 -1.925,0.3015 -4.5125,0.12656 -5.75,-0.38875 z m -86.87677,-0.55102 c -1.82757,-1.415 -1.82592,-1.48691 0.0679,-2.95035 1.06762,-0.825 3.43012,-1.5 5.25,-1.5 4.60077,0 4.24908,-2.27227 -0.69688,-4.50259 -4.43668,-2.00067 -5.43194,-2.96079 -6.42301,-6.19626 -0.80529,-2.62896 2.35849,-6.30115 5.42876,-6.30115 2.82948,0 2.62551,3.59045 -0.25,4.40085 l -2.25,0.63412 2.14049,1.73252 c 1.17726,0.95288 3.54758,2.50356 5.26736,3.44596 3.62574,1.98683 4.55337,3.81278 3.68819,7.25992 -1.02458,4.08226 -8.81357,6.61659 -12.22281,3.97698 z m -91.7575,0.41141 c -2.43461,-3.47588 -2.10393,-10.05581 0.63427,-12.62083 3.79069,-3.55096 7.35967,-4.43086 11.29783,-2.78539 5.5506,2.31919 4.48207,4.2974 -2.24727,4.16045 -5.03651,-0.1025 -5.83813,0.15731 -6.89188,2.23364 -0.84295,1.66096 -0.90756,3.3814 -0.22046,5.86989 1.25008,4.5274 -0.28712,6.40506 -2.57249,3.14224 z m 21.07366,2.04993 c -1.0023,-0.59725 -1.71824,-2.04604 -1.6037,-3.2453 0.1138,-1.19151 -0.24177,-3.27461 -0.79015,-4.62909 -1.46522,-3.61906 -0.48308,-5.88482 3.7713,-8.70023 4.10685,-2.71779 7.22317,-2.78524 7.72734,-0.16727 0.2178,1.13092 -0.61847,1.85233 -2.66941,2.3028 -1.64262,0.36078 -3.57706,1.36745 -4.29876,2.23705 -1.10501,1.33145 -1.01987,1.7555 0.53923,2.68572 5.1806,3.09094 6.73814,4.89775 6.43999,7.47065 -0.25822,2.22831 -0.84428,2.67176 -3.80523,2.87928 -1.925,0.13491 -4.31477,-0.24021 -5.31061,-0.83361 z m 209.85685,0.92147 c -0.25014,-0.73324 -0.92606,-4.00703 -1.50205,-7.27509 -0.57599,-3.26806 -1.60906,-6.31834 -2.29572,-6.7784 -0.68666,-0.46006 -3.93656,-0.71119 -7.22201,-0.55807 -4.85085,0.22608 -6.03461,-0.0262 -6.29843,-1.34231 -0.38754,-1.9333 2.41062,-2.84635 8.78222,-2.86564 l 4.51024,-0.0137 -0.0102,-11.44709 c -0.0112,-12.5563 0.51011,-13.88624 5.44351,-13.88624 3.70506,0 7.04624,2.83954 7.04624,5.98832 0,2.84035 -1.62571,3.09965 -2.48376,0.39616 -0.79114,-2.49265 -4.4657,-3.739 -5.62577,-1.90816 -0.9988,1.57631 -1.15117,12.64662 -0.24918,18.10355 0.5492,3.32261 1.05713,3.86444 4.48899,4.78854 5.05132,1.36018 5.25395,3.96492 0.30845,3.96492 l -3.56128,0 0.73565,4.75 c 0.4046,2.6125 0.76968,5.60446 0.81127,6.64879 0.0888,2.2295 -2.21515,3.37772 -2.87813,1.43437 z m -330.18463,0.66684 c -0.87345,-2.27619 0.34823,-4.5 2.47213,-4.5 1.04309,0 3.08221,-0.93266 4.53139,-2.07258 2.12807,-1.67394 2.63486,-2.9128 2.63486,-6.44098 0,-4.27673 -1.24176,-6.52232 -2.48992,-4.50275 -1.04462,1.69023 -3.51008,1.13977 -3.51008,-0.78369 0,-2.24705 1.88088,-4.2 4.04501,-4.2 4.33276,0 7.09693,8.00984 4.9789,14.42754 -1.12675,3.4141 -1.03925,3.77255 1.38672,5.68083 1.42415,1.12023 2.58937,2.45413 2.58937,2.96421 0,1.329 -4.38109,1.14634 -5.76791,-0.24048 -0.89054,-0.89054 -2.09367,-0.89054 -5.06602,0 -4.94414,1.4813 -5.11227,1.47168 -5.80445,-0.3321 z m 81.93247,1.65748 c -2.84529,-1.82592 -2.59226,-13.15748 0.29381,-13.15748 1.00693,0 1.4121,1.29116 1.4121,4.5 0,5.27126 0.88626,5.65541 3.36531,1.45872 1.33105,-2.25327 1.62325,-4.06702 1.12772,-7 -0.85708,-5.07299 1.03589,-5.33043 3.08764,-0.41992 1.34638,3.22235 1.31164,3.91538 -0.38851,7.75 -2.4198,5.45774 -6.35869,8.49829 -8.89807,6.86868 z m 309.37259,2.17585 c -1.20175,-1.20174 -0.68612,-7.77241 0.83949,-10.69764 2.01141,-3.85671 1.91848,-4.31882 -1.17276,-5.83112 -4.70345,-2.30105 -11.88199,-14.80457 -8.49962,-14.80457 0.45858,0 2.5531,2.49637 4.65449,5.5475 3.64464,5.29185 6.09603,7.4525 8.45533,7.4525 0.59129,0 2.51746,-2.925 4.28037,-6.5 3.14707,-6.38193 5.77603,-8.43606 5.77603,-4.51308 0,1.0928 -2.475,6.86999 -5.5,12.8382 -3.21899,6.35094 -5.5,12.16258 -5.5,14.01308 0,2.97366 -1.63268,4.19579 -3.33333,2.49513 z m -328.39337,-3.95731 c 2.98679,-0.40939 5.61416,-1.59371 7.63957,-3.44363 2.5942,-2.36944 3.08712,-3.55478 3.08712,-7.42377 0,-3.63646 -0.52971,-5.09503 -2.52035,-6.93989 -2.94995,-2.73392 -10.48677,-4.96161 -11.92397,-3.52441 -0.52563,0.52562 -1.70837,0.95568 -2.62832,0.95568 -0.91996,0 -3.52996,2.01495 -5.8,4.47766 -3.35313,3.6377 -4.12736,5.20312 -4.12736,8.34501 0,2.41793 0.65587,4.45626 1.75,5.43868 1.51654,1.36171 3.01858,1.80057 8.86042,2.58882 0.61074,0.0824 3.15904,-0.13096 5.66289,-0.47415 z m -13.86937,2.77248 c -4.89965,-2.28815 -7.6701,-7.73368 -6.32343,-12.42922 2.28209,-7.95721 12.33976,-17.73498 18.20695,-17.70028 4.14418,0.0245 12.18901,5.07424 14.73425,9.24868 3.9688,6.50922 1.75485,14.8799 -5.32245,20.1235 -4.02549,2.98251 -15.64562,3.39575 -21.29532,0.75732 z m -23.24808,4.16553 c -1.14139,-2.03955 0.54131,-6.31403 2.4856,-6.31403 1.52732,0 2.84571,4.28807 1.99777,6.49776 -0.77194,2.01164 -3.31306,1.90751 -4.48337,-0.18373 z"
       inkscape:connector-curvature="0" />
    <path
       id="path3056"
       style="fill:#525252"
       d="m -289.59039,529.86856 c -1.88692,-2.69396 -2.03225,-5.7775 -0.27231,-5.7775 1.32559,0 4.71561,4.96345 4.71561,6.90429 0,1.90293 -2.82255,1.18715 -4.4433,-1.12679 z m -131.8067,4.1424 c -2.18158,-1.27065 -2.31825,-4.9199 -0.18426,-4.9199 2.73682,0 5.43426,2.00297 5.43426,4.03519 0,2.16154 -2.37164,2.56121 -5.25,0.88471 z m -219.52082,9.90929 c -1.7474,-1.74741 -1.52176,-3.60224 0.5747,-4.72423 2.47666,-1.32547 4.44029,0.13397 4.03361,2.99792 -0.38091,2.68244 -2.76069,3.57393 -4.60831,1.72631 z m 407.8751,9.24891 c -2.12312,-1.33292 -0.51044,-4.0781 2.39572,-4.0781 2.18114,0 4.53452,2.38502 3.37354,3.4189 -1.15006,1.02416 -4.56621,1.41449 -5.76926,0.6592 z m -54.47242,0.13526 c -1.19459,-1.93289 -2.65903,-10.5524 -2.09484,-12.32998 1.15199,-3.62961 3.2519,-2.04529 3.79953,2.86662 0.29126,2.6125 0.67219,5.82946 0.84651,7.14879 0.31471,2.38191 -1.49491,4.02368 -2.5512,2.31457 z m -36.15419,-0.24948 c -0.38808,-0.62794 -1.31588,-3.45513 -2.06176,-6.28266 -1.60953,-6.10142 -0.3751,-8.59344 2.42275,-4.89097 l 1.73067,2.29026 2.26638,-2.60657 c 2.69617,-3.10086 3.95957,-2.85948 6.77505,1.29442 l 2.11076,3.11417 3.37311,-3.48017 c 4.49116,-4.63369 6.71195,-4.17392 10.13201,2.09764 1.49965,2.75 2.73715,5.5625 2.75,6.25 0.05,2.67784 -3.02956,1.05277 -5.19678,-2.7423 -1.25392,-2.19576 -2.80566,-3.99576 -3.4483,-4 -0.64264,-0.004 -2.11425,1.52265 -3.27024,3.39308 -3.05503,4.94315 -4.77325,5.20179 -7.20269,1.08418 -2.70937,-4.59203 -4.38749,-4.39837 -6.0878,0.70254 -1.44343,4.3303 -3.06776,5.75911 -4.29316,3.77638 z m 59.67321,0.71792 c -0.60171,-0.72502 -1.5941,-3.65002 -2.20531,-6.5 -0.61121,-2.84999 -1.50818,-5.1818 -1.99325,-5.1818 -1.19015,0 -2.95232,3.42795 -2.95232,5.74313 0,1.03104 -0.675,2.74812 -1.5,3.81574 -1.48263,1.91866 -1.51786,1.91799 -3.04247,-0.0581 -1.06454,-1.37976 -1.45185,-3.70362 -1.25,-7.5 0.27123,-5.10131 0.47403,-5.50577 2.79247,-5.56937 1.375,-0.0377 3.34867,-0.44683 4.38592,-0.90914 2.97217,-1.32472 4.94154,0.68059 6.86135,6.98654 0.9717,3.19171 2.25232,6.38822 2.84582,7.10334 1.24664,1.50212 0.39521,3.38784 -1.52966,3.38784 -0.7252,0 -1.81085,-0.59319 -2.41255,-1.3182 z m -70.45664,-3.11223 c 3.10115,-2.68632 2.6803,-3.6727 -2.27002,-5.32034 -3.80164,-1.26531 -6.42422,4e-4 -6.42422,3.10046 0,4.95025 4.28051,6.04318 8.69424,2.21988 z m -7.67453,5.15894 c -4.65796,-2.38114 -6.01282,-8.62204 -2.73041,-12.57709 3.38364,-4.07704 12.76042,-2.88974 15.25355,1.93144 2.04149,3.94781 1.8457,5.17819 -1.29285,8.12464 -3.39396,3.18624 -7.93492,4.2056 -11.23029,2.52101 z m -15.78672,0.79604 c -3.36629,-1.48614 -5.3729,-4.88764 -4.43886,-7.52455 1.17251,-3.31017 4.44853,-7 6.21495,-7 3.15107,0 3.15038,1.6867 -0.002,4.83906 -4.49567,4.49567 -3.86592,6.01109 2.95894,7.12044 2.19845,0.35735 3.53397,1.13488 3.53397,2.05746 0,2.01918 -4.25176,2.28024 -8.26701,0.50759 z m -281.73853,0.4665 c -0.34296,-0.55492 -0.33919,-1.90492 0.008,-3 0.75869,-2.39039 5.27178,-2.74195 6.14041,-0.47831 1.18035,3.07592 -4.43444,6.25216 -6.14878,3.47831 z m -15.81948,-1.24105 c -0.29801,-1.2375 -0.14156,-5.625 0.34768,-9.75 0.48923,-4.125 0.90927,-9.42164 0.93342,-11.77032 l 0.0439,-4.27033 -3.96016,2.02033 c -8.42597,4.29861 -9.83937,0.40256 -1.52969,-4.21661 7.19045,-3.99702 7.5311,-4.12182 8.52833,-3.12459 1.39966,1.39966 1.49442,3.93321 0.63067,16.86152 -0.93303,13.9652 -1.41989,16.5 -3.16915,16.5 -0.70575,0 -1.52701,-1.0125 -1.82502,-2.25 z m 252.32502,6.77568 c 0,-0.81087 1.3787,-2.18727 3.06378,-3.05866 3.64406,-1.88442 3.51925,-2.61235 -0.96995,-5.65694 -5.25954,-3.56704 -6.07124,-5.5436 -3.23305,-7.87273 2.39296,-1.96375 7.13922,-2.66832 7.13922,-1.05979 0,0.48265 -0.675,1.43775 -1.5,2.12244 -2.19698,1.82333 -1.88705,2.59767 2.00168,5.00104 4.94263,3.05471 5.65223,6.66476 1.90016,9.66706 -3.29971,2.64033 -8.40184,3.16111 -8.40184,0.85758 z m -65.67902,-0.27568 c -0.33894,-0.9625 -1.22482,-3.26745 -1.96862,-5.12212 -1.85768,-4.63214 -1.69583,-7.38209 0.57814,-9.8229 2.64778,-2.84206 10.80962,-4.73448 14.45002,-3.3504 5.13359,1.95178 2.72689,3.63622 -8.06387,5.64385 -3.02844,0.56345 -3.65023,3.41312 -1.86392,8.54233 0.83499,2.39759 1.52471,4.69674 1.53272,5.10924 0.0302,1.5547 -4.07475,0.67466 -4.66447,-1 z m 51.84077,3.4449 c -1.74947,-2.10798 -3.55298,-15.70367 -2.25529,-17.00136 0.73786,-0.73786 1.42279,-0.76429 2.1058,-0.0813 1.25693,1.25692 4.19669,16.24063 3.42982,17.48145 -0.78832,1.27553 -2.01446,1.12646 -3.28033,-0.39881 z m -70.62063,-8.76143 c 1.07627,-1.74144 -0.14952,-2.11024 -1.52106,-0.45763 -0.78875,0.95038 -0.86462,1.52416 -0.20152,1.52416 0.58488,0 1.36004,-0.47994 1.72258,-1.06653 z m -24.86451,13.31654 c -0.24278,-0.4125 -0.75509,-2.2125 -1.13847,-4.00001 -0.38338,-1.7875 -1.2238,-3.30331 -1.8676,-3.36848 -2.36966,-0.23986 -4.21298,0.33694 -5.90173,1.8467 -1.58342,1.41561 -1.80693,1.34389 -2.6186,-0.84025 -1.28889,-3.46832 -0.434,-4.73446 4.00342,-5.92933 3.02858,-0.81552 3.82365,-1.45847 3.41407,-2.76086 -1.25405,-3.98764 -2.5093,-12.48325 -1.97272,-13.35145 0.82406,-1.33336 3.40502,1.01486 3.40502,3.09798 0,0.93468 0.7341,3.85387 1.63132,6.48708 1.55465,4.56265 1.77888,4.76373 4.77069,4.27823 1.72664,-0.2802 4.92516,0.10448 7.10782,0.85484 3.81029,1.30992 4.08847,1.25611 6.97932,-1.35008 6.10657,-5.50526 10.00783,-6.53267 12.85586,-3.38564 2.51077,2.77437 2.01125,5.09911 -1.88529,8.77403 l -3.54028,3.33891 2.54685,0.63922 c 1.40077,0.35157 4.0064,0.37213 5.79028,0.0457 1.78389,-0.32644 3.91467,-0.1697 4.73507,0.3483 2.77536,1.75238 -0.69895,3.4461 -7.75999,3.78298 -5.58912,0.26665 -7.40733,-0.071 -10.71267,-1.98952 -2.18956,-1.27088 -4.43956,-3.20116 -5,-4.28951 -1.02201,-1.98472 -4.26141,-2.27515 -10.32528,-0.92571 -2.11944,0.47166 -2.25203,0.87513 -1.63645,4.98006 0.54896,3.66074 0.38931,4.46682 -0.88469,4.46682 -0.85499,0 -1.75316,-0.3375 -1.99595,-0.75 z m -21.08725,-4.81327 c -2.28605,-3.44303 -4.2855,-5.44388 -5.24635,-5.25 -0.8539,0.17229 -2.63413,2.33826 -3.95605,4.81326 -3.30979,6.19681 -5.1727,5.84691 -7.98613,-1.5 -1.2637,-3.3 -2.32086,-6.7875 -2.34923,-7.75 -0.0838,-2.84294 1.86376,-2.00777 4.0809,1.75 1.13578,1.925 2.37358,3.5 2.75067,3.5 0.37709,0 1.48308,-1.35 2.45776,-3 1.16513,-1.97241 2.57287,-3 4.10985,-3 3.64468,0 12.54922,9.86881 12.54922,13.90817 0,3.67032 -2.60562,2.25935 -6.41064,-3.47143 z m -32.36295,5.31327 c -2.58803,-3.17636 -4.31776,-15.28046 -2.0769,-14.53351 1.28158,0.4272 5.9207,13.85389 5.1943,15.03351 -0.68692,1.11551 -1.9686,0.90994 -3.1174,-0.5 z m -44.02133,0.46276 c -2.02412,-4.20015 -13.20509,-44.06141 -13.20509,-47.07747 0,-3.92494 2.23486,-1.81394 4.14995,3.91994 1.00019,2.99462 3.20382,10.39476 4.89697,16.44476 3.91146,13.97658 5.89101,19.5 6.98866,19.5 0.47859,0 2.31669,-1.8 4.08466,-4 1.76797,-2.2 3.94388,-4 4.83536,-4 0.89148,0 3.31356,2.025 5.3824,4.5 2.06885,2.475 4.08019,4.5 4.46965,4.5 0.76355,0 1.93674,-2.9276 8.67541,-21.64867 5.29925,-14.72217 8.07555,-20.35133 10.03727,-20.35133 2.10336,0 1.86594,1.53528 -1.52375,9.85361 -3.41675,8.38474 -3.54602,9.14639 -1.55233,9.14639 2.4778,0 7.2063,4.70759 5.98132,5.95488 -0.77523,0.78934 -2.06836,0.41951 -4.6435,-1.32803 l -3.56907,-2.42204 -2.59995,6.1476 c -1.42998,3.38117 -3.64736,9.26871 -4.92752,13.0834 -3.30837,9.85854 -4.5034,10.25952 -10.54854,3.53943 l -4.92531,-5.47524 -2.69289,2.5 c -1.48108,1.375 -3.4174,3.72339 -4.30292,5.21865 -2.03419,3.43485 -3.94919,4.19695 -5.01078,1.99412 z m 357.18793,-27.79456 c 0.93873,-2.44628 0.7352,-2.7695 -0.89301,-1.41821 -1.66238,1.37965 -1.99022,3 -0.60699,3 0.49116,0 1.16616,-0.7118 1.5,-1.58179 z m -0.4205,31.9325 c -4.07143,-2.71587 -9.97251,-8.66497 -9.97251,-10.05365 0,-2.17392 1.82712,-1.48022 7.11922,2.70295 5.37037,4.24504 8.28148,5.00413 9.27379,2.41821 1.44392,-3.7628 -0.30378,-20.72898 -2.34564,-22.77085 -0.66682,-0.66681 -1.64971,-0.41223 -2.94934,0.76391 -3.11659,2.82048 -5.54691,1.69181 -5.91295,-2.74604 -0.38161,-4.62657 1.56675,-7.90559 5.7195,-9.62571 4.25421,-1.76215 6.0546,-0.80451 5.95594,3.16801 -0.045,1.81086 0.91379,6.84735 2.13059,11.19221 5.06257,18.07702 0.3251,31.18374 -9.0186,24.95096 z"
       inkscape:connector-curvature="0" />
    <g
       id="g3543">
      <path
         d="m 115.76834,371.84595 c -0.31922,-0.79773 -0.55618,-0.56078 -0.60416,0.60417 -0.0434,1.05416 0.19292,1.64479 0.52522,1.3125 0.33229,-0.33229 0.36781,-1.1948 0.0789,-1.91667 z m -5.10862,1.73286 c -0.39783,-2.12059 -0.1658,-4.22691 0.60085,-5.45452 1.64839,-2.63949 1.01778,-3.08116 -3.18212,-2.22872 -2.86322,0.58114 -3.55143,1.21023 -3.81589,3.48808 -0.4114,3.54341 2.2495,7.6498 4.95701,7.6498 1.83974,0 2.01112,-0.41111 1.44015,-3.45464 z m 40.42551,4.00386 c 0,-0.24793 -0.48915,-2.73162 -1.08701,-5.51931 -0.87577,-4.08361 -1.67059,-5.37032 -4.09025,-6.62158 -1.65179,-0.85417 -3.63506,-1.31059 -4.40727,-1.01426 -3.3927,1.3019 -6.88112,10.80695 -4.7488,12.93926 0.73446,0.73447 14.33333,0.93929 14.33333,0.21589 z m 34.33517,0.48702 c 0.67661,-0.0294 -4.47517,-7.94968 -7.4014,-11.37888 -1.26018,-1.47679 -4.88684,1.29457 -6.38439,4.87871 -1.84224,4.40909 -4.25118,4.42188 -6.08526,0.0323 -1.90137,-4.55063 -2.77561,-4.93141 -5.25215,-2.28756 -2.82776,3.0188 -4.34208,7.18907 -3.07178,8.45937 0.78764,0.78764 13.73266,0.92357 28.19498,0.29605 z m -117.195786,9.0106 c -4.29121,-1.07195 -6.98207,-3.60416 -5.4539,-5.13234 0.79668,-0.79667 1.66248,-0.79864 3.1414,-0.007 2.56799,1.37434 10.7339,1.38918 24.74943,0.045 13.853976,-1.32873 13.831806,-1.32119 12.300866,-4.18179 -0.66498,-1.24253 -1.72672,-4.28671 -2.35942,-6.76484 -1.097476,-4.29856 -1.300416,-4.49034 -4.414596,-4.17188 -2.90214,0.29679 -3.22758,0.0815 -2.93371,-1.94089 0.23346,-1.60661 1.28508,-2.52074 3.58054,-3.11241 3.1185,-0.8038 3.249996,-1.03884 3.249996,-5.8091 0,-2.73446 0.43416,-4.97159 0.96481,-4.97159 1.37952,0 3.03519,3.44622 3.03519,6.31763 0,2.67462 2.05615,3.64487 7.77476,3.66872 2.41201,0.01 3.54997,0.60642 4.31942,2.26365 0.57456,1.2375 1.91273,3.825 2.97369,5.75 1.06097,1.925 1.92973,4.5125 1.93059,5.75 0.002,2.43017 1.3218,2.73595 6.95114,1.61008 3.19287,-0.63857 3.1982,-0.65011 2.53259,-5.48962 -0.62511,-4.54513 -0.50801,-4.91014 1.86461,-5.81221 1.39238,-0.52938 2.9971,-1.83229 3.56603,-2.89535 1.74956,-3.26909 5.53868,-3.47454 11.19727,-0.60711 2.81375,1.42583 5.34254,3.45908 5.61954,4.51832 0.66933,2.55951 0.87059,2.49219 4.7056,-1.57411 3.97996,-4.21999 5.31301,-4.34192 8.19977,-0.75 l 2.21012,2.75 3.51153,-3.38228 c 1.99919,-1.92561 4.12953,-3.14513 4.9465,-2.83163 0.78923,0.30286 4.2358,3.97829 7.65903,8.16762 4.9607,6.07089 5.98906,7.90011 5.06637,9.01189 -2.34983,2.83137 1.90986,3.51397 15.0765,2.41594 11.18794,-0.93303 19.14038,-0.81113 45.76541,0.70149 8.68599,0.49346 12.53333,1.70528 11.85712,3.73467 -0.42685,1.28102 -5.68569,1.28433 -54.72758,0.0345 -51.5747,-1.31441 -95.40753,-0.94298 -106.00001,0.89822 -11.616306,2.01916 -28.314676,2.93204 -32.860606,1.79645 z"
         style="fill:#525252"
         id="path3210"
         inkscape:connector-curvature="0" />
      <path
         inkscape:connector-curvature="0"
         d="m 396.08523,362.59247 c 0,-1.05548 -1.91911,-1.49891 -2.48992,-0.57533 -0.34546,0.55897 0.0734,1.01631 0.9309,1.01631 0.85746,0 1.55902,-0.19844 1.55902,-0.44098 z m -3.49777,10.89049 c -5.09276,-2.69776 -6.64023,-4.62641 -6.35629,-7.92201 0.33803,-3.92348 -0.69213,-5.5275 -3.54997,-5.5275 -2.7747,0 -5.59597,2.89738 -5.59597,5.74695 0,4.66491 -3.01879,7.25243 -4.36582,3.74211 -1.18546,-3.08926 0.6571,-8.01968 4.21203,-11.27079 2.95494,-2.70239 4.12379,-3.1737 6.6211,-2.66982 1.66798,0.33654 3.77982,1.47582 4.69298,2.53172 1.79844,2.07957 4.35118,2.51931 5.33971,0.91983 0.33992,-0.55 2.84148,-1 5.55902,-1 4.53586,0 4.94098,0.19494 4.94098,2.37756 0,2.85273 -1.71568,4.41659 -6.74052,6.14405 -2.06772,0.71084 -3.68039,1.67178 -3.58373,2.13542 0.0967,0.46363 2.70292,1.46168 5.79169,2.21787 3.23996,0.79321 5.45947,1.85091 5.24609,2.5 -0.59064,1.79665 -8.86503,1.84721 -12.2113,0.0746 z m -36.89524,2.9687 c -0.33385,-0.86998 -0.60699,-4.46998 -0.60699,-8 l 0,-6.41821 -3.58333,0 c -4.24808,0 -4.18638,-1.63485 0.15228,-4.03546 2.73044,-1.51077 2.97979,-2.15407 3.64311,-9.39902 1.10398,-12.05796 6.56703,-17.78643 11.88794,-12.46552 1.52727,1.52727 1.8,2.4 1,3.2 -0.8,0.8 -1.42727,0.77273 -2.3,-0.1 -0.66,-0.66 -1.73373,-1.2 -2.38606,-1.2 -2.14746,0 -4.41394,6.60681 -4.41394,12.86669 l 0,6.06442 4.87195,0.64629 c 9.35146,1.24052 9.26467,4.37703 -0.12195,4.40729 l -4.75,0.0153 0,8 c 0,6.17136 -0.31841,8 -1.39301,8 -0.76616,0 -1.66616,-0.7118 -2,-1.58179 z m 68.33996,-9.85429 c 0.85347,-1.02837 0.89612,-1.98863 0.15022,-3.38235 -1.59381,-2.97807 -3.57936,-3.25025 -8.02869,-1.10057 -4.01025,1.93754 -5.26137,4.27099 -2.81848,5.25672 2.73426,1.1033 9.54818,0.61039 10.69695,-0.7738 z m 1.81658,23.62055 c -0.99545,-2.63725 -1.67067,-2.91655 -10.66314,-4.41073 -7.43341,-1.23513 -12.08328,-1.40863 -20.60039,-0.76863 -16.82387,1.26418 -39.8885,1.57235 -51,0.68141 -12.79529,-1.02595 -14.5,-1.40281 -14.5,-3.20557 0,-1.17576 1.49407,-1.47198 7.25,-1.4374 3.9875,0.024 9.275,0.45295 11.75,0.95332 2.73786,0.55352 12.91912,0.52545 26,-0.0717 28.48053,-1.30011 35.12661,-1.36657 43.75,-0.43753 l 7.25,0.78107 0,-5.65341 c 0,-6.19451 0.33339,-6.01324 -7.26515,-3.95018 -2.89636,0.78641 -8.73485,-3.43291 -8.73485,-6.31242 0,-4.23303 1.70486,-6.12704 6.19851,-6.88624 2.32352,-0.39255 4.97409,-1.18181 5.89016,-1.75391 1.24484,-0.77742 2.51761,-0.54208 5.03846,0.9316 l 3.37287,1.97177 0.0587,8.94204 c 0.0323,4.91812 0.14479,9.72954 0.25,10.69204 0.17029,1.55781 1.497,1.75 12.08052,1.75 10.26083,0 12.21255,0.2642 14.25,1.92902 3.6801,3.00705 1.4225,3.90701 -7.53231,3.00266 -11.94283,-1.20612 -20.56038,-0.28344 -19.11998,2.04718 0.71544,1.1576 -0.48148,4.02114 -1.68078,4.02114 -0.53893,0 -1.45811,-1.26699 -2.04262,-2.81553 z"
         style="fill:#525252"
         id="path3204" />
      <path
         inkscape:connector-curvature="0"
         d="m 790.08336,381.52852 c -0.54897,-1.4439 -0.99813,-4.59442 -0.99813,-7.00115 0,-4.24378 -0.93302,-5.70098 -3.94118,-6.15538 -8.2939,-1.25282 -8.28466,-5.33854 0.0121,-5.33854 l 2.90731,0 -0.63884,-9 c -0.42833,-6.03434 -0.29221,-9 0.41308,-9 1.62886,0 3.24757,5.74539 3.24757,11.52678 0,5.57842 0.81277,6.79439 5.25,7.85438 4.59067,1.09666 2.96922,4.61884 -2.1263,4.61884 -1.47217,0 -1.68588,0.98389 -1.52155,7.00485 0.20258,7.4226 -0.94746,9.84731 -2.60402,5.49022 z m -30.71723,2.24392 c -1.70785,-2.23749 -3.10844,-7.14328 -3.70832,-12.98899 -0.47711,-4.64937 -0.30993,-5.75 0.87337,-5.75 0.88163,0 1.72529,1.39585 2.1221,3.51105 0.36227,1.93107 0.9869,3.71389 1.38806,3.96182 0.40116,0.24793 2.23378,-1.55704 4.07249,-4.01104 1.83871,-2.45401 4.08973,-4.46183 5.00227,-4.46183 2.38442,0 4.57844,2.84625 6.06358,7.86617 0.71046,2.40139 2.61715,5.69159 4.2371,7.31154 3.38021,3.3802 2.52601,5.88679 -1.30704,3.83541 -2.07016,-1.10792 -6.99366,-10.06609 -7.01474,-12.76312 -0.0154,-1.97721 -1.42769,-1.4729 -4.20049,1.5 -3.33747,3.57832 -4.80928,6.52398 -4.80928,9.62524 0,2.93702 -1.37149,4.12927 -2.7191,2.36375 z m -17.2809,-13.73899 c 0,-0.55 -0.87344,-1 -1.94098,-1 -1.06754,0 -2.2191,0.45 -2.55902,1 -0.35052,0.56716 0.48962,1 1.94098,1 1.40746,0 2.55902,-0.45 2.55902,-1 z m -2.5,15.26379 c -1.1,-0.27732 -2.81661,-1.07538 -3.81469,-1.77346 -0.99808,-0.69809 -2.62306,-1.05786 -3.61107,-0.79949 -1.42552,0.37278 -2.02745,-0.44795 -2.91572,-3.97557 -1.54906,-6.15188 -4.13735,-9.17415 -7.06188,-8.24594 -2.59081,0.82229 -5.09664,5.98405 -5.09664,10.49855 0,5.09958 -2.46958,3.49724 -4.04463,-2.62427 -1.97291,-7.66783 -4.00856,-8.82595 -7.94261,-4.51873 -2.12661,2.32835 -3.01276,4.30986 -3.01276,6.73684 0,2.3177 -0.46691,3.43828 -1.43261,3.43828 -1.80441,0 -2.248,-1.62373 -3.07346,-11.25 -0.69462,-8.10041 0.40804,-10.25402 2.68802,-5.25 1.31509,2.88631 2.08516,3.088 3.81805,1 1.89394,-2.28206 5.07525,-1.80118 8.26956,1.25 2.83227,2.70536 2.9014,2.71753 4.25876,0.75 2.21737,-3.21414 4.72803,-5.5 6.04089,-5.5 0.6706,0 2.66444,1.34998 4.43074,2.99995 l 3.21146,2.99995 2.97136,-2.50024 c 5.16474,-4.34584 9.56011,-4.43971 12.1963,-0.26049 0.69785,1.10633 0.64757,2.40695 -0.16173,4.18317 -1.42107,3.1189 -6.51886,3.63945 -8.10537,0.82766 -1.63667,-2.90068 -3.75506,0.0132 -2.54075,3.49485 0.8024,2.30062 1.90376,2.97965 6.67596,4.11597 5.30924,1.26419 5.99336,1.21574 9.63491,-0.68235 4.23073,-2.20517 5.59217,-1.93315 4.1173,0.82266 -1.97044,3.68181 -9.54276,5.76435 -15.49939,4.26266 z m -131.23031,-0.74638 c -4.30783,-1.87273 -7.52101,-7.0899 -6.78547,-11.01741 0.30901,-1.65 1.87171,-4.31159 3.47267,-5.91464 2.42807,-2.43123 3.65252,-2.88658 7.38273,-2.74548 l 4.47188,0.16914 -0.55783,-8.13854 c -0.4597,-6.7069 -0.31119,-8.05686 0.84425,-7.67423 0.99333,0.32895 1.91126,4.52233 3.14865,14.38403 0.96062,7.65585 2.19812,14.70111 2.75,15.65615 1.45054,2.51015 1.23227,4.76357 -0.46139,4.76357 -1.92324,0 -3.31638,-2.73413 -4.13985,-8.12476 -0.83831,-5.48768 -1.92469,-6.87524 -5.38292,-6.87524 -3.95247,0 -8.01241,3.52599 -8.01241,6.95864 0,2.2168 0.7213,3.15576 3.40113,4.42742 1.87062,0.88767 4.34562,1.61394 5.5,1.61394 2.44922,0 2.83098,2.50508 0.51708,3.39301 -2.09339,0.80331 -2.38063,0.76241 -6.14852,-0.8756 z m 67.61836,0.98295 c -2.65767,-1.44442 -4.26698,-4.4818 -5.38657,-10.16652 -0.84263,-4.2785 0.38467,-10.33384 2.09448,-10.33384 1.06879,0 1.25188,1.27524 0.82554,5.75 -0.98543,10.34285 4.77441,15.50485 10.93248,9.79775 2.10314,-1.94913 2.64602,-3.37195 2.64602,-6.9349 0,-2.46546 -0.46259,-5.69936 -1.02798,-7.18644 -0.56539,-1.48708 -0.75165,-2.97888 -0.41392,-3.3151 1.22322,-1.21775 4.21985,3.92229 4.8893,8.38648 1.67009,11.13695 -6.09352,18.60366 -14.55935,14.00257 z m -18.26875,0.50897 c -5.80785,-1.82716 -10.18044,-8.26014 -8.57127,-12.61012 1.16629,-3.15279 9.0845,-9.52509 11.41832,-9.18907 2.87145,0.41343 3.32312,3.78986 0.50697,3.78986 -2.47937,0 -8.97332,6.02651 -8.97332,8.32742 0,3.2606 4.92204,5.67258 11.57584,5.67258 3.46837,0 6.55273,0.39901 6.85413,0.88669 1.56021,2.52447 -7.60829,4.75932 -12.81067,3.12264 z m 150.31745,0.41445 c -1.08413,-1.30629 -1.06229,-1.73178 0.12755,-2.48468 0.78964,-0.49966 2.3931,-0.91537 3.56326,-0.92379 1.17015,-0.008 2.69476,-0.69875 3.38801,-1.53407 1.03303,-1.24472 0.92465,-1.88981 -0.60064,-3.57524 -1.0236,-1.13106 -3.07864,-2.7757 -4.56675,-3.65476 -3.08953,-1.82502 -3.8991,-3.88129 -2.75053,-6.98618 0.95929,-2.5932 6.1529,-5.48988 8.339,-4.65099 2.62707,1.00809 1.78626,4.2193 -1.55751,5.94843 l -3.12087,1.61386 3.53304,2.91223 c 4.80944,3.96435 6.00559,10.01441 2.54934,12.89444 -2.84423,2.37005 -7.12679,2.58205 -8.9039,0.44075 z m -165.57363,-7.17378 c 0.5725,-2.0089 0.56616,-4.4911 -0.0166,-6.5 -0.77284,-2.66408 -1.38484,-3.19721 -3.39466,-2.95717 -11.18287,1.33559 -11.64532,13.68983 -0.48339,12.9136 2.41954,-0.16826 3.13973,-0.80741 3.89466,-3.45643 z m -8.78266,6.89014 c -4.02547,-2.36285 -6.91379,-6.51098 -6.91379,-9.92944 0,-1.60556 1.44871,-4.9715 3.29429,-7.65395 3.23751,-4.70557 3.37057,-4.77949 7.72108,-4.28912 4.9995,0.56352 6.731,2.25602 8.40244,8.21322 1.38707,4.94365 0.64297,11.05784 -1.65472,13.59677 -2.14622,2.37154 -6.86915,2.39875 -10.8493,0.0625 z"
         style="fill:#525252"
         id="path3184" />
      <path
         inkscape:connector-curvature="0"
         id="path3492"
         d="m 602.93075,391.93444 c 14.06555,-1.01341 28.13294,-0.30232 42.08171,0.60767 41.38316,0.6918 82.7382,1.8849 124.15473,1.73428 16.38453,-0.13636 32.89312,0.21724 49.19477,-0.53965 11.34124,-1.1717 22.98012,-0.75087 34.35107,0.059 -2.47709,2.81512 -18.19201,1.13361 -25.26422,1.89154 -65.59978,0.55466 -131.21674,0.14273 -196.81793,-0.187 -20.05763,-0.19182 -40.13505,-0.50429 -60.15183,-1.14501 -5.67127,-1.88214 10.45262,-1.21524 13.4004,-1.76754 6.34508,-0.26315 12.69945,-0.44891 19.0513,-0.65333 z"
         style="fill:#525252" />
    </g>
    <path
       style="fill:#000000"
       d="m -171.95503,599.31496 c 0,-1.29921 2.70094,-3.48361 4.35032,-3.51833 0.52015,-0.0108 0.94573,-0.26796 0.94573,-0.571 0,-0.30311 1.10649,-0.72732 2.45887,-0.94266 2.46308,-0.39224 6.53511,-1.62309 9.1485,-2.76533 0.76646,-0.33502 3.83061,-0.76264 6.80921,-0.95026 2.97859,-0.18768 5.79999,-0.57992 6.26976,-0.87171 0.46976,-0.29179 3.61902,-0.69924 6.99834,-0.90548 3.37933,-0.20618 6.14423,-0.57298 6.14423,-0.81507 0,-0.74378 9.45616,-1.3176 26.48024,-1.60699 8.946535,-0.15212 18.309191,-0.31316 20.805899,-0.35794 2.496709,-0.0449 11.43379,0.12494 19.86018,0.37716 8.426391,0.25215 15.320711,0.29759 15.320711,0.10087 0,-0.47342 -4.731777,-3.88208 -5.389001,-3.88208 -0.708967,0 -5.879454,-4.1416 -6.643862,-5.32174 -0.343472,-0.53036 -0.471447,-1.30203 -0.284391,-1.71493 0.38469,-0.84908 6.220564,2.10118 6.248474,3.1589 0.0089,0.33669 1.19295,1.11363 2.631251,1.72654 3.430493,1.46187 8.733577,6.47818 8.733577,8.26129 0,0.94475 -1.735674,2.76821 -5.296048,5.56384 -2.912827,2.28719 -5.296048,4.63717 -5.296048,5.22224 0,1.19128 -1.5285,1.41075 -2.802798,0.40242 -1.154447,-0.91349 0.990755,-3.65824 5.76145,-7.37167 2.080424,-1.61938 3.606707,-3.1695 3.391748,-3.4447 -0.53481,-0.68475 -68.959312,-0.59579 -71.794422,0.0933 -1.24835,0.3034 -5.16364,0.82088 -8.70065,1.14997 -3.537,0.32908 -9.32482,1.00611 -12.86183,1.50443 -3.537,0.49839 -8.49352,1.17398 -11.01448,1.50133 -2.52096,0.32741 -5.5851,1.0085 -6.80921,1.51359 -1.2241,0.50509 -2.99167,0.91997 -3.92793,0.922 -0.93627,0 -1.70231,0.27311 -1.70231,0.60237 0,0.32927 -0.66907,0.59867 -1.48682,0.59867 -0.81777,0 -2.65012,0.80819 -4.07192,1.79598 -3.04005,2.11208 -4.27677,2.26965 -4.27677,0.54496 z"
       id="path3166"
       inkscape:connector-curvature="0" />
  </g>
</svg>
