<?xml version="1.0" encoding="UTF-8" standalone="no"?>
<!-- Created with Inkscape (http://www.inkscape.org/) -->

<svg
   xmlns:dc="http://purl.org/dc/elements/1.1/"
   xmlns:cc="http://creativecommons.org/ns#"
   xmlns:rdf="http://www.w3.org/1999/02/22-rdf-syntax-ns#"
   xmlns:svg="http://www.w3.org/2000/svg"
   xmlns="http://www.w3.org/2000/svg"
   xmlns:sodipodi="http://sodipodi.sourceforge.net/DTD/sodipodi-0.dtd"
   xmlns:inkscape="http://www.inkscape.org/namespaces/inkscape"
   width="1200"
   height="500"
   id="svg3107"
   version="1.1"
   inkscape:version="0.48.2 r9819"
   sodipodi:docname="lucene-search-tree.svg">
  <defs
     id="defs3109" />
  <sodipodi:namedview
     id="base"
     pagecolor="#ffffff"
     bordercolor="#666666"
     borderopacity="1.0"
     inkscape:pageopacity="0.0"
     inkscape:pageshadow="2"
     inkscape:zoom="0.62679641"
     inkscape:cx="497.07453"
     inkscape:cy="279.85889"
     inkscape:document-units="px"
     inkscape:current-layer="layer1"
     showgrid="false"
     fit-margin-top="0"
     fit-margin-left="0"
     fit-margin-right="0"
     fit-margin-bottom="0"
     inkscape:window-width="1440"
     inkscape:window-height="852"
     inkscape:window-x="0"
     inkscape:window-y="0"
     inkscape:window-maximized="1" />
  <metadata
     id="metadata3112">
    <rdf:RDF>
      <cc:Work
         rdf:about="">
        <dc:format>image/svg+xml</dc:format>
        <dc:type
           rdf:resource="http://purl.org/dc/dcmitype/StillImage" />
        <dc:title />
      </cc:Work>
    </rdf:RDF>
  </metadata>
  <g
     inkscape:label="Layer 1"
     inkscape:groupmode="layer"
     id="layer1"
     transform="translate(130.84931,-496.26334)">
    <g
       id="g3007"
       transform="matrix(0.45201843,0,0,0.45201843,412.8928,389.80856)">
      <path
         inkscape:connector-curvature="0"
         id="path3690"
         d="m 482.1533,1223.1053 c -0.6377,-1.1916 -0.6841,-2 -0.1146,-2 0.5256,0 1.2522,-1.35 1.6146,-3 0.3624,-1.65 1.0244,-3 1.471,-3 0.4467,0 1.1042,-1.1635 1.4611,-2.5856 0.3569,-1.422 1.0961,-3.1095 1.6425,-3.75 0.5465,-0.6404 1.6046,-2.0474 2.3513,-3.1266 1.0894,-1.5745 1.6441,-1.7245 2.8074,-0.7591 1.2396,1.0288 0.7841,2.5807 -3.1418,10.7049 -2.5253,5.2259 -5.1382,9.505 -5.8063,9.509 -0.6682,0 -1.6965,-0.8926 -2.2852,-1.9926 z"
         style="fill:#000000" />
      <path
         inkscape:connector-curvature="0"
         id="path3684"
         d="m 662.90325,1221.4147 c -2.066,-0.5383 -2.2872,-2.6186 -0.4415,-4.1505 0.9282,-0.7703 3.2266,-0.7874 7.9067,-0.059 4.6712,0.7273 7.7935,0.7054 10.6915,-0.075 l 4.0933,-1.1022 0,-5.0111 c 0,-2.7561 -0.7527,-6.4513 -1.6726,-8.2115 -1.373,-2.6272 -1.6864,-6.4238 -1.75,-21.2003 -0.043,-9.9 0.2654,-19.9125 0.6844,-22.25 l 0.7618,-4.25 -5.4307,0 c -5.2362,0 -11.5722,2.391 -11.5866,4.3724 0,0.4799 -0.6813,0.3123 -1.5063,-0.3724 -1.8288,-1.5178 -1.9475,-4.3838 -0.2401,-5.8008 0.6929,-0.5751 4.1804,-1.3465 7.75,-1.7142 3.5696,-0.3677 8.0424,-1.0658 9.9396,-1.5513 2.685,-0.6871 3.8477,-0.5223 5.2464,0.7436 1.3542,1.2255 1.5242,1.9549 0.69,2.9602 -2.6877,3.2385 -2.3915,48.6737 0.329,50.4601 0.5006,0.3288 0.9101,3.6596 0.9101,7.4018 0,9.4032 -0.4891,9.7586 -13.8162,10.0388 -5.9448,0.125 -11.5963,0.022 -12.5588,-0.2288 z"
         style="fill:#000000" />
      <path
         inkscape:connector-curvature="0"
         id="path3682"
         d="m 333.6533,1219.9804 c -3.3,-0.4749 -9.2904,-0.6001 -13.3121,-0.2782 l -7.3121,0.5854 0.4973,-11.3411 c 0.5642,-12.8663 2.2124,-30.5358 3.9496,-42.3412 l 1.1773,-8 9.971,0.3109 c 5.484,0.1711 10.4476,0.7066 11.0303,1.1902 0.5826,0.4835 3.4853,1.0186 6.4504,1.189 5.9094,0.3397 7.3715,1.7638 3.7829,3.6844 -1.61,0.8616 -3.0798,0.9448 -4.8439,0.2741 -1.3929,-0.5296 -7.0488,-1.2831 -12.5687,-1.6744 l -10.0363,-0.7116 -0.6436,6.8687 c -0.354,3.7778 -1.3493,12.7187 -2.2118,19.8687 -0.8626,7.15 -1.7977,15.7476 -2.0782,19.1057 l -0.51,6.1056 14.0884,0.7152 c 7.7486,0.3933 16.5509,0.4074 19.5608,0.031 3.0098,-0.3761 6.6056,-0.3994 7.9906,-0.052 9.695,2.4333 -12.0715,6.3271 -24.9819,4.469 z"
         style="fill:#000000" />
      <path
         inkscape:connector-curvature="0"
         d="m 409.2817,1207.679 c 6.6736,-2.0255 8.8768,-3.6618 8.8383,-6.5642 -0.059,-4.4531 -6.5734,-10.0095 -11.7353,-10.0095 -4.2814,0 -11.2314,7.9136 -11.2314,12.7886 0,1.4016 1.2826,2.3478 4.75,3.5041 2.6125,0.8712 4.75,1.6068 4.75,1.6348 0,0.028 2.0828,-0.5812 4.6284,-1.3538 z m -16.592,1.3241 c -3.5463,-3.1136 -6.7442,-9.0145 -8.011,-14.782 -0.3736,-1.7011 -1.0947,-3.3495 -1.6023,-3.6633 -0.5077,-0.3138 -0.9231,-1.4174 -0.9231,-2.4525 0,-3.3081 -1.9677,-3.2577 -6.4579,0.1653 -3.7808,2.8821 -4.6642,4.3048 -6.5084,10.4812 -2.0688,6.9286 -4.1379,9.219 -6.7583,7.481 -1.2071,-0.8007 -3.1531,-7.68 -4.7035,-16.6275 -0.6671,-3.85 -1.4814,-7.675 -1.8095,-8.5 -0.3281,-0.825 -0.8424,-3.975 -1.1428,-7 -0.3005,-3.025 -0.8506,-6.552 -1.2225,-7.8378 -0.5893,-2.037 -0.3688,-2.2944 1.7133,-2 2.1071,0.2979 2.5437,1.1653 3.6935,7.3378 0.7171,3.85 1.7133,9.925 2.2138,13.5 0.5004,3.575 1.1953,8.075 1.5441,10 l 0.6343,3.5 2.2996,-4.5 c 1.2648,-2.475 3.9423,-6.1875 5.9501,-8.25 2.9314,-3.0113 4.3796,-3.7469 7.3523,-3.7346 2.0361,0.01 4.1979,0.3459 4.8041,0.75 1.63,1.0865 4.6726,7.9881 5.3448,12.124 0.7194,4.4259 2.1119,4.6116 3.9142,0.5218 1.6017,-3.6344 9.7991,-9.3195 14.5495,-10.0904 3.8173,-0.6194 7.5893,1.0309 7.5893,3.3205 0,0.864 1.1335,2.4625 2.5189,3.5523 1.3854,1.0897 3.4201,3.8467 4.5216,6.1265 1.944,4.0236 1.9493,4.2166 0.1809,6.5852 -1.002,1.342 -2.4742,2.7485 -3.2716,3.1254 -0.7974,0.3769 -2.8692,1.4241 -4.6041,2.3273 -2.1127,1.0998 -5.651,1.642 -10.7152,1.642 -7.0304,0 -7.8088,-0.2176 -11.0941,-3.1022 z m 40.9241,10.0383 c -1.0369,-1.6778 -5.5454,-25.4625 -6.8118,-35.9361 -0.6318,-5.225 -1.4404,-9.95 -1.7969,-10.5 -0.3566,-0.55 -0.9715,-4.0375 -1.3665,-7.75 -0.6828,-6.4162 -0.6146,-6.75 1.3792,-6.75 2.4873,0 2.5893,0.3832 5.593,21 1.5567,10.6851 4.0905,24.7328 4.8699,27 0.2837,0.825 0.7984,4.3125 1.1438,7.75 0.5178,5.1524 0.3663,6.25 -0.8625,6.25 -0.8199,0 -1.7866,-0.4787 -2.1482,-1.0639 z m 17.051,18.0826 c -0.8983,-1.4536 0.3433,-8.514 2.084,-11.8504 0.7657,-1.4675 1.395,-3.6808 1.3983,-4.9183 0,-1.2375 0.4358,-2.25 0.9609,-2.25 0.5251,0 1.2511,-1.5799 1.6133,-3.511 0.3623,-1.9311 1.0577,-3.7576 1.5454,-4.059 1.9578,-1.21 0.6973,-3.3882 -2.4664,-4.2618 -3.4796,-0.9607 -6.9512,-3.4611 -12.1831,-8.7745 -1.6823,-1.7086 -4.0499,-3.6369 -5.2613,-4.2852 -2.7052,-1.4478 -2.9779,-5.1085 -0.3805,-5.1085 1.0021,0 5.1476,3.1647 9.2122,7.0327 4.0645,3.8679 8.6461,7.6592 10.1814,8.425 3.589,1.7905 4.5806,0.8563 8.9949,-8.475 3.41,-7.2083 5.104,-8.7964 7.3737,-6.9127 1.0883,0.9032 0.9152,1.7718 -0.9498,4.7672 -1.2543,2.0146 -3.6659,6.5878 -5.3592,10.1628 -1.6933,3.575 -4.6979,9.9223 -6.677,14.105 -1.9791,4.1827 -3.5983,8.9302 -3.5983,10.55 0,1.6198 -0.4371,3.3822 -0.9714,3.9164 -0.5342,0.5343 -1.1411,2.0868 -1.3486,3.45 -0.3965,2.6049 -3.017,3.8605 -4.1685,1.9973 z"
         style="fill:#0055d4"
         id="path3664" />
      <path
         inkscape:connector-curvature="0"
         id="path3662"
         d="m 263.804,1209.6374 c -0.7138,-1.8601 0.638,-2.682 6.3127,-3.8381 8.8849,-1.8101 21.2629,-1.9276 25.2866,-0.24 2.0625,0.8651 3.75,1.9474 3.75,2.4052 0,0.4578 -5.8543,0.816 -13.0095,0.7961 -8.7716,-0.024 -13.3973,0.3516 -14.2,1.1543 -1.6984,1.6984 -7.4569,1.5021 -8.1398,-0.2775 z"
         style="fill:#000000" />
      <path
         inkscape:connector-curvature="0"
         id="path3648"
         d="m 283.1533,1199.1624 c -10.2324,-0.5868 -15.6793,-2.1489 -14.4468,-4.1432 0.8891,-1.4386 23.5743,0.071 25.1789,1.6753 1.3815,1.3816 1.7224,3.5141 0.5179,3.2405 -0.4125,-0.094 -5.475,-0.4414 -11.25,-0.7726 z"
         style="fill:#000000" />
      <path
         inkscape:connector-curvature="0"
         d="m 122.24721,1179.2111 c -1.54507,-1.1879 -2.18254,-2.4324 -1.78139,-3.4778 0.83127,-2.1663 1.64408,-2.0529 5.09879,0.7115 4.70789,3.7671 1.48262,6.4565 -3.3174,2.7663 z m 47.05154,33.5491 c -2.69396,-2.8676 -6.14545,-9.472 -6.14545,-11.7593 0,-2.4196 -1.57991,-2.7019 -9.98573,-1.7842 -7.75685,0.8468 -9.51318,0.3524 -8.46368,-2.3826 0.6629,-1.7275 9.82183,-3.3876 13.45206,-2.4383 1.09745,0.287 2.20661,0.18 2.4648,-0.2378 0.46077,-0.7455 -0.98451,-6.0106 -2.50942,-9.1417 -1.53115,-3.1438 -2.21854,-12.632 -0.97102,-13.403 1.90875,-1.1796 3.20457,0.9674 3.71478,6.155 0.26164,2.6604 1.11077,6.2551 1.88696,7.9882 0.77619,1.7331 1.41125,3.8338 1.41125,4.6682 0,2.8274 1.2068,4.6806 3.04797,4.6806 1.0087,0 2.11211,0.45 2.45203,1 0.33992,0.55 1.97898,1 3.64235,1 1.9866,0 2.87389,0.4289 2.58591,1.25 -0.28757,0.82 -2.03654,1.1468 -5.08333,0.95 -2.55471,-0.1651 -4.64493,-0.034 -4.64493,0.2908 0,0.325 1.80991,3.9475 4.02201,8.0501 4.09234,7.5896 3.68449,9.969 -0.87656,5.114 z m 43.16891,-9.3071 c 4.84642,-0.8009 10.32504,-5.8724 8.59524,-7.9567 -1.5908,-1.9167 -4.80929,-1.7412 -9.4839,0.5174 -4.64025,2.2419 -7.89374,5.5252 -6.96464,7.0285 0.75077,1.2148 2.44962,1.3037 7.8533,0.4108 z m 4.18564,14.0303 c -1.1,-0.2827 -3.41801,-1.1584 -5.15113,-1.946 -1.73312,-0.7876 -3.55429,-1.4321 -4.04705,-1.4321 -0.49276,0 -2.56225,-1.7064 -4.59887,-3.7921 -2.71293,-2.7783 -3.70295,-4.6498 -3.70295,-7 0,-1.7643 0.34329,-3.2079 0.76287,-3.2079 0.41958,0 1.20708,-0.96 1.75,-2.1333 2.66873,-5.7677 18.92553,-9.3547 22.83213,-5.0379 2.7573,3.0468 2.0521,6.5775 -2.0061,10.044 -2.0136,1.72 -4.46209,3.1272 -5.44101,3.1272 -0.97892,0 -2.09075,0.5031 -2.47073,1.1179 -0.43609,0.7056 -2.30172,0.8971 -5.05901,0.5191 -2.40248,-0.3293 -4.36815,-0.2416 -4.36815,0.1948 0,1.1405 9.59316,5.1682 12.30954,5.1682 1.25976,0 2.78216,0.4917 3.38306,1.0927 0.7256,0.7255 1.7167,0.7714 2.95,0.1364 1.0216,-0.5259 5.0887,-1.2138 9.0381,-1.5287 5.5524,-0.4426 7.4509,-0.2468 8.3724,0.8636 0.9895,1.1923 0.6958,1.436 -1.7307,1.436 -1.6073,0 -3.3527,0.4304 -3.8787,0.9563 -1.0888,1.0888 -15.9103,2.2012 -18.9437,1.4218 z m -71.52749,-1.0822 c -3.17037,-2.1851 -4.19237,-3.5735 -7.57314,-10.2882 -1.52514,-3.0292 -3.40252,-5.9798 -4.17196,-6.557 -1.66699,-1.2503 -1.28284,-6.614 0.51599,-7.2047 0.74107,-0.2433 2.30887,2.0486 3.88071,5.6729 1.45052,3.3446 2.97971,6.0811 3.39819,6.0811 0.41849,0 1.01711,1.0125 1.33028,2.25 0.31317,1.2375 1.86837,3.802 3.45599,5.6988 l 2.8866,3.4487 3.36195,-1.6283 c 3.57592,-1.7318 4.94288,-1.5231 4.94288,0.7547 0,3.4526 -7.9003,4.6166 -12.02749,1.772 z m 48.15479,4.6081 c -1.2374,-1.1528 -2.69158,-3.0653 -3.2315,-4.25 -0.53992,-1.1847 -1.63072,-3.279 -2.424,-4.654 -0.79327,-1.375 -1.44895,-3.6475 -1.45706,-5.05 -0.008,-1.4025 -0.40689,-2.9775 -0.88619,-3.5 -0.4793,-0.5225 -1.65364,-3.65 -2.60965,-6.95 -0.956,-3.3 -2.33217,-8.025 -3.05813,-10.5 -0.72597,-2.475 -1.63413,-6.075 -2.01813,-8 -0.38401,-1.925 -1.31569,-4.3876 -2.07041,-5.4725 -1.91247,-2.7491 -1.71105,-4.5275 0.51276,-4.5275 2.46127,0 4.68525,3.4968 5.57558,8.7666 0.3924,2.3226 1.1243,4.4769 1.62644,4.7872 0.50215,0.3104 0.91576,2.0002 0.91915,3.7553 0.003,1.755 0.67839,4.4799 1.5,6.0553 0.82161,1.5753 1.50911,3.8253 1.52777,5 0.0187,1.1746 0.90339,3.9356 1.96607,6.1356 1.06268,2.2 1.94741,5.0215 1.96607,6.2699 0.0431,2.8812 4.37517,9.8072 7.01933,11.2223 1.10803,0.593 2.0146,1.5124 2.0146,2.043 0,1.7556 -4.58399,1.0011 -6.8727,-1.1312 z m -86.6273,2.2063 c -1.1,-0.4474 -2.99157,-1.1522 -4.20348,-1.5663 -3.403721,-1.163 -6.296521,-7.6967 -6.296521,-14.2215 l 0,-5.6159 -7.33408,0.6199 c -4.03374,0.341 -8.646238,1.3043 -10.249998,2.1406 -3.54321,1.8477 -6.42133,1.975 -6.40061,0.2829 0.0311,-2.5342 1.60251,-3.5709 6.48469,-4.2781 2.75,-0.3983 5.46143,-1.0886 6.025388,-1.534 0.56397,-0.4455 3.26397,-0.9512 6,-1.1239 3.81435,-0.2407 4.89231,-0.6638 4.62174,-1.814 -0.19408,-0.825 -0.66217,-5.0064 -1.04021,-9.292 -0.65712,-7.4495 -0.59804,-7.7793 1.34392,-7.5 1.59637,0.2295 2.20677,1.3625 2.85105,5.292 0.93701,5.7149 1.11838,9.3404 0.5753,11.5 -0.31686,1.2601 1.782041,1.58 13.122811,2 11.11111,0.4116 13.5,0.7655 13.5,2 0,1.2413 -2.22394,1.5485 -12.89172,1.781 l -12.891711,0.2809 0.598961,6.4142 c 0.32943,3.5278 1.15513,7.3047 1.83488,8.3932 1.68237,2.6939 9.22025,4.7702 12.14746,3.3461 1.21117,-0.5893 3.88963,-1.3492 5.95213,-1.6887 2.0625,-0.3395 3.75,-1.0469 3.75,-1.572 0,-0.525 0.7875,-0.9574 1.75,-0.9608 0.9625,0 3.03894,-0.6784 4.61431,-1.5 3.65548,-1.9065 5.63569,-1.8996 5.63569,0.02 0,0.8833 -2.3944,2.5646 -5.75,4.0375 -3.1625,1.3882 -6.5622,2.9764 -7.55489,3.5292 -2.40298,1.3383 -13.67466,2.0552 -16.19511,1.03 z"
         style="fill:#ff2a2a"
         id="path3636" />
      <path
         inkscape:connector-curvature="0"
         d="m 618.70565,1155.5267 c -5.7118,-5.9922 -6.3461,-7.7345 -2.9741,-8.169 2.5494,-0.3284 11.2223,11.347 9.6195,12.9498 -0.7588,0.7588 -2.6875,-0.6287 -6.6454,-4.7808 z m 33.1143,45.912 c -0.3667,-0.3667 -0.6667,-1.4917 -0.6667,-2.5 0,-1.0084 -0.4043,-1.8334 -0.8985,-1.8334 -0.4942,0 -1.215,-3.1517 -1.6019,-7.0039 -0.3869,-3.8522 -1.0544,-7.2209 -1.4835,-7.4861 -0.4291,-0.2652 -1.1025,-3.5259 -1.4965,-7.2461 -0.394,-3.7201 -1.1084,-7.2435 -1.5876,-7.8298 -0.4792,-0.5862 -1.1719,-3.6237 -1.5393,-6.75 -0.5556,-4.7275 -0.4105,-5.6841 0.8626,-5.6841 1.955,0 2.8134,1.9565 4.3877,10 1.2266,6.2669 3.1926,15.5853 5.2747,25 0.5474,2.475 1.0148,4.82 1.0387,5.2111 0.024,0.3911 0.9915,1.5941 2.15,2.6734 1.1584,1.0793 1.8069,2.4468 1.4409,3.039 -0.7313,1.1833 -4.822,1.4685 -5.8806,0.4099 z m -20.8884,0.8432 c -2.3331,-0.9254 -11.3625,-14.8874 -12.2326,-18.9151 -0.3847,-1.7812 -1.115,-3.4952 -1.6226,-3.809 -0.5077,-0.3138 -0.9231,-1.219 -0.9231,-2.0115 0,-2.0539 3.9518,-1.7896 4.6198,0.309 2.6704,8.3903 10.4759,20.25 13.3275,20.25 2.547,0 3.5274,1.7232 2.0163,3.5438 -1.2991,1.5654 -2.4729,1.7086 -5.1853,0.6328 z m -34.0896,-9.5225 c 2.0067,-1.9749 2.0967,-2.5492 1.0816,-6.9041 -1.2158,-5.2155 -2.0734,-5.589 -6.9792,-3.0398 -4.9828,2.5893 -9.40575,8.0918 -8.13,10.1144 2.2962,3.6402 10.2538,3.5435 14.0276,-0.1705 z m 14.4802,10.7284 c -3.3276,-1.4528 -8.1689,-5.9146 -8.1689,-7.5285 0,-1.7125 -2.7954,-0.7947 -4.2518,1.396 -1.3031,1.9602 -2.3488,2.2476 -8.1184,2.2309 -5.7171,-0.017 -6.9549,-0.3584 -9.05205,-2.5 -5.4566,-5.5722 -2.4698,-13.5706 6.72675,-18.0139 6.4329,-3.108 14.4739,-2.1131 13.5593,1.6778 -0.6621,2.7447 1.7306,10.9169 4.0042,13.6761 3.6966,4.486 5.0635,5.4028 9.882,6.6276 2.608,0.663 4.25,1.6543 4.25,2.5659 0,1.9006 -4.3239,1.836 -8.8311,-0.1319 z m -50.09045,-1.6325 c -1.0626,-2.3375 -2.232,-6.612 -2.5988,-9.4988 -0.3668,-2.8869 -1.0748,-5.501 -1.5733,-5.8091 -1.498,-0.9258 -1.0203,-4.4421 0.6035,-4.4421 0.8304,0 2.2929,-0.9476 3.25,-2.1059 1.8833,-2.2791 9.3726,-5.9147 12.0731,-5.8608 2.2819,0.045 6.1671,3.4329 6.1671,5.377 0,1.7715 -1.5445,2.1358 -2.5,0.5897 -1.1861,-1.9191 -6.7792,-1.0244 -10.2778,1.6442 -3.3346,2.5433 -3.4441,2.8342 -2.8755,7.6351 0.3251,2.745 1.3347,6.9382 2.2436,9.3181 2.9687,7.7734 -1.1146,10.6265 -4.5119,3.1526 z m -19.6618,-3.0237 c 0.8709,-0.8709 1.5834,-2.5091 1.5834,-3.6405 0,-2.9195 -2.2816,-11.0858 -3.0974,-11.0858 -0.3754,0 -3.207,2.4845 -6.2926,5.5212 -5.643,5.5535 -6.6682,7.9907 -4.36,10.3642 1.6715,1.7188 10.0909,0.9166 12.1666,-1.1591 z m -7.3987,48.5341 c -0.8152,-0.32 -2.0371,-1.072 -2.7153,-1.6711 -1.8768,-1.6578 -3.7173,-2.9788 -5.7905,-4.1562 -3.8149,-2.1664 -5.1181,-13.0644 -1.6986,-14.2042 0.8934,-0.2978 1.1885,0.6724 1.0101,3.3213 -0.2219,3.2943 0.2653,4.2011 4.072,7.5792 7.4459,6.6077 15.7367,7.3187 18.5923,1.5944 1.7233,-3.4543 2.111,-19.5502 0.586,-24.3245 -0.5093,-1.5946 -1.2119,-5.0368 -1.5613,-7.6493 -0.5101,-3.8148 -1.0168,-4.75 -2.5739,-4.75 -1.0663,0 -1.9387,0.45 -1.9387,1 0,0.5641 -2.8333,1 -6.5,1 -3.575,0 -6.5,-0.4196 -6.5,-0.9326 0,-0.5129 -0.7886,-1.1829 -1.7525,-1.4888 -6.8482,-2.1735 -3.4782,-12.3317 6.4705,-19.5039 4.5017,-3.2454 10.848,-4.7675 13.2358,-3.1746 1.2567,0.8384 1.2632,1.3259 0.048,3.5966 -1.0789,2.016 -1.1409,3.051 -0.2663,4.4514 0.6267,1.0035 1.4269,4.6882 1.7782,8.1883 0.3513,3.5 1.0394,7.4886 1.529,8.8636 0.7856,2.2057 1.3873,6.5346 3.4928,25.1274 0.5646,4.9857 -1.5885,13.0686 -4.2948,16.1226 -1.1748,1.3259 -3.028,1.7309 -7.6457,1.6711 -3.3522,-0.043 -6.762,-0.3407 -7.5771,-0.6607 z"
         style="fill:#0055d4"
         id="path3634" />
      <path
         inkscape:connector-curvature="0"
         d="m 402.4658,1083.4773 c -0.8325,-2.1694 3.0992,-5.0864 7.9736,-5.9158 4.4711,-0.7607 15.4759,0.3497 16.2747,1.6422 0.3065,0.4959 1.6698,0.9016 3.0296,0.9016 2.2279,0 4.362,2.3809 3.1872,3.5558 -0.2583,0.2582 -3.8014,-0.1564 -7.8736,-0.9213 -7.8552,-1.4755 -17.0337,-0.9048 -19.1278,1.1893 -1.6177,1.6177 -2.725,1.4733 -3.4637,-0.4518 z m -62.9767,31.0608 c -1.0488,-2.7333 1.5069,-3.8867 9.4464,-4.2629 4.2448,-0.2011 8.1453,-0.7717 8.6678,-1.2678 1.223,-1.1613 6.2649,-1.1724 6.98,-0.015 0.9886,1.5996 -1.9013,2.9899 -8.4687,4.074 -3.5537,0.5867 -8.2613,1.4997 -10.4613,2.0291 -5.3021,1.2758 -5.4666,1.2609 -6.1642,-0.557 z m 78.6642,10.6455 c -3.5103,-0.7127 -8,-3.0427 -8,-4.1517 0,-0.7327 2.9346,-0.4468 5.1448,0.5012 2.8208,1.2098 9.078,0.1913 10.242,-1.6671 1.472,-2.3499 -0.985,-6.4093 -6.0388,-9.9775 -3.2402,-2.2877 -4.9028,-2.722 -10.5266,-2.75 -9.0704,-0.045 -9.9895,-1.0573 -9.4176,-10.3725 0.2417,-3.9384 0.4748,-7.3045 0.5179,-7.4802 0.043,-0.1758 1.0908,-0.1758 2.3283,0 2.1137,0.3001 2.2298,0.7191 1.9168,6.9171 l -0.3333,6.5977 6.8333,0.6359 c 12.0828,1.1245 18.2346,5.5135 19.912,14.2062 1.1126,5.7657 -4.563,9.1682 -12.5788,7.5409 z m -75.6905,0.2858 c -1.1199,-2.9182 1.2274,-4.7655 7.7773,-6.1206 10.6654,-2.2066 17.8175,-2.6327 20.4594,-1.2188 1.312,0.7022 2.1826,1.6051 1.9345,2.0065 -0.248,0.4014 -4.3952,1.0403 -9.2159,1.4199 -9.1657,0.7217 -14.6808,2.075 -17.3435,4.2558 -2.0811,1.7045 -2.8544,1.6311 -3.6118,-0.3428 z m -75.7388,7.9629 c -1.0611,-0.2985 -2.5966,-1.21 -3.4122,-2.0256 -1.2703,-1.2704 -1.2805,-1.6171 -0.071,-2.4193 1.6592,-1.1001 7.2627,-0.275 7.7455,1.1405 0.4216,1.2361 3.6578,1.2636 5.9303,0.05 0.955,-0.5098 2.5239,-1.1707 3.4864,-1.4686 0.9625,-0.2979 1.75,-1.3496 1.75,-2.3371 0,-2.0276 -6.4707,-5.2673 -10.5204,-5.2673 -1.3787,0 -3.2881,-0.4171 -4.2432,-0.927 -0.955,-0.5098 -2.5239,-1.1707 -3.4864,-1.4686 -1.0508,-0.3252 -1.75,-1.5327 -1.75,-3.0221 0,-4.4298 9.5,-9.8184 11.5271,-6.5385 0.8811,1.4257 -1.375,3.9562 -3.5271,3.9562 -0.9653,0 -2.2717,0.6225 -2.9031,1.3833 -1.2946,1.5598 0.3883,2.6055 4.2349,2.6313 3.0898,0.021 10.8526,2.8558 12.9182,4.7179 2.5385,2.2883 2.1831,6.512 -0.7823,9.2979 -2.0268,1.9041 -3.7736,2.4249 -8.75,2.6092 -3.4197,0.1266 -7.0859,-0.014 -8.147,-0.3125 z m -25.5233,-4.3744 c 0.9654,-0.9653 2.0549,-2.6996 2.4213,-3.8539 0.3663,-1.1543 1.1143,-2.0987 1.662,-2.0987 1.8285,0 0.4502,-6.2537 -1.6307,-7.3991 -1.1,-0.6055 -2.2789,-1.4827 -2.6198,-1.9493 -1.2124,-1.6594 -4.379,-0.1494 -4.4952,2.1434 -0.063,1.2476 -0.4252,2.5785 -0.8044,2.9577 -0.8728,0.8728 -2.629,-1.8653 -1.926,-3.0028 0.2874,-0.4651 0.2644,-1.5185 -0.051,-2.3409 -0.4484,-1.1686 -1.0139,-1.2597 -2.5886,-0.4169 -1.1081,0.593 -2.0148,1.6823 -2.0148,2.4206 0,0.7383 -0.675,1.9026 -1.5,2.5873 -0.8448,0.7011 -1.4845,2.8295 -1.4646,4.8724 0.072,7.3906 5.0915,11.8818 10.3608,9.2705 1.5928,-0.7893 3.6859,-2.225 4.6512,-3.1903 z m -12.8835,6.3926 c -4.5883,-2.3084 -6.3947,-5.478 -6.3947,-11.2208 0,-4.8593 3.3214,-12.2948 6.7707,-15.1575 1.7149,-1.4232 9.5047,-1.5128 10.3659,-0.1192 0.3294,0.5328 2.2637,1.2811 4.2985,1.6628 9.4449,1.7719 8.7569,14.6715 -1.2043,22.5771 -4.5711,3.6279 -9.5105,4.4338 -13.8361,2.2576 z m -16.35246,-3.3842 c 2.62916,-2.4494 2.80154,-6.1147 0.47295,-10.0567 -1.66362,-2.8163 -3.43924,-3.4421 -8.96286,-3.159 -3.1018,0.159 -6.37698,3.8216 -7.03315,7.8651 -0.51407,3.1678 -0.29645,3.5603 2.57505,4.6442 1.72511,0.6511 3.13657,1.5352 3.13657,1.9646 0,1.7239 7.66571,0.7409 9.81144,-1.2582 z m -12.06144,4.4012 c -0.9625,-0.2799 -1.75,-0.9258 -1.75,-1.4355 0,-0.5097 -0.635,-0.9267 -1.41111,-0.9267 -0.7761,0 -2.55188,-1.3557 -3.94617,-3.0127 -2.46847,-2.9337 -2.49051,-3.0911 -0.83889,-5.9937 0.93289,-1.6395 2.03367,-2.9838 2.44617,-2.9873 0.4125,0 0.75,-0.6813 0.75,-1.5063 0,-0.825 0.46882,-1.5 1.04181,-1.5 0.573,0 1.99107,-0.8844 3.15128,-1.9653 1.7977,-1.6748 1.91187,-2.2033 0.77249,-3.5762 -1.12108,-1.3508 -1.10514,-1.7576 0.0987,-2.5194 2.0741,-1.3124 2.82429,-1.1719 5.66283,1.0609 1.39842,1.1 3.10351,2 3.78907,2 1.86136,0 7.44862,6.042 9.008,9.7412 1.1463,2.7191 1.15,3.6583 0.023,5.8309 -2.60549,5.022 -5.50713,6.8088 -11.46834,7.062 -3.06826,0.1304 -6.36616,0.01 -7.32866,-0.2719 z m -31.25,-3.3622 c 0.33992,-0.55 1.47102,-1 2.51356,-1 2.20626,0 6.98644,-4.4432 6.98644,-6.4939 0,-2.3562 -4.31271,-6.1529 -7.75,-6.8227 -6.45102,-1.2572 -8.67316,-0.033 -11.62787,6.4037 -2.24618,4.8935 -2.48842,6.1544 -1.41595,7.3702 1.48215,1.6801 10.32813,2.1052 11.29382,0.5427 z m -15.09399,2.4792 c -2.53762,-1.1135 -3.40845,-2.4025 -4.84273,-7.1684 -1.78598,-5.9345 -3.91167,-11.4449 -5.61172,-14.5472 -0.52336,-0.9551 -0.95156,-2.2173 -0.95156,-2.8049 0,-0.5876 -0.91774,-3.083 -2.03943,-5.5453 -2.08884,-4.5852 -1.92537,-6.4134 0.57345,-6.4134 1.43849,0 5.46598,7.6528 5.46598,10.3861 0,0.8227 0.45,1.774 1,2.1139 0.55,0.3399 1,1.311 1,2.1579 0,0.8469 0.63467,2.9579 1.41037,4.691 0.7757,1.7331 1.83904,4.5011 2.36297,6.1511 l 0.95261,3 1.85573,-4.2103 c 1.28494,-2.9153 2.94189,-4.7292 5.38703,-5.8971 1.94221,-0.9278 4.30633,-2.0667 5.2536,-2.5309 0.96256,-0.4717 2.72703,-0.4374 4,0.078 1.25273,0.5071 3.43776,1.1672 4.85563,1.467 7.21313,1.5252 10.45054,10.0342 5.46646,14.3678 -6.61795,5.7543 -18.76428,7.9405 -26.13839,4.7048 z m 152.76829,2.2064 c -1.1959,-1.273 -2.1763,-2.9605 -2.1787,-3.75 -0.01,-1.7036 -4.4974,-14.7708 -5.382,-15.6554 -0.3375,-0.3374 -0.6136,-1.8727 -0.6136,-3.4117 0,-3.4517 -3.0409,-5.4521 -5.9343,-3.9037 -3.1054,1.662 -8.7562,1.2841 -9.4926,-0.6348 -0.927,-2.4158 1.143,-3.2973 7.7839,-3.3147 5.1887,-0.014 5.773,-0.215 5.1214,-1.7653 -0.4046,-0.9625 -0.9631,-2.875 -1.2412,-4.25 -0.2781,-1.375 -0.8496,-2.95 -1.27,-3.5 -0.4204,-0.55 -0.9225,-3.25 -1.1158,-6 -0.3197,-4.5491 -0.1485,-5.0288 1.8986,-5.3195 1.2375,-0.1758 2.2766,0.049 2.309,0.5 0.2344,3.2537 1.089,8.7857 2.2123,14.3195 1.2412,6.1147 1.4946,6.5179 4.2741,6.8018 3.8405,0.3922 9.4546,2.9902 9.4546,4.3752 0,0.6927 -1.6276,0.8997 -4.5158,0.5741 -5.2386,-0.5905 -6.2859,0.3764 -4.0704,3.7577 0.8724,1.3315 1.5862,3.3101 1.5862,4.397 0,1.0869 0.4154,2.2329 0.9231,2.5467 0.5076,0.3137 1.2399,2.013 1.6271,3.7761 0.8153,3.7119 2.3956,6.7869 4.2542,8.2778 1.6979,1.362 0.4873,4.4936 -1.7371,4.4936 -0.9453,0 -2.6971,-1.0415 -3.893,-2.3144 z"
         style="fill:#6f8a91"
         id="path3592" />
      <path
         inkscape:connector-curvature="0"
         d="m 551.1181,1030.5629 c -0.9741,-1.1737 -1.0016,-1.8208 -0.1153,-2.7071 1.4308,-1.4308 4.7823,1.4182 3.7098,3.1535 -0.9357,1.5141 -2.086,1.3712 -3.5945,-0.4464 z m 40.22405,-3.2 c 0.5348,-2.777 5.5156,-4.7133 8.5583,-3.3269 l 2.5205,1.1484 -3.8453,1.9605 c -4.8638,2.4797 -7.6854,2.5648 -7.2335,0.218 z"
         style="fill:#000000"
         id="path3226" />
      <path
         inkscape:connector-curvature="0"
         d="m 486.5885,1065.703 c -0.3316,-1.3212 -0.073,-6.1587 0.5756,-10.75 2.4232,-17.1631 2.4288,-16.5766 -0.1678,-17.368 -1.2887,-0.3927 -6.7167,-5.1002 -12.0623,-10.4611 -7.9334,-7.956 -10.414,-9.8617 -13.5,-10.3718 -6.9173,-1.1432 -7.8886,-0.8377 -10.6617,3.3528 -2.4334,3.677 -2.5712,4.4231 -1.709,9.25 0.5158,2.8877 1.4769,7.1632 2.1357,9.5011 0.9352,3.3184 0.9318,4.5715 -0.016,5.713 -1.0618,1.2794 -1.5146,1.265 -3.6218,-0.1157 -1.3246,-0.8679 -2.4083,-2.0849 -2.4083,-2.7043 0,-1.1408 -6.2443,-10.6926 -9,-13.7674 -0.825,-0.9205 -2.594,-2.8798 -3.9311,-4.354 -1.9103,-2.1063 -2.1442,-2.8577 -1.0921,-3.508 2.1233,-1.3123 5.4822,0.8185 7.584,4.8111 3.5752,6.7915 7.0388,8.4505 4.4142,2.1143 -0.9103,-2.1976 -0.9737,-3.3225 -0.2139,-3.7921 0.5942,-0.3672 1.3798,-1.8608 1.7458,-3.3191 0.7929,-3.1591 5.4189,-7.5208 8.9044,-8.3956 1.4742,-0.37 3.8027,0.026 5.6916,0.9686 2.3037,1.1492 3.5553,1.2972 4.48,0.5297 1.7636,-1.4636 4.7182,0.6322 10.9171,7.7438 6.3081,7.2369 13.5615,14.325 14.6591,14.325 0.4625,0 0.8409,-0.675 0.8409,-1.5 0,-0.825 0.4058,-1.5 0.9018,-1.5 0.496,0 1.2153,-2.7008 1.5984,-6.0018 0.3831,-3.301 1.1023,-6.2525 1.5982,-6.559 0.4959,-0.3065 0.9077,-1.7682 0.9153,-3.2482 0.024,-4.7551 1.1108,-7.191 3.208,-7.191 2.1913,0 2.16,1.6444 -0.2473,13 -0.6413,3.025 -1.352,6.625 -1.5793,8 -0.2274,1.375 -1.1135,6.1 -1.9691,10.5 -1.6748,8.6129 -3.2643,20.3062 -3.3642,24.75 -0.082,3.6245 -3.7353,3.8991 -4.6266,0.3477 z m -303.01503,-6.4209 c -1.07632,-1.0027 -2.77763,-3.8152 -3.78069,-6.25 -1.00306,-2.4347 -2.42853,-5.7768 -3.16772,-7.4268 -0.73919,-1.65 -1.65495,-4.5602 -2.03502,-6.4672 -0.38008,-1.9069 -1.05313,-4.1569 -1.49568,-5 -0.77935,-1.4846 -1.93269,-5.6792 -4.13348,-15.0328 -0.58233,-2.475 -1.41659,-4.7295 -1.8539,-5.01 -0.43731,-0.2805 -1.10457,-1.743 -1.4828,-3.25 -0.60486,-2.41 -0.40193,-2.74 1.68481,-2.74 1.81312,0 2.7818,0.9447 4.10841,4.0069 0.95474,2.2037 1.7359,4.8772 1.7359,5.9409 0,1.0638 0.39741,2.1798 0.88313,2.48 0.48571,0.3002 1.19309,3.0267 1.57195,6.059 0.37886,3.0323 1.0669,5.5132 1.52898,5.5132 0.46208,0 1.1611,1.9125 1.55339,4.25 0.39228,2.3375 1.33183,5.1376 2.08789,6.2225 0.75607,1.0849 1.37466,2.9609 1.37466,4.169 0,3.606 3.59379,9.6522 6.30723,10.6113 1.20174,0.4248 -0.3283,3.7472 -1.72566,3.7472 -0.66244,0 -2.08508,-0.8204 -3.1614,-1.8232 z m 26.07983,-0.8899 c -1.1,-0.2645 -2.4275,-0.8873 -2.95,-1.384 -0.5225,-0.4966 -1.7639,-0.9029 -2.75866,-0.9029 -0.99476,0 -3.67228,-1.35 -5.95004,-3 -2.27776,-1.65 -4.91461,-3 -5.85967,-3 -1.91091,0 -3.25966,-6.3598 -2.33221,-10.9971 0.54111,-2.7055 5.82066,-7.0029 8.60344,-7.0029 0.89601,0 1.90722,-0.45 2.24714,-1 1.63255,-2.6415 12.96935,0.7527 14.06719,4.2117 1.81634,5.7228 -3.07079,10.9621 -10.98804,11.78 -2.70647,0.2796 -5.05629,0.9583 -5.22183,1.5083 -0.408,1.3556 6.79262,4.5763 11.70431,5.2351 2.19292,0.2941 4.22772,0.9241 4.52177,1.3998 0.29405,0.4758 4.1081,0.8651 8.4756,0.8651 7.4179,0 10.0319,0.9837 6.3592,2.393 -1.8135,0.6959 -16.91844,0.6155 -19.9182,-0.1061 z m -3.28989,-16.0696 c 8.14001,-3.438 4.50026,-9.2226 -4.71011,-7.4856 -3.59317,0.6776 -8.39949,5.9367 -7.73787,8.4667 0.38843,1.4854 1.16853,1.6866 4.60279,1.1872 2.27429,-0.3307 5.80463,-1.3064 7.84519,-2.1683 z m 27.62819,13.0327 c -0.8761,-1.5125 -1.9011,-5.3019 -2.2777,-8.421 -0.4793,-3.9692 -1.4163,-6.4603 -3.1227,-8.3015 -1.3408,-1.4468 -2.4379,-3.0308 -2.4379,-3.52 0,-1.8814 2.211,-2.1265 4.063,-0.4505 1.8678,1.6904 1.937,1.662 1.937,-0.7939 0,-3.4244 8.1114,-12.409 11.9678,-13.256 1.6032,-0.3521 3.8621,-0.1333 5.0197,0.4862 3.122,1.6709 11.0125,12.8603 11.0125,15.6167 0,1.3145 0.4345,2.39 0.9656,2.39 0.531,0 1.264,2.25 1.6288,5 0.3648,2.75 1.0007,5 1.4131,5 0.9876,0 2.6828,-4.5455 3.4748,-9.3174 0.6986,-4.2091 3.5103,-9.8468 5.1902,-10.4068 1.7736,-0.5912 7.1362,4.5778 7.7823,7.5012 0.9109,4.1219 7.0855,16.3494 7.8632,15.5717 0.3751,-0.3751 0.682,-3.0555 0.682,-5.9563 0,-2.9009 0.45,-5.5525 1,-5.8924 0.55,-0.3399 1,-1.8515 1,-3.359 0,-3.1688 1.618,-5.141 4.2177,-5.141 1.9795,0 8.7797,6.4514 8.7864,8.3359 0,0.6402 3.0318,4.3095 6.7323,8.1538 5.2721,5.4771 6.3395,7.0646 4.9325,7.3355 -2.9128,0.561 -7.7952,-3.5185 -13.6689,-11.4212 -3.025,-4.0699 -5.7818,-7.4008 -6.1262,-7.4019 -0.3444,0 -0.9028,2.3604 -1.2409,5.2479 -1.6344,13.9561 -2.3202,15.75 -6.0214,15.75 -2.3604,0 -7.8036,-7.4259 -8.9794,-12.25 -0.3686,-1.5125 -1.1116,-2.75 -1.6512,-2.75 -0.5395,0 -0.9839,-0.7875 -0.9875,-1.75 0,-0.9625 -0.8826,-3.079 -1.9534,-4.7033 -2.2581,-3.4257 -2.3934,-3.1913 -4.0136,6.9533 -2.0511,12.843 -2.2561,13.6509 -3.5931,14.164 -2.4642,0.9456 -8.4227,-7.2214 -8.4395,-11.5676 0,-0.878 -0.6783,-2.8853 -1.5,-4.4607 -0.8216,-1.5754 -1.4938,-3.6578 -1.4938,-4.6276 0,-0.9697 -0.675,-2.3234 -1.5,-3.0081 -0.825,-0.6847 -1.5,-2.245 -1.5,-3.4675 0,-2.8475 -2.9635,-5.5325 -6.1062,-5.5325 -5.8576,0 -10.8938,7.6875 -10.8938,16.6288 0,2.8893 0.399,5.4998 0.8866,5.8011 1.2304,0.7604 2.288,6.9515 1.5265,8.9359 -0.9335,2.4328 -2.7802,1.9824 -4.5748,-1.1158 z m 115.7429,-1.1186 c -0.2953,-0.4778 -2.2541,-1.1433 -4.3528,-1.4789 -4.4856,-0.7173 -12.59,-7.9536 -15.682,-14.0021 -2.6566,-5.197 -2.5818,-20.2433 0.1268,-25.4856 3.4594,-6.6955 8.9403,-10.1158 17.471,-10.9027 5.2676,-0.4859 5.8014,-0.3322 8,2.3044 1.2957,1.5539 3.2892,3.8034 4.43,4.999 2.5949,2.7195 5.4258,8.5904 5.4258,11.2523 0,1.1085 0.4374,2.1655 0.9719,2.3489 0.5345,0.1833 1.038,4.2888 1.1188,9.1233 0.1145,6.8472 -0.2109,9.1853 -1.4719,10.5787 -0.8903,0.9838 -1.6188,2.2293 -1.6188,2.7676 0,1.6689 7.8554,4.5424 11.7753,4.3074 2.0486,-0.1228 4.2872,-0.1603 4.9747,-0.083 2.4619,0.2753 1.1843,2.2693 -2.4186,3.7747 -3.33,1.3914 -4.1604,1.3782 -8.9981,-0.1435 -2.9313,-0.922 -5.582,-2.0847 -5.8905,-2.5839 -0.697,-1.1279 -4.4428,-1.206 -4.4428,-0.093 0,0.8425 -6.3697,4.1852 -7.9749,4.1852 -0.4989,0 -1.1487,-0.3908 -1.4439,-0.8686 z m 5.2188,-5.3314 c 1.9194,-1.9194 1.5005,-2.5463 -4.0904,-6.1228 -6.9102,-4.4204 -11.0523,-8.3136 -10.2413,-9.6259 1.18,-1.9093 4.1148,-1.0959 7.0317,1.9487 1.5808,1.65 3.404,3 4.0516,3 0.6476,0 2.6916,1.322 4.5423,2.9379 3.659,3.1947 4.8635,2.6704 4.8908,-2.1289 0.01,-1.48 0.5075,-2.9952 1.1092,-3.367 2.2033,-1.3617 -1.3966,-17.3976 -4.7076,-20.9702 -1.2927,-1.3948 -2.8059,-3.3873 -3.3628,-4.4279 -1.2697,-2.3725 -7.3571,-5.5431 -7.8431,-4.0851 -0.1909,0.5727 -1.0276,1.0412 -1.8594,1.0412 -3.3293,0 -7.4875,3.659 -9.8618,8.6778 -5.739,12.1313 -1.2549,26.9403 10.0408,33.1601 2.6801,1.4758 8.8089,1.4532 10.3,-0.038 z m 31.7,0.2405 c -5.7736,-2.4039 -10.4517,-12.1759 -7.1433,-14.9215 1.2533,-1.0402 1.786,-0.8308 3.1387,1.2336 0.8961,1.3676 1.5068,3.0852 1.3571,3.817 -0.4545,2.222 2.0976,5.8304 4.1237,5.8304 1.0482,0 2.1839,0.45 2.5238,1 0.3399,0.55 1.9358,1 3.5465,1 2.3525,0 3.4624,-0.8357 5.644,-4.25 3.1841,-4.9831 3.4525,-10.2123 0.7791,-15.1766 -0.9811,-1.8217 -1.5022,-4.046 -1.1581,-4.9428 0.7876,-2.0524 3.6885,-2.1474 3.6885,-0.1208 0,0.8304 0.9,2.2804 2,3.2222 1.2449,1.066 2,2.95 2,4.9902 0,1.8028 0.3363,3.2778 0.7473,3.2778 0.4111,0 2.7736,-2.1766 5.25,-4.8368 8.8735,-9.5321 18.0027,-10.8658 18.0027,-2.6301 0,3.3522 -11.5509,11.4669 -16.3227,11.4669 -1.9113,0 -4.0185,2.6388 -3.1847,3.9881 0.3657,0.5916 2.5713,1.9718 4.9015,3.0671 3.9597,1.8613 4.6735,1.8999 10.9212,0.5902 7.4077,-1.5527 8.9976,-0.4429 3.7804,2.639 -6.0703,3.5858 -18.9852,1.4992 -22.6826,-3.6648 -1.5076,-2.1056 -1.5377,-2.0948 -4.5624,1.6304 -2.9356,3.6156 -3.2652,3.7477 -9.1977,3.6866 -3.3841,-0.035 -7.053,-0.4381 -8.153,-0.8961 z m 35.5442,-18.2905 c 4.0519,-2.3137 5.2317,-4.75 2.3002,-4.75 -1.9263,0 -8.3444,4.654 -8.3444,6.0509 0,1.5081 1.8052,1.1196 6.0442,-1.3009 z m -279.00785,-21.2062 c -1.68576,-2.0312 -0.55722,-3.3555 3.50977,-4.1184 1.91179,-0.3587 3.69836,-1.012 3.97017,-1.4517 0.2718,-0.4398 2.40433,-1.1147 4.73895,-1.4997 2.33462,-0.3851 4.79708,-1.1459 5.47213,-1.6907 0.70316,-0.5675 9.67234,-1.05308 21,-1.13698 16.40719,-0.1214 20.14435,0.1172 21.95657,1.40158 1.20116,0.8513 1.87616,1.9763 1.5,2.5 -0.39467,0.5494 -10.10891,0.9876 -22.9679,1.0361 -15.53668,0.058 -22.63702,0.437 -23.45,1.25 -0.64132,0.6413 -2.0952,1.166 -3.23085,1.166 -1.13564,0 -3.74401,0.9 -5.79637,2 -4.45439,2.3874 -5.12711,2.442 -6.70247,0.5438 z"
         style="fill:#2ca05a"
         id="path3554" />
      <path
         inkscape:connector-curvature="0"
         id="path3544"
         d="m 341.6661,982.12602 c -0.9563,-1.5472 1.9842,-6.1807 7.7372,-12.1921 0.9625,-1.0057 1.75,-2.1072 1.75,-2.4478 0,-0.6946 7.0644,-12.6015 7.9389,-13.3808 1.316,-1.1727 7.0882,-13.7738 7.6728,-16.75 0.3511,-1.7875 1.0321,-3.25 1.5133,-3.25 0.4813,0 0.875,-0.4747 0.875,-1.0549 0,-1.0506 3.2608,-8.9765 4.9667,-12.072 0.4931,-0.8948 1.2033,-3.2622 1.5783,-5.261 0.3749,-1.9988 1.0807,-3.8808 1.5684,-4.1822 0.4876,-0.3013 0.8894,-1.3089 0.8928,-2.2389 0,-0.9301 0.6359,-2.8982 1.4057,-4.3736 0.7698,-1.4755 1.7242,-4.1607 2.121,-5.9672 0.3968,-1.8065 1.2267,-4.1993 1.8443,-5.3174 0.6175,-1.118 1.1709,-2.1559 1.2297,-2.3063 0.059,-0.1505 0.8463,0.01 1.75,0.357 1.6941,0.6501 2.3375,4.4165 0.7544,4.4165 -0.4888,0 -1.1806,1.556 -1.5374,3.4578 -0.3568,1.9017 -1.3041,4.7142 -2.1051,6.25 -0.8011,1.5357 -1.4593,3.5531 -1.4626,4.4832 0,0.93 -0.417,1.9449 -0.9192,2.2552 -0.5021,0.3104 -1.2167,2.3619 -1.5879,4.559 -0.3712,2.1972 -1.0496,3.9948 -1.5075,3.9948 -0.458,0 -1.1454,1.4625 -1.5276,3.25 -0.3822,1.7875 -1.041,3.7 -1.464,4.25 -0.423,0.55 -1.0818,2.4625 -1.464,4.25 -0.3822,1.7875 -1.0734,3.25 -1.536,3.25 -0.4626,0 -1.1215,1.2769 -1.4643,2.8376 -0.7578,3.4499 -9.1745,20.4492 -12.2875,24.8168 -1.2365,1.7349 -2.2482,3.5689 -2.2482,4.0757 0,0.5067 -1.1549,2.0062 -2.5664,3.3323 -1.4116,1.3261 -3.7331,4.5545 -5.159,7.1743 -2.4777,4.5525 -5.308,6.1363 -6.7618,3.784 z"
         style="fill:#000000" />
      <path
         inkscape:connector-curvature="0"
         id="path3538"
         d="m 525.1533,970.07392 c 0,-0.5327 -0.6093,-0.9686 -1.354,-0.9686 -1.5466,0 -6.646,-4.4497 -6.646,-5.7992 0,-0.4921 -0.8917,-1.9761 -1.9815,-3.2978 -1.0898,-1.3216 -2.3371,-2.853 -2.7719,-3.403 -0.4348,-0.55 -3.2556,-5.95 -6.2685,-12 -3.013,-6.05 -5.8156,-11.15 -6.2281,-11.3333 -0.4125,-0.1834 -0.75,-0.8091 -0.75,-1.3905 0,-1.4268 -4.3163,-10.1937 -5.2183,-10.599 -0.3951,-0.1775 -1.0077,-1.865 -1.3613,-3.75 -0.3537,-1.8849 -1.0033,-3.4272 -1.4438,-3.4272 -0.4404,0 -1.1049,-1.8 -1.4766,-4 -0.3717,-2.2 -1.0505,-4 -1.5084,-4 -0.458,0 -1.1507,-1.4477 -1.5393,-3.2172 -0.3886,-1.7694 -1.0776,-3.9069 -1.531,-4.75 -3.0795,-5.7256 -4.1373,-9.2168 -3.1053,-10.2488 1.4306,-1.4306 4.184,0.7275 4.184,3.2794 0,1.0002 0.399,2.0652 0.8866,2.3665 0.4877,0.3014 1.1999,2.2175 1.5827,4.258 0.3828,2.0405 1.3338,4.6206 2.1133,5.7335 0.7796,1.113 1.4174,3.0485 1.4174,4.3011 0,1.2526 0.45,2.2775 1,2.2775 0.55,0 1,0.4945 1,1.0989 0,2.4504 15.1172,33.2773 17.1152,34.9011 0.3384,0.275 0.9615,1.625 1.3848,3 0.4233,1.375 1.0464,2.725 1.3848,3 0.9682,0.7869 5.1152,6.8561 5.1152,7.4862 0,1.2333 6.4032,7.5138 7.6607,7.5138 1.8267,0 1.7002,2.6476 -0.1607,3.3616 -0.825,0.3166 -1.5,0.1398 -1.5,-0.393 z"
         style="fill:#000000" />
      <path
         inkscape:connector-curvature="0"
         d="m -291.85365,760.78383 c -0.85618,-1.22237 -1.5567,-2.79737 -1.5567,-3.5 0,-0.70262 -0.45,-1.27749 -1,-1.27749 -0.55,0 -1,-0.675 -1,-1.5 0,-1.92615 -0.15916,-1.90617 -5.02685,0.63101 -5.08434,2.65011 -14.74203,2.90555 -16.5466,0.43766 -1.45304,-1.98716 -0.22239,-9.36025 2.22049,-13.3034 2.56539,-4.14091 7.57021,-9.26527 9.04913,-9.26527 0.71711,0 1.30383,-0.39752 1.30383,-0.88337 0,-1.15372 3.79731,-2.13164 5.59645,-1.44124 2.16605,0.83119 1.68975,1.7097 -1.75321,3.23371 -4.19005,1.85469 -11.84324,9.70593 -11.84324,12.14972 0,1.06765 -0.47989,1.94118 -1.06642,1.94118 -0.58653,0 -0.92403,1.2375 -0.75,2.75 0.28457,2.47319 0.75507,2.78148 4.67426,3.06277 2.57507,0.18481 5.76415,-0.35457 7.79544,-1.31848 l 3.43759,-1.63125 -0.23452,-7.90909 c -0.24541,-8.27595 0.12419,-9.55913 2.49168,-8.65064 0.96041,0.36855 1.67594,2.95664 2.1657,7.83336 0.40227,4.00564 1.09339,7.97606 1.53584,8.82315 0.44244,0.8471 1.05941,2.21518 1.37104,3.04018 0.31164,0.825 1.70104,3.1875 3.08756,5.25 l 2.52095,3.75 -2.45786,0 c -1.40626,0 -3.12389,-0.9509 -4.01456,-2.22251 z m -60.44912,2.06683 c -6.20131,-1.78286 -12.10758,-9.28393 -12.10758,-15.37684 0,-5.72239 -0.54532,-6.21495 -6.29886,-5.68951 -2.86063,0.26125 -5.65114,0.80603 -6.20114,1.21063 -0.55,0.40459 -2.2375,1.03125 -3.75,1.39256 -2.31727,0.55357 -2.75,0.33534 -2.75,-1.38686 0,-2.53276 2.48104,-3.5169 11.17811,-4.43394 l 6.6781,-0.70415 0.58154,-6.1781 c 0.31985,-3.39796 0.6897,-8.20311 0.8219,-10.67811 0.17233,-3.22651 0.66485,-4.5 1.74035,-4.5 1.94996,0 2.63725,12.54734 0.91503,16.70513 -0.65133,1.57245 -0.97351,3.06973 -0.71595,3.32728 0.25755,0.25755 6.39312,0.49793 13.6346,0.53417 7.24148,0.0362 13.16632,0.39608 13.16632,0.79965 0,2.47504 -3.09002,3.13377 -14.7,3.13377 -11.18874,0 -14.24944,0.67715 -11.3,2.5 0.55,0.33992 1,2.19267 1,4.11723 0,2.74942 0.91899,4.47184 4.28898,8.0386 4.08688,4.32552 4.5462,4.53743 9.74783,4.49714 4.14589,-0.0321 6.96261,-0.82135 11.71102,-3.28136 3.43869,-1.78149 6.25217,-3.6064 6.25217,-4.05534 0,-0.44895 0.9,-0.81627 2,-0.81627 1.1,0 2,0.25962 2,0.57692 0,1.39209 -5.98322,6.38076 -8.37187,6.98028 -1.44547,0.36279 -2.62813,1.00741 -2.62813,1.43249 0,0.94944 -8.02786,3.04384 -11.19282,2.92012 -1.26895,-0.0496 -3.83377,-0.52908 -5.6996,-1.06549 z m 88.69242,-13.04432 c 1.73134,-1.73134 1.47939,-4.80833 -0.73148,-8.93333 -1.43727,-2.68164 -1.64196,-3.89323 -0.8,-4.73519 0.84197,-0.84197 0.76047,-1.12756 -0.31852,-1.11617 -1.96323,0.0207 -3.0527,0.91797 -5.7,4.6942 -2.13164,3.04067 -3.0441,9.16306 -1.58333,10.62382 1.12962,1.12962 7.8636,0.7364 9.13333,-0.53333 z m -5.57714,49.25637 c -2.07409,-1.89439 -3.22286,-3.88513 -3.22286,-5.58499 l 0,-2.64135 4.64079,4.08498 c 2.55243,2.24675 5.58993,4.06881 6.75,4.04903 5.67036,-0.0967 10.50098,-9.60518 9.25343,-18.21427 -1.08915,-7.51594 -3.12241,-16.56759 -3.89422,-17.33621 -0.4125,-0.41079 -0.75,-1.76475 -0.75,-3.0088 0,-1.24405 -0.675,-2.9369 -1.5,-3.7619 -0.825,-0.825 -1.5,-2.43215 -1.5,-3.57143 0,-2.449 -3.46684,-2.9032 -4.36163,-0.57143 -0.92164,2.40176 -9.74607,2.02302 -11.91613,-0.51143 -2.2191,-2.59172 -2.20562,-8.30906 0.0278,-11.77375 3.10943,-4.82373 8.58,-9.20497 11.5,-9.21004 1.5125,-0.003 2.79933,0.33272 2.85963,0.74522 0.0603,0.4125 0.23461,2.25182 0.38737,4.08738 0.15277,1.83555 0.77843,3.83805 1.39038,4.45 0.61194,0.61194 1.11262,2.06161 1.11262,3.22149 0,1.15988 0.66069,2.98238 1.4682,4.05 0.8075,1.06762 1.4825,2.8535 1.5,3.96862 0.0175,1.11513 0.64931,2.91513 1.40405,4 1.4712,2.11474 2.92422,7.50987 5.24437,19.47251 1.98441,10.23161 0.61183,18.70332 -3.81924,23.57274 -2.77551,3.05008 -3.68182,3.42726 -8.2352,3.42726 -4.26661,0 -5.65178,-0.48894 -8.33932,-2.94363 z"
         style="fill:#ff2a2a"
         id="path3516" />
      <path
         inkscape:connector-curvature="0"
         d="m 489.2371,820.96661 c -0.6847,-0.825 -1.7648,-1.5 -2.4002,-1.5 -2.1264,0 -7.5998,-7.78626 -7.5998,-10.81118 0,-2.58099 2.5475,-7.46897 5.0956,-9.77711 2.7885,-2.52587 17.4044,-2.87162 17.4044,-0.41171 0,1.19912 -1.1534,1.43132 -5.75,1.1576 -3.6999,-0.22032 -5.75,0.0471 -5.75,0.75 0,0.60082 -0.6423,1.0924 -1.4274,1.0924 -2.6684,0 -5.5422,4.8785 -4.9083,8.33218 1.5254,8.3099 12.6492,11.69092 23.597,7.17214 1.3519,-0.55797 1.6176,-0.35235 1.1431,0.88434 -0.3401,0.88624 -1.1901,1.61134 -1.8889,1.61134 -0.6989,0 -1.8308,0.675 -2.5155,1.5 -0.8638,1.04078 -3.1599,1.5 -7.5,1.5 -4.3401,0 -6.6362,-0.45922 -7.5,-1.5 z m -18.8,2.3 c -0.66,-0.66 -1.2,-1.785 -1.2,-2.5 0,-0.715 -0.4142,-1.3 -0.9205,-1.3 -0.5063,0 -1.2238,-1.38031 -1.5943,-3.06736 -0.3705,-1.68705 -1.3035,-4.27455 -2.0733,-5.75 -0.7698,-1.47545 -1.4024,-4.34358 -1.4057,-6.37362 0,-2.03004 -0.4119,-3.94174 -0.9078,-4.24821 -0.4959,-0.30647 -1.1979,-3.37053 -1.56,-6.80902 -0.3621,-3.43848 -1.0801,-7.37679 -1.5956,-8.75179 -0.5156,-1.375 -1.3689,-6.55 -1.8962,-11.5 -0.5274,-4.95 -1.0911,-10.11096 -1.2527,-11.46879 -0.1952,-1.63942 0.2534,-2.58007 1.3351,-2.80003 2.0633,-0.41952 2.8013,2.40719 2.972,11.38323 0.072,3.78707 0.4816,7.33559 0.9102,7.88559 0.4285,0.55 1.259,4.15 1.8454,8 2.9036,19.06214 5.1832,27.78872 8.7875,33.64014 2.6282,4.26659 1.6476,6.75158 -1.4441,3.65986 z m 50.8577,3.74259 c -3.5058,-2.58648 -4.1105,-3.43965 -7.9436,-11.20753 -3.7107,-7.5196 -3.88,-8.09411 -6.1399,-20.83506 -1.1707,-6.6 -2.527,-13.35 -3.014,-15 -0.487,-1.65 -1.1929,-7.82646 -1.5685,-13.72548 -0.6151,-9.6585 -0.5093,-10.79215 1.0635,-11.39571 2.2886,-0.87821 3.7061,1.45125 2.3851,3.91954 -0.561,1.04836 -0.7255,2.87261 -0.3654,4.05388 0.36,1.18127 1.2784,6.64777 2.0408,12.14777 2.0628,14.88203 3.4677,22.7631 4.4564,25 0.4862,1.1 1.1598,3.8 1.4969,6 0.5721,3.73319 1.1866,5.42936 4.67,12.89073 0.7423,1.58989 3.2501,4.3419 5.573,6.11557 3.9359,3.00525 4.5373,4.4937 1.8156,4.4937 -0.6265,0 -2.6379,-1.10583 -4.4699,-2.45741 z m -91.0846,3.70741 c -0.015,-0.4125 -1.8128,-1.85169 -3.9955,-3.1982 -2.1828,-1.3465 -4.2563,-3.3715 -4.6079,-4.5 -0.3516,-1.12849 -1.0932,-2.3433 -1.6481,-2.69958 -1.5571,-0.99981 -2.1727,-15.14074 -0.7731,-17.75608 0.9558,-1.78591 1.4734,-1.99091 2.6212,-1.03826 1.6384,1.35973 1.9203,3.94212 0.4303,3.94212 -1.6567,0 -1.1247,9.38702 0.75,13.23319 2.4033,4.93067 6.5673,7.93553 11.8165,8.5272 5.2529,0.59207 6.7787,-0.43267 9.483,-6.36905 3.5525,-7.79822 1.7194,-16.64266 -4.1705,-20.12191 -3.4362,-2.02981 -3.7682,-4.27548 -0.629,-4.25412 2.8131,0.0192 3.7951,0.72187 6.267,4.48469 3.5981,5.47714 5.7612,15.59198 3.6178,16.9167 -0.4759,0.2941 -1.1203,2.10667 -1.4321,4.02793 -0.6359,3.91839 -2.8553,6.56623 -6.9998,8.35091 -3.0745,1.32396 -10.6871,1.64639 -10.7298,0.45446 z m -123.9731,-0.5318 c -3.7342,-3.03268 -4.2049,-4.42137 -2.5699,-7.58295 2.5211,-4.87536 3.8933,-5.00878 3.0979,-0.30125 -0.6471,3.83036 -0.5239,4.12894 1.9617,4.75276 3.5343,0.88707 10.2499,-0.10474 14.252,-2.10485 3.0697,-1.53416 6.2583,-4.96702 6.2583,-6.73775 0,-1.01678 -5.8578,-6.74331 -8.9446,-8.74416 -3.8037,-2.4655 -9.2628,-7.84588 -10.6252,-10.47191 -1.8807,-3.62501 -0.01,-6.63263 5.8156,-9.34945 4.9614,-2.31383 9.8008,-2.59205 10.453,-0.60095 0.3981,1.21541 -3.8533,3.42231 -6.5928,3.42231 -2.5021,0 -6.457,3.64287 -5.8036,5.34562 0.2966,0.77304 4.1205,4.49901 8.4975,8.27995 9.4061,8.12513 12.2837,12.97794 10.1098,17.04931 -0.7753,1.4521 -2.1972,2.84678 -3.1597,3.09929 -0.9625,0.2525 -1.75,0.82085 -1.75,1.26301 0,0.44215 -1.3448,1.09929 -2.9885,1.4603 -1.6437,0.36102 -3.2453,1.07177 -3.559,1.57946 -0.8391,1.35766 -12.7016,1.0632 -14.4525,-0.35874 z m 69.6602,-0.11404 c -0.8634,-1.31771 -1.8772,-3.68021 -2.2529,-5.25 -0.3757,-1.56979 -1.0574,-3.3338 -1.5148,-3.92002 -0.4575,-0.58622 -1.1432,-3.73622 -1.5238,-7 -0.6832,-5.85744 -2.8081,-12.43414 -4.0174,-12.43414 -1.2753,0 -5.3564,5.17228 -5.9513,7.54246 -0.3393,1.35165 -0.9816,2.45754 -1.4274,2.45754 -0.8728,0 -2.6621,6.59025 -3.8652,14.23553 -0.4098,2.60454 -1.0322,5.02263 -1.3831,5.37354 -1.5558,1.55575 -3.529,-0.82078 -4.1566,-5.00623 -0.3758,-2.50592 -1.0719,-4.79645 -1.547,-5.09005 -0.4751,-0.29361 -1.1787,-3.5666 -1.5637,-7.27331 -0.3849,-3.70671 -1.0774,-7.21407 -1.5388,-7.79412 -0.4613,-0.58005 -1.1424,-4.85505 -1.5134,-9.5 -0.371,-4.64495 -1.0119,-8.89536 -1.4242,-9.44536 -0.4123,-0.55 -1.0838,-2.56023 -1.4923,-4.46718 -0.4084,-1.90694 -1.2064,-4.20983 -1.7733,-5.11753 -1.3798,-2.20937 -0.2184,-5.0457 1.7558,-4.28813 0.8505,0.32639 1.8026,1.78131 2.1156,3.23314 0.3131,1.45184 0.9723,3.5397 1.4649,4.6397 0.4927,1.1 1.3749,5.15 1.9604,9 0.5855,3.85 1.5398,10.15 2.1207,14 0.5808,3.85 1.4637,7.4275 1.9618,7.95 0.4982,0.5225 0.9058,2.46156 0.9058,4.30902 0,1.9847 0.4091,3.10615 1,2.74098 0.55,-0.33992 1,-1.29434 1,-2.12094 0,-2.72588 5.2135,-12.81932 8.3311,-16.12906 4.2929,-4.55756 6.8082,-4.26353 9.4916,1.10953 1.1975,2.39774 2.1773,5.97119 2.1773,7.94098 0,1.9698 0.3981,3.82748 0.8846,4.12818 0.4865,0.30069 1.1995,2.64627 1.5843,5.21238 0.3848,2.56612 1.7867,6.38771 3.1154,8.49242 2.9072,4.60543 2.9357,4.86651 0.5307,4.86651 -1.0367,0 -2.5914,-1.07813 -3.4548,-2.39584 z m 20.8398,3.39584 c -0.3399,-0.55 -1.6933,-1 -3.0075,-1 -3.0432,0 -6.6682,-3.35701 -9.5078,-8.80483 -2.8315,-5.43237 -2.4497,-13.29468 0.8633,-17.77568 5.0777,-6.86801 14.152,-8.44501 14.152,-2.45945 0,1.60706 -0.45,3.20004 -1,3.53996 -0.55,0.33992 -1,-0.0835 -1,-0.94098 0,-2.54221 -4.5742,-2.35728 -7.0536,0.28518 -1.9081,2.03356 -4.9464,8.008 -4.9464,9.72653 0,2.99389 3.9933,10.19489 6.6012,11.90363 4.367,2.86138 10.3786,2.45006 14.2204,-0.97299 2.7424,-2.4435 3.1784,-3.49514 3.1784,-7.66667 0,-2.65908 -0.45,-4.8347 -1,-4.8347 -0.55,0 -1,-0.60526 -1,-1.34501 0,-0.73976 -0.9,-2.1595 -2,-3.15499 -1.1,-0.99549 -2,-2.37773 -2,-3.07165 0,-0.69393 -0.5625,-1.47179 -1.25,-1.72859 -0.8146,-0.30428 -0.5821,-0.74129 0.6676,-1.25465 1.4999,-0.61611 2.6462,0.0666 5.2615,3.13358 1.8391,2.15672 3.6257,5.04631 3.9702,6.42131 0.3446,1.375 0.9944,2.972 1.4441,3.5489 1.8367,2.35614 -0.5211,9.79424 -4.0309,12.71593 -1.8567,1.54562 -9.3289,4.68008 -11.2535,4.72062 -0.38,0.008 -0.9691,-0.43545 -1.309,-0.98545 z"
         style="fill:#000000"
         id="path3508" />
      <path
         inkscape:connector-curvature="0"
         d="m 6.9646697,736.02142 c -2.22408,-0.89815 -2.39406,-1.45048 -4.775,-15.51508 -1.14443,-6.76034 -1.142,-8.2258 0.0157,-9.45714 0.85687,-0.91138 1.69692,-1.09865 2.24285,-0.5 1.29391,1.41886 3.33475,15.78979 2.5374,17.86764 -0.52928,1.37928 -0.26092,1.71014 1.16446,1.43564 1.22047,-0.23504 2.1171003,-1.63149 2.6287703,-4.09415 1.44408,-6.95043 8.94114,-16.75199 12.81333,-16.75199 0.9303,0 2.5539,0.7875 3.60801,1.75 1.89725,1.73236 9.38946,13.45642 9.38946,14.69293 0,0.66138 1.32074,2.39068 4.0899,5.35508 4.62455,4.95061 2.07136,7.13294 -2.86868,2.45199 -3.35224,-3.17643 -12.22122,-16.27659 -12.22122,-18.05168 0,-0.65908 -1.01987,-1.19832 -2.26637,-1.19832 -2.86727,0 -8.73363,9.34992 -8.73363,13.91984 0,3.10252 -1.60936,6.92581 -3.5,8.31485 -1.2045503,0.88496 -1.4179103,0.87361 -4.1249803,-0.21961 z M -10.8648,735.31793 c 2.0591897,-2.05918 1.4063097,-10.60231 -1.01468,-13.27748 -0.84198,-0.93037 -1.53087,-2.21866 -1.53087,-2.86285 0,-2.26733 -2.95893,-1.13022 -6.95789,2.6739 -3.19097,3.0355 -4.04211,4.56796 -4.04211,7.27776 0,3.30403 1.82663,5.86661 5.10935,7.16792 2.82806,1.12107 6.79653,0.66043 8.4362,-0.97925 z m -13.1285,2.97273 c -5.60694,-3.51667 -6.95412,-7.31125 -4.38416,-12.34879 2.22409,-4.35957 8.61061,-10.93553 10.62051,-10.93553 0.74063,0 1.3466,-0.45 1.3466,-1 0,-1.70403 3.52252,-1.10105 5.56144,0.95199 3.5638897,3.58859 4.1362997,4.61954 5.3287597,9.59755 1.66436,6.948 0.40194,12.32116 -3.42168,14.56345 -4.3245897,2.53608 -10.2027297,2.21245 -15.0514697,-0.82867 z m -10.66637,4.02649 c -0.96212,-0.25146 -2.04391,-1.66176 -2.40397,-3.134 -0.36006,-1.47225 -1.07107,-2.95043 -1.58002,-3.28486 -0.50896,-0.33443 -1.37664,-3.70943 -1.92818,-7.5 -2.255,-15.49776 -2.22955,-15.45754 -6.53993,-10.33494 -3.33392,3.96213 -6.11993,9.47376 -6.90553,13.66137 -0.75908,4.04624 -4.20632,6.92501 -6.02117,5.02823 -0.65602,-0.68563 -1.6683,-4.17161 -2.2495,-7.74661 -0.5812,-3.575 -1.77321,-10.1 -2.6489,-14.5 -0.87569,-4.4 -2.00325,-10.25 -2.50568,-13 -0.50243,-2.75 -1.44355,-5.99716 -2.09139,-7.21591 -0.9195,-1.72982 -0.89635,-2.55514 0.10553,-3.76233 1.63975,-1.97578 4.01806,-0.25884 4.01806,2.90068 0,1.19766 0.4472,2.62476 0.99378,3.17134 0.54658,0.54658 1.28336,3.89908 1.6373,7.45 0.35394,3.55092 0.98485,6.90622 1.40203,7.45622 1.15025,1.51646 3.04629,15.12952 2.35732,16.92493 -0.33242,0.86629 -0.11677,1.57507 0.47924,1.57507 1.09087,0 5.13033,-7.44481 5.13033,-9.4553 0,-0.59381 2.04068,-3.20928 4.53485,-5.81217 4.54096,-4.73891 7.39709,-5.82448 9.16258,-3.48253 1.51056,2.00378 3.16372,8.77801 3.6953,15.14245 0.27069,3.24085 0.96807,6.36835 1.54972,6.95 0.58165,0.58165 1.05755,1.71962 1.05755,2.52881 0,0.80919 0.71908,2.26584 1.59796,3.23699 0.87888,0.97115 1.30232,2.24408 0.94098,2.82874 -0.68355,1.106 -0.90364,1.12772 -3.78826,0.37382 z m -45.92253,6.62662 c -0.91952,-0.52214 -1.98494,-2.40916 -2.3676,-4.19339 -0.38266,-1.78422 -0.98033,-3.69404 -1.32815,-4.24404 -0.34782,-0.55 -1.0824,-3.7 -1.6324,-7 -0.93103,-5.58619 -1.19806,-6.02263 -3.87182,-6.32818 -1.5795,-0.1805 -3.357,0.157 -3.95,0.75 -1.5046,1.5046 -4.21244,1.34429 -5.60341,-0.33172 -1.5307,-1.84438 1.934,-4.39923 7.09117,-5.229 l 3.66595,-0.58983 -0.55145,-5.63564 c -0.3033,-3.0996 -0.91794,-6.10459 -1.36588,-6.67777 -0.44794,-0.57318 -0.94947,-3.49818 -1.1145,-6.5 -0.26928,-4.89792 -0.0844,-5.48865 1.80168,-5.75798 1.92038,-0.27423 2.16012,0.32793 2.77819,6.97819 0.37205,4.00307 1.11376,7.71562 1.64826,8.25012 0.5345,0.5345 0.97181,2.03639 0.97181,3.33755 0,4.35615 1.75807,6.23426 5.83582,6.23426 4.27245,0 9.31217,2.00065 8.81663,3.5 -0.18177,0.55 -3.21544,1 -6.74147,1 -5.21064,0 -6.33572,0.28085 -6.00901,1.5 0.22108,0.825 0.89694,3.975 1.5019,7 0.60496,3.025 1.89565,7.04985 2.86821,8.9441 1.42815,2.78161 1.52396,3.68441 0.49811,4.69338 -0.86028,0.84613 -1.80972,0.94292 -2.94204,0.29995 z m -32.40321,18.97963 c -3.50563,-3.87368 -2.63873,-18.21873 1.57483,-26.05925 1.11104,-2.06741 0.33706,-2.85781 -2.7984,-2.85781 -3.44176,0 -8.86512,-3.50417 -14.45076,-9.33698 -3.70653,-3.87056 -4.50306,-5.25638 -3.62755,-6.31129 1.74402,-2.10143 2.83443,-1.66071 6.644,2.68533 4.27525,4.87731 9.96151,9.45585 12.86617,10.35975 1.76414,0.54898 2.49946,-0.0388 4.25,-3.39728 1.16422,-2.23361 2.11677,-4.70643 2.11677,-5.49514 0,-0.78871 0.90668,-1.91926 2.01484,-2.51233 3.00699,-1.60929 3.50787,0.94108 1.20985,6.16024 -1.05287,2.39124 -2.67382,7.0477 -3.60212,10.3477 -0.9283,3.3 -2.197,7.575 -2.81933,9.5 -1.3649,4.22188 -1.22913,14.78191 0.21238,16.51882 1.79779,2.1662 -1.64512,2.54806 -3.59068,0.39824 z m -27.66137,-23.84406 c 0.95504,-0.50985 2.53414,-1.17465 3.50911,-1.47732 2.15953,-0.67041 3.42063,-3.54916 1.95232,-4.45662 -0.58654,-0.3625 -1.36953,-1.86674 -1.73998,-3.34274 -0.79358,-3.16185 -6.72495,-9.55684 -10.02918,-10.81311 -1.27341,-0.48415 -3.92192,-0.61956 -5.88557,-0.3009 -3.89855,0.63265 -4.57445,2.43294 -2.19451,5.84518 0.75668,1.08488 1.70706,4.44751 2.11198,7.47251 0.40491,3.025 1.19092,6.0625 1.74668,6.75 1.1796,1.45922 8.00841,1.66871 10.52915,0.323 z m -9.48214,25.71989 c -0.56905,-0.71109 -1.35854,-3.99289 -1.75441,-7.29289 -0.39587,-3.3 -1.07174,-6.45 -1.50194,-7 -0.43019,-0.55 -1.10609,-4.15 -1.502,-8 -0.39591,-3.85 -1.06689,-7.45 -1.49107,-8 -0.42417,-0.55 -1.06708,-2.64373 -1.42868,-4.65272 -0.41766,-2.32047 -1.57226,-4.25213 -3.16563,-5.29614 l -2.50818,-1.64342 2.10164,-2.95147 c 1.15589,-1.62331 3.19675,-3.22633 4.53523,-3.56227 1.33849,-0.33594 2.43361,-1.01201 2.43361,-1.50239 0,-1.16126 6.71398,-1.1634 7.43153,-0.002 0.30227,0.48907 1.71003,1.18048 3.12836,1.53646 3.38501,0.84958 7.39772,5.07666 10.19011,10.73451 4.25634,8.62405 2.25485,13.3574 -6.75,15.96315 -2.475,0.71619 -5.5125,1.1894 -6.75,1.05157 -1.95801,-0.21809 -2.25,0.21027 -2.25,3.30081 0,1.95328 0.42694,4.33281 0.94876,5.28785 0.78712,1.4406 2.18994,9.20503 2.16399,11.97744 -0.0126,1.3474 -2.76474,1.38466 -3.83132,0.0519 z"
         style="fill:#0055d4"
         id="path3484" />
      <path
         inkscape:connector-curvature="0"
         d="m -220.41035,734.75762 c 0,-2.96808 2.93188,-3.88648 14.18189,-4.44246 8.51657,-0.42089 11.05163,-0.27424 10.24153,0.59249 -0.59211,0.63351 -3.51711,1.42673 -6.5,1.7627 -2.98288,0.33598 -5.88467,0.97009 -6.44842,1.40914 -0.56375,0.43905 -3.37625,1.11017 -6.25,1.49139 -4.29437,0.56967 -5.225,0.42482 -5.225,-0.81326 z m -0.81955,15.99872 c 0.24918,-1.75455 1.20035,-2.40717 4.31955,-2.96378 2.2,-0.39258 7.375,-1.45395 11.5,-2.3586 10.13904,-2.22359 15.5,-2.37149 15.5,-0.42762 0,1.07453 -1.70187,1.7352 -6,2.32921 -3.3,0.45606 -6.82186,1.26883 -7.82635,1.80615 -1.0045,0.53733 -4.042,1.23937 -6.75,1.56009 -2.70801,0.32072 -4.92365,0.97045 -4.92365,1.44384 0,0.47339 -1.3813,0.86071 -3.06955,0.86071 -2.61125,0 -3.02184,-0.33594 -2.75,-2.25 z"
         style="fill:#000000"
         id="path3482" />
      <path
         inkscape:connector-curvature="0"
         d="m 302.08965,612.00634 c 0.3399,-0.55 0.1415,-1 -0.441,-1 -0.5824,0 -1.059,0.45 -1.059,1 0,0.55 0.1984,1 0.441,1 0.2425,0 0.7191,-0.45 1.059,-1 z m 40.5,3 c 0,-0.55 -0.675,-1 -1.5,-1 -0.825,0 -1.5,0.45 -1.5,1 0,0.55 0.675,1 1.5,1 0.825,0 1.5,-0.45 1.5,-1 z m -37.1095,20.75002 c 2.5352,-1.2375 5.2041,-2.8125 5.9309,-3.5 0.7268,-0.6875 1.6268,-1.26414 2,-1.28142 0.3732,-0.0173 1.5078,-1.16968 2.5212,-2.56088 1.8154,-2.4921 1.8041,-2.58761 -0.7642,-6.46857 -1.4337,-2.16652 -3.0769,-3.93913 -3.6516,-3.93913 -0.5747,0 -0.823,0.35899 -0.5518,0.79775 0.2712,0.43876 0.1392,1.37023 -0.2932,2.06994 -0.5732,0.92744 -1.4863,0.44024 -3.3695,-1.79774 -2.0916,-2.48571 -3.3455,-3.06995 -6.5887,-3.06995 -2.2031,0 -4.2478,0.39188 -4.5438,0.87084 -0.296,0.47896 -1.9397,1.15115 -3.6527,1.49375 -1.713,0.3426 -4.6474,2.15572 -6.5208,4.02916 -4.4887,4.48866 -4.8226,10.34701 -0.7714,13.53367 3.7912,2.98218 13.9651,2.89307 20.2556,-0.17742 z m 41.541,3.36078 c 0.3023,-0.48907 1.7172,-1.18227 3.1443,-1.54044 4.0673,-1.02083 6.7372,-4.00872 5.9103,-6.61414 -1.647,-5.18909 -9.1069,-10.83545 -16.4451,-12.4472 -2.1615,-0.47475 -3.1215,-0.18761 -3.8752,1.15915 -0.9504,1.69825 -1.1,1.70139 -2.9126,0.061 -2.5005,-2.26294 -2.5838,-2.24477 -6.1763,1.34773 -2.4577,2.45773 -3.0769,3.92095 -3.0769,7.27103 0,4.13328 0.1623,4.40193 6.2604,10.36401 1.4461,1.4139 16.3301,1.75959 17.1711,0.39882 z m -15.1073,4.02251 c -5.0581,-0.7671 -11.0177,-5.46134 -11.8721,-9.35138 -0.7473,-3.40235 -1.2998,-3.43499 -4.3163,-0.25502 -1.3003,1.37079 -3.4378,2.76179 -4.75,3.09113 -1.3122,0.32934 -2.3858,0.91341 -2.3858,1.29794 0,1.1057 -7.0901,3.92831 -11.7025,4.65885 -6.2007,0.98209 -10.3426,-0.16467 -14.5475,-4.0277 -3.1251,-2.87101 -3.75,-4.10674 -3.75,-7.41509 0,-5.81971 5.0008,-13.99174 8.6276,-14.09875 0.6201,-0.0183 1.6427,-0.65404 2.2724,-1.41276 0.6297,-0.75871 2.4848,-1.64746 4.1224,-1.975 2.3183,-0.46366 2.9776,-1.13089 2.9776,-3.01352 0,-4.58996 5.9398,-4.90698 11.8413,-0.63199 2.2778,1.65 4.4713,3 4.8746,3 0.9522,0 7.2841,7.11218 7.2841,8.18165 0,1.74703 1.5774,0.66966 3.2035,-2.18797 0.9369,-1.64653 2.3994,-2.99368 3.25,-2.99368 0.8506,0 1.5465,-0.45 1.5465,-1 0,-0.55 0.5625,-1.01527 1.25,-1.03393 0.6875,-0.0187 3.05,-0.90339 5.25,-1.96607 2.2,-1.06268 4.9124,-1.94741 6.0275,-1.96607 2.8966,-0.0485 6.2816,2.60476 6.6541,5.2155 0.1751,1.22751 1.4434,2.76971 2.8184,3.42711 8.5598,4.09253 12.6104,12.91597 8.1223,17.69326 -5.0713,5.39816 -16.6055,8.30925 -26.7981,6.76349 z m 50.804,1.60197 c -2.0352,-1.05999 -4.3017,-4.46119 -7.1754,-10.76808 -0.3842,-0.84306 -1.0327,-3.09306 -1.4411,-5 -0.4085,-1.90695 -1.0986,-3.91718 -1.5336,-4.46718 -0.435,-0.55 -1.1148,-3.25 -1.5107,-6 -0.3958,-2.75 -1.0625,-5.45 -1.4816,-6 -0.419,-0.55 -1.0794,-3.362 -1.4675,-6.24888 -0.3881,-2.88689 -1.1135,-5.50095 -1.612,-5.80902 -0.4985,-0.30807 -0.9063,-2.07643 -0.9063,-3.92969 0,-1.85325 -0.7032,-4.0727 -1.5626,-4.93211 -1.4998,-1.49984 -2.3085,-9.04257 -1.0991,-10.25196 1.2089,-1.20885 3.6633,0.7099 3.6971,2.89028 0.02,1.25476 0.6786,3.40638 1.4646,4.78138 0.786,1.375 1.4451,3.93594 1.4646,5.69098 0.019,1.75504 0.4432,3.44305 0.9417,3.75112 0.4985,0.30807 1.2249,2.92213 1.6143,5.80902 0.3895,2.88688 0.9911,5.69888 1.3371,6.24888 0.6751,1.07327 2.6038,7.50755 4.1967,14 1.0696,4.35974 1.4792,5.43316 5.0498,13.23445 1.3177,2.87895 2.9583,5.24145 3.6458,5.25 0.6875,0.009 1.25,0.69055 1.25,1.51555 0,1.81347 -1.6853,1.89485 -4.8718,0.23526 z m -136.6983,-5.6219 c 0.3014,-0.48765 2.0952,-1.17689 3.9863,-1.53166 1.891,-0.35476 3.5835,-0.96827 3.761,-1.36336 0.1775,-0.39509 2.0442,-1.59496 4.1481,-2.66638 5.2815,-2.68956 7.0704,-4.42858 9.2014,-8.94494 l 1.8369,-3.89297 -3.1976,-2.85703 c -1.7586,-1.57138 -4.2889,-2.85704 -5.6228,-2.85704 -1.3338,0 -2.7033,-0.45 -3.0432,-1 -0.3399,-0.55 -4.1649,-1 -8.5,-1 -4.3351,0 -8.1601,0.45 -8.5,1 -0.3399,0.55 -1.7165,1 -3.059,1 -1.7496,0 -2.441,0.54978 -2.441,1.94098 0,1.06754 0.4119,2.19555 0.9153,2.50668 0.5034,0.31113 1.2319,3.94418 1.6188,8.07344 0.387,4.12927 1.1001,7.75282 1.5847,8.05235 0.4847,0.29952 0.8812,1.41803 0.8812,2.48557 0,1.48132 0.6965,1.94098 2.941,1.94098 1.6175,0 3.1876,-0.39899 3.4889,-0.88664 z m -8.7281,6.25511 c -0.386,-0.38599 -0.7046,-1.4143 -0.708,-2.28514 0,-0.87083 -0.6075,-2.73567 -1.3425,-4.14409 -0.735,-1.40841 -1.6525,-5.64673 -2.0389,-9.41848 -0.3865,-3.77175 -1.0198,-7.34441 -1.4075,-7.93924 -0.3877,-0.59484 -1.2932,-5.58152 -2.0122,-11.08152 -0.719,-5.5 -1.5521,-11.66975 -1.8513,-13.71056 -0.6606,-4.50604 1.4457,-9.78944 3.9027,-9.78944 2.0674,0 2.3006,2.71038 0.5616,6.52704 -0.9257,2.03169 -0.9257,3.0512 0,4.53348 0.6569,1.05179 1.1943,4.36516 1.1943,7.36304 l 0,5.4507 3.75,-0.56737 c 2.0625,-0.31205 4.1775,-0.95876 4.7,-1.43713 0.5225,-0.47837 1.6911,-0.86976 2.597,-0.86976 0.9058,0 2.7283,-0.94619 4.05,-2.10264 1.3216,-1.15646 3.0983,-2.61896 3.9481,-3.25 3.7977,-2.82009 6.9549,-8.40333 6.9549,-12.2993 0,-3.68012 -0.2933,-4.09258 -4.1071,-5.77522 -4.4662,-1.97046 -17.1359,-2.4425 -19.2254,-0.7163 -0.6421,0.53047 -2.8238,1.27399 -4.8482,1.65227 -2.0244,0.37828 -3.9228,1.31855 -4.2186,2.08949 -0.8171,2.12928 -3.6007,1.6848 -3.6007,-0.57496 0,-2.36472 6.4783,-5.80156 12.4942,-6.62832 2.2032,-0.30279 4.9817,-1.02198 6.1744,-1.59821 1.1928,-0.57623 3.4428,-0.79891 5,-0.49485 13.4457,2.62536 16.2418,4.52159 16.2981,11.05302 0.023,2.66783 -0.8906,5.22386 -2.9667,8.30013 -1.65,2.44483 -3,4.77325 -3,5.17426 0,0.68928 -1.7914,2.19395 -4.8781,4.09725 -2.4927,1.53703 -0.2762,2.78161 5.9611,3.34719 10.7668,0.9763 16.1672,7.46457 12.5527,15.08152 -1.9674,4.14586 -8.3958,10.54636 -11.3328,11.28349 -1.2666,0.3179 -2.3029,0.89261 -2.3029,1.27714 0,0.38453 -1.9125,1.51408 -4.25,2.51011 -2.3375,0.99603 -5.483,2.39588 -6.9899,3.11078 -3.7484,1.7782 -8.2096,2.68029 -9.0583,1.83162 z"
         style="fill:#2ca05a"
         id="path3424" />
      <path
         inkscape:connector-curvature="0"
         d="m 567.7835,633.14733 c -0.7184,-0.45562 -1.5719,-3.48623 -1.8966,-6.73469 -0.3248,-3.24847 -1.1995,-6.79393 -1.9439,-7.87881 -2.132,-3.10728 -1.6007,-5.47981 1.6403,-7.324 1.6465,-0.93692 2.9965,-2.23385 3,-2.88206 0.018,-3.44058 7.3929,-5.64525 12.4245,-3.71444 2.4167,0.92737 1.8832,2.39301 -0.8711,2.39301 -6.059,0 -12.7191,6.94167 -10.5495,10.9955 0.5513,1.03016 1.0024,3.39159 1.0024,5.24763 0,1.85604 0.6407,4.24812 1.4237,5.31574 1.2411,1.69231 1.2213,2.16545 -0.155,3.69113 -1.7761,1.96886 -2.2217,2.06629 -4.0748,0.89099 z m -35.69385,-12.14099 c 0.3399,-0.55 1.3297,-1 2.1995,-1 2.0268,0 10.3005,-4.11115 10.3005,-5.11824 0,-1.54286 -2.2495,-2.08865 -4.3454,-1.05431 -1.185,0.58484 -4.239,1.97497 -6.7866,3.08917 -4.975,2.17587 -7.2032,5.08338 -3.8956,5.08338 1.0502,0 2.1877,-0.45 2.5276,-1 z m 21.5,17.19706 c 0,-0.51132 -4.3875,-1.14431 -9.75,-1.40665 -7.9228,-0.3876 -10.8343,-0.99164 -15.5355,-3.22314 -7.1481,-3.39287 -9.2089,-6.12443 -7.6821,-10.18229 2.3644,-6.28402 13.9973,-13.38498 21.9273,-13.38498 9.0573,0 9.3893,4.59264 0.7481,10.34798 -4.581,3.05113 -7.0202,3.96068 -11.7786,4.39215 -11.6506,1.05645 -4.0942,5.41202 14.8918,8.58361 10.2098,1.70555 13.67895,2.65171 13.67895,3.73067 0,0.89998 -1.22665,1.56386 -3.24995,1.75895 -1.7875,0.17235 -3.25,-0.10499 -3.25,-0.6163 z m -116,-55.19706 c 0,-0.55 -0.6484,-1 -1.441,-1 -0.7925,0 -1.7191,0.45 -2.059,1 -0.3399,0.55 0.3085,1 1.441,1 1.1324,0 2.059,-0.45 2.059,-1 z m 13.7636,50.11914 c 0.955,-0.48447 3.9864,-1.91073 6.7364,-3.16946 4.652,-2.12931 6.4472,-3.53578 6.4847,-5.08045 0.02,-0.82048 -9.9115,-5.68011 -12.4038,-6.06945 -1.8511,-0.28916 -5.3577,-5.05286 -5.5078,-7.48239 -0.1704,-2.75695 3.9982,-2.462 7.3984,0.52348 4.3916,3.8558 13.4443,8.40541 15.3046,7.69155 1.8634,-0.71505 1.355,-15.6554 -0.5544,-16.29186 -0.6719,-0.22398 -1.2217,-0.95103 -1.2217,-1.61569 0,-1.36686 -6.8499,-8.0301 -11.75,-11.42986 -2.9435,-2.04223 -3.253,-2.08702 -3.2818,-0.47495 -0.05,2.80868 -2.6504,5.61586 -4.5328,4.89353 -1.3144,-0.50438 -1.4136,-0.93496 -0.4758,-2.06495 0.6517,-0.78523 1.0399,-2.69241 0.8627,-4.23817 -0.3429,-2.98994 -2.8684,-4.01768 -7.2008,-2.93031 -3.7433,0.93951 -10.4618,7.51396 -13.2108,12.92751 -2.254,4.43881 -2.6565,6.57099 -2.7737,14.69233 -0.1208,8.38017 0.141,9.94711 2.2212,13.29307 3.1675,5.09495 8.1238,7.46255 15.9054,7.59795 3.4449,0.0599 7.0449,-0.28741 8,-0.77188 z m 41.5466,4.12776 c -2.04,-2.18392 -4.1056,-3.19398 -7.5369,-3.68544 -2.5997,-0.37236 -4.9599,-1.05441 -5.245,-1.51567 -0.7253,-1.17348 -8.3311,-5.05442 -9.8091,-5.00515 -0.6706,0.0224 -2.7772,1.37235 -4.6814,3 -1.9042,1.62765 -3.9866,2.95936 -4.6276,2.95936 -0.6409,0 -1.7179,0.6658 -2.3932,1.47955 -0.6754,0.81375 -3.4406,1.77306 -6.1449,2.13181 -2.7044,0.35874 -5.1584,1.04294 -5.4536,1.52045 -0.6973,1.12828 -8.1382,1.13079 -8.8352,0.003 -0.2941,-0.47587 -2.0843,-1.11668 -3.9782,-1.42402 -6.3108,-1.02409 -8.1915,-3.07488 -13.5948,-14.82388 -1.9479,-4.23561 0.5783,-23.88688 3.0707,-23.88688 0.5054,0 0.919,-0.64286 0.919,-1.42857 0,-0.78572 0.5788,-2.02322 1.2862,-2.75 4.3727,-4.49229 6.5315,-8.39578 5.5818,-10.09286 -0.5445,-0.97291 -0.7072,-2.65985 -0.3616,-3.74875 0.5249,-1.65383 1.5251,-1.97982 6.0746,-1.97982 2.9954,0 6.2275,0.4282 7.1826,0.95156 0.955,0.52335 3.5364,1.74633 5.7364,2.71773 9.4735,4.18298 23.6997,17.57899 24.8671,23.416 1.1292,5.64639 0.6862,12.39367 -0.9691,14.75687 -0.8811,1.25795 -1.4436,2.38846 -1.25,2.51226 0.1936,0.1238 2.152,1.1072 4.352,2.18533 2.2,1.07814 5.4782,3.19775 7.2848,4.71025 1.8066,1.5125 3.7191,2.75 4.25,2.75 1.1799,0 1.1833,0.23053 -0.059,-4.0066 -1.4723,-5.02091 -0.3247,-10.9934 2.1122,-10.9934 2.1623,0 2.1207,-0.10804 2.3194,6.02011 0.081,2.48607 0.9683,6.25161 1.9725,8.36788 1.7365,3.65943 2.0134,3.82261 5.657,3.3339 2.6929,-0.3612 4.9932,-1.66435 7.7424,-4.38625 5.1362,-5.08507 6.1266,-9.83313 3.2784,-15.71671 -2.6243,-5.42098 -2.5891,-6.62542 0.1924,-6.59147 1.6398,0.02 2.8097,1.17259 4.3138,4.25 5.1513,10.53971 -3.6756,25.6796 -15.9528,27.36238 -4.0831,0.55965 -4.7455,0.34252 -7.3008,-2.39294 z m 109.54995,36.0031 c -0.3365,-4.21358 0.4316,-9.58263 1.7258,-12.06339 0.7709,-1.47764 1.4045,-3.44755 1.4078,-4.37759 0,-0.93004 0.4052,-1.93757 0.8928,-2.23896 0.4877,-0.30138 1.1831,-2.12794 1.5454,-4.05901 0.3622,-1.93108 1.0882,-3.51105 1.6133,-3.51105 0.5251,0 0.9547,-0.46877 0.9547,-1.0417 0,-0.57294 1.35,-3.92917 3,-7.4583 1.65,-3.52913 3,-6.66036 3,-6.9583 0,-0.29793 -1.6875,-0.54521 -3.75,-0.5495 -3.1676,-0.007 -4.8552,-0.97721 -10.8663,-6.25 -11.4205,-10.01763 -13.5397,-11.7422 -14.4298,-11.7422 -0.9297,0 -3.9539,-3.99448 -3.9539,-5.22251 0,-2.33884 4.8711,-0.0598 11.1623,5.22251 3.9303,3.3 7.5266,6 7.9918,6 0.4653,0 0.8459,0.68614 0.8459,1.52475 0,0.83861 1.0125,1.91197 2.25,2.38524 1.2375,0.47327 3.1072,1.81213 4.155,2.97525 1.0477,1.16312 2.6977,2.11476 3.6667,2.11476 0.9689,0 1.9952,0.5625 2.2807,1.25 0.6102,1.46949 4.6476,-2.68068 4.6476,-4.77745 0,-0.71824 0.3375,-1.45588 0.75,-1.63922 0.4125,-0.18333 1.6684,-2.13333 2.7909,-4.33333 3.7724,-7.39344 7.9348,-13.5 9.2018,-13.5 1.8625,0 1.5242,4.59021 -0.4863,6.60079 -1.7936,1.79357 -3.7135,4.75975 -4.7893,7.39921 -0.3363,0.825 -1.0098,2.175 -1.4968,3 -0.487,0.825 -2.5328,4.875 -4.5464,9 -2.0135,4.125 -4.0605,8.175 -4.5488,9 -0.4883,0.825 -1.1508,2.175 -1.4721,3 -0.7139,1.8325 -1.675,4.08583 -4.3484,10.19514 -1.13,2.58232 -2.0546,5.30482 -2.0546,6.05 0,0.74517 -0.5579,1.91275 -1.2398,2.59463 -0.7306,0.7306 -1.2065,3.68759 -1.1588,7.2 0.076,5.60617 -0.058,5.96023 -2.2602,5.96023 -1.5098,0 -2.3908,-0.62145 -2.481,-1.75 z"
         style="fill:#2ca05a"
         id="path3412" />
      <path
         inkscape:connector-curvature="0"
         d="m -188.41035,621.70089 c -1.375,-1.51926 -3.2875,-3.64705 -4.25,-4.72842 -1.87971,-2.11186 -2.32302,-5.49395 -0.84024,-6.41036 1.25895,-0.77807 4.09024,0.42412 4.09024,1.73677 0,0.59321 0.93218,2.07082 2.07152,3.28359 1.44088,1.53375 1.97364,3.22118 1.75,5.54287 l -0.32152,3.33783 -2.5,-2.76228 z m 107.74615,25.0408 c -0.81612,-1.24556 -1.7968,-3.68947 -2.17929,-5.4309 -0.38248,-1.74143 -1.34149,-3.70243 -2.13114,-4.35778 -1.97015,-1.6351 -1.9191,-7.94667 0.0643,-7.94667 0.825,0 1.5,0.62356 1.5,1.38569 0,0.76213 0.67223,2.67463 1.49384,4.25 l 1.49384,2.86431 0.006,-3.30486 c 0.009,-4.71404 3.34345,-11.40609 7.50396,-15.05906 4.28043,-3.75827 10.54799,-4.28269 14.2522,-1.19252 4.03033,3.36224 1.88863,5.76308 -2.30887,2.58824 -2.75444,-2.08335 -3.6591,-1.90839 -7.39949,1.43102 -1.82521,1.62955 -3.73007,3.09999 -4.23301,3.26764 -1.42118,0.47372 -2.66787,7.39681 -2.69173,14.94772 -0.0119,3.7723 -0.29466,7.30043 -0.62831,7.84028 -1.03253,1.67067 -3.1894,1.08711 -4.74244,-1.28313 z m -29.98258,-7.62773 c 0.95504,-0.49082 2.97393,-1.38117 4.48643,-1.97856 3.79482,-1.49883 3.44629,-3.12904 -0.66896,-3.12904 -3.83754,0 -9.56506,2.84141 -9.57472,4.75 -0.007,1.45114 3.2373,1.65267 5.75725,0.3576 z m 1.61925,16.52031 c -3.36445,-0.62035 -6.75419,-1.66438 -7.53277,-2.32007 -0.77857,-0.65569 -2.64641,-1.66012 -4.15075,-2.23207 -4.09807,-1.55808 -5.09862,-5.24808 -2.68081,-9.88675 2.03136,-3.89724 6.76737,-8.73094 10.71794,-10.93902 3.0482,-1.70372 7.31578,-1.56953 11.16575,0.35109 2.69948,1.34668 3.16086,2.08174 2.90364,4.626 -0.42377,4.19158 -7.16859,7.72159 -15.10321,7.90451 -4.66365,0.10751 -5.70261,0.44319 -5.70261,1.84246 0,0.98967 1.58094,2.4718 3.75,3.51561 2.0625,0.99253 4.59811,2.23006 5.6347,2.75006 1.03658,0.52 7.2446,0.94546 13.7956,0.94546 9.71707,0 11.71029,0.24171 10.82176,1.31233 -1.06962,1.28881 -11.81731,3.62014 -15.58397,3.38039 -1.05495,-0.0671 -4.67082,-0.62964 -8.03527,-1.25 z m -49.38282,-0.0446 c 0,-0.77916 -0.3375,-1.56666 -0.75,-1.75 -1.40477,-0.62434 -4.21066,-7.32109 -4.86261,-11.60549 -0.35755,-2.34969 -1.04099,-4.51375 -1.51874,-4.80902 -0.47776,-0.29527 -0.88392,-1.2978 -0.90258,-2.22784 -0.0187,-0.93004 -0.90339,-3.49098 -1.96607,-5.69098 -1.06268,-2.2 -1.94741,-4.77223 -1.96607,-5.71607 -0.0187,-0.94384 -0.65494,-3.19384 -1.41396,-5 -4.12797,-9.82294 -5.6644,-19.67224 -3.36627,-21.57952 2.29566,-1.90523 3.6499,0.53477 4.3835,7.89793 0.35057,3.51871 0.96357,6.84766 1.36221,7.39766 0.39865,0.55 1.0274,2.35 1.39723,4 0.36983,1.65 1.29089,4.35 2.0468,6 1.67686,3.66023 6.11048,17.70413 7.09857,22.48533 1.15591,5.59331 3.24243,8.01467 6.90633,8.01467 3.94625,0 4.89045,0.80407 3.07547,2.61905 -1.88366,1.88366 -9.52381,1.85501 -9.52381,-0.0357 z m -24.7875,2.22917 c -0.66688,-0.66688 -1.2125,-1.63571 -1.2125,-2.15297 0,-0.95134 -3.02579,-7.81812 -5.7113,-12.96131 -1.85224,-3.54734 -1.00421,-5.93883 1.95683,-5.51836 1.54503,0.2194 2.3514,1.10684 2.5625,2.82014 0.16942,1.375 0.95692,3.91801 1.75,5.65113 0.79308,1.73312 1.44197,3.83312 1.44197,4.66667 0,0.83354 0.41855,1.66553 0.93012,1.84887 1.32223,0.47385 1.77952,6.04931 0.53238,6.49094 -0.57063,0.20206 -1.58313,-0.17824 -2.25,-0.84511 z m 50.27852,0.58331 c -2.61036,-2.81662 -7.56905,-12.70415 -9.85257,-19.64581 -0.67848,-2.0625 -4.73478,-2.3313 -7.65547,-0.50729 -1.47263,0.91966 -2.4439,0.95679 -3.73644,0.14281 -4.2482,-2.67531 -1.2172,-5.87189 6.25346,-6.5951 2.53173,-0.24509 2.96341,-0.68065 2.76559,-2.79042 -1.43774,-15.33341 -1.48767,-18 -0.33705,-18 1.43182,0 3.56178,2.07415 3.59418,3.5 0.0125,0.55 0.38128,4.30343 0.81952,8.34096 0.74539,6.86745 0.93744,7.30747 2.97727,6.82176 1.19927,-0.28555 4.43049,-0.80905 7.18049,-1.16333 2.75,-0.35427 6.22942,-1.11281 7.73204,-1.68564 3.64429,-1.38928 6.48041,-0.37713 4.75814,1.69808 -0.67929,0.81849 -2.10955,1.48817 -3.17837,1.48817 -1.06881,0 -2.92621,0.55602 -4.12755,1.2356 -1.20134,0.67958 -4.43426,1.69208 -7.18426,2.25 -4.91617,0.99739 -4.99532,1.07202 -4.72092,4.45075 0.30996,3.81658 5.93127,16.11248 7.938,17.36334 1.53483,0.95672 1.73053,5.70031 0.23517,5.70031 -0.57626,0 -2.13382,-1.17189 -3.46123,-2.60419 z m -92.36889,3.25135 c -0.61752,-0.74407 -1.41709,-4.83474 -1.77682,-9.0904 l -0.65406,-7.73755 -4.59563,0.68 c -2.52759,0.37399 -4.74562,1.08967 -4.92895,1.59039 -0.18334,0.50072 -1.42084,0.9104 -2.75,0.9104 -2.90765,0 -3.44619,-3.73374 -0.66667,-4.62206 0.9625,-0.30761 2.65,-0.93559 3.75,-1.3955 1.1,-0.45991 3.35,-1.25504 5,-1.76695 2.14059,-0.66411 2.91629,-1.47286 2.70779,-2.82312 -0.16072,-1.0408 -0.55545,-5.04237 -0.87718,-8.89237 -0.32173,-3.85 -0.9488,-7.46125 -1.39349,-8.025 -0.4447,-0.56375 -1.11682,-3.34896 -1.49362,-6.18936 -0.37679,-2.8404 -1.19322,-5.3368 -1.81429,-5.54756 -0.62106,-0.21076 -4.44573,-0.11701 -8.49925,0.20833 -7.61668,0.61132 -9.07685,-0.0365 -7.76833,-3.44641 0.44114,-1.1496 2.33491,-1.5 8.10699,-1.5 7.36681,0 7.53138,-0.0546 7.53138,-2.5 0,-1.83333 0.53333,-2.5 2,-2.5 1.1,0 2.00689,0.5625 2.01531,1.25 0.033,2.6921 1.63949,3.97748 3.60067,2.88094 1.99463,-1.11525 13.96811,-3.05581 23.72534,-3.84521 5.26824,-0.42622 5.8069,-0.29173 5.4905,1.37085 -0.28206,1.48215 -1.81879,2.0394 -7.84131,2.84342 -4.11978,0.55 -8.03466,1.35272 -8.69974,1.78382 -0.66507,0.4311 -4.19312,1.06246 -7.8401,1.40302 -6.69579,0.62526 -8.7498,2.0384 -6.65112,4.57589 1.17248,1.41764 2.79726,8.68766 4.52284,20.23727 l 1.19524,8 4.49118,-0.23795 c 2.47016,-0.13088 7.5493,-0.61542 11.28699,-1.07676 4.93266,-0.60883 7.25439,-0.50346 8.46852,0.38432 1.44333,1.05539 0.93218,1.44304 -3.7273,2.82676 -2.97001,0.882 -8.18825,1.60363 -11.59608,1.60363 -7.98263,0 -8.84967,0.95884 -7.34503,8.12265 0.62119,2.95754 1.81583,6.15641 2.65477,7.10859 1.23929,1.40658 1.28897,2.01606 0.26489,3.25 -1.56254,1.88275 -4.40225,1.96269 -5.89344,0.16592 z m -31.37213,7.23898 c -2.0625,-2.26001 -3.75,-4.91079 -3.75,-5.89063 0,-0.97984 -0.675,-2.04055 -1.5,-2.35714 -0.825,-0.31658 -1.5,-1.04362 -1.5,-1.61564 0,-1.19211 -4.98729,-7.02273 -6.00697,-7.02273 -0.37201,0 -1.49387,2.7 -2.49303,6 -0.99916,3.3 -2.19541,6 -2.65833,6 -0.46292,0 -0.84167,0.6375 -0.84167,1.41667 0,0.77916 -0.5625,1.61836 -1.25,1.86487 -1.80272,0.64639 -4.75,-1.10133 -4.75,-2.81672 0,-0.80565 -0.45,-1.46482 -1,-1.46482 -0.55,0 -1.01527,-0.5625 -1.03393,-1.25 -0.0187,-0.6875 -0.90339,-3.05 -1.96607,-5.25 -1.06268,-2.2 -1.94741,-4.59464 -1.96607,-5.32143 -0.0187,-0.72678 -0.66875,-1.95625 -1.44464,-2.73214 -0.7759,-0.77589 -1.58995,-1.94842 -1.80902,-2.60562 -0.64297,-1.92892 -2.57193,-0.0658 -3.28279,3.17066 -0.36101,1.64369 -1.07064,2.98853 -1.57694,2.98853 -0.50629,0 -0.92054,1.10285 -0.92054,2.45078 0,3.94792 -2.00652,12.17588 -3.45104,14.15138 -1.12002,1.53172 -1.58479,1.61299 -2.91429,0.50961 -0.86996,-0.722 -1.86873,-2.84252 -2.2195,-4.71225 -0.35076,-1.86974 -1.0101,-3.39952 -1.46519,-3.39952 -0.45509,0 -1.142,-2.1375 -1.52646,-4.75 -0.38447,-2.6125 -1.31204,-5.63763 -2.06128,-6.72251 -1.78234,-2.58079 -1.80411,-8.52749 -0.0312,-8.52749 2.19168,0 6.62573,10.82789 6.65443,16.25 0.008,1.5125 0.46455,2.75 1.01455,2.75 0.55,0 1,-1.32344 1,-2.94098 0,-1.61754 0.39899,-3.18757 0.88664,-3.48896 0.48765,-0.30138 1.16463,-2.02983 1.50441,-3.84098 0.62319,-3.32189 5.59702,-9.72908 7.55258,-9.72908 2.75172,0 8.04507,8.53423 11.00943,17.75 0.75188,2.3375 1.63518,4.25 1.96289,4.25 0.8955,0 2.87374,-5.01752 3.62119,-9.18463 0.36351,-2.02655 1.45584,-4.40403 2.42742,-5.2833 1.63752,-1.48193 2.08453,-1.33296 6.12199,2.04024 4.05637,3.38901 11.79836,14.50607 11.87814,17.05637 0.0194,0.62077 1.38531,1.68787 3.03531,2.37132 3.52024,1.45813 3.99732,4.00106 0.75,3.99762 -1.35791,-10e-4 -3.73682,-1.63158 -6,-4.11148 z m -73.48444,5.89716 c -0.56904,-0.70581 -1.34733,-2.7458 -1.72954,-4.5333 -0.38221,-1.7875 -1.08878,-3.25 -1.57016,-3.25 -0.48138,0 -1.17071,-1.575 -1.53184,-3.5 -0.36113,-1.925 -0.99186,-3.5 -1.40162,-3.5 -0.82483,0 -4.27785,-13.08788 -3.62521,-13.74052 0.22525,-0.22525 1.01328,-0.50094 1.75118,-0.61264 2.41732,-0.36591 3.84163,-1.73133 3.84163,-3.6828 0,-1.05487 1.2375,-2.70541 2.75,-3.66789 1.5125,-0.96247 3.03184,-2.14685 3.37632,-2.63195 0.34447,-0.4851 2.65438,-1.11059 5.13312,-1.38998 3.67902,-0.41467 4.89562,-0.11916 6.62368,1.6089 3.22066,3.22066 2.61191,3.82248 -3.36507,3.32682 -4.75073,-0.39397 -5.81552,-0.13817 -7.98272,1.91773 -1.37543,1.30478 -2.50855,2.74197 -2.51805,3.19376 -0.01,0.45178 -0.74123,1.54538 -1.62606,2.43021 -2.4963,2.49629 -1.05417,12.14088 2.73659,18.30165 1.88365,3.06133 2.89088,5.90286 2.69124,7.5924 -0.36103,3.05536 -2.01261,4.04888 -3.55349,2.13761 z m -41.73807,-17.1486 c 1.08488,-0.75092 3.07652,-1.71028 4.42587,-2.13193 1.34935,-0.42165 3.08604,-1.39932 3.85932,-2.17259 2.23818,-2.23818 -2.20126,-5.61454 -6.25787,-4.75936 -3.57136,0.75288 -8.55481,5.6991 -8.55481,8.4909 0,2.33037 3.53963,2.64108 6.52749,0.57298 z m -3.02749,17.71254 c -3.16552,-0.86137 -10.5,-9.13107 -10.5,-11.83885 0,-1.31469 0.39899,-2.63694 0.88664,-2.93833 0.48765,-0.30138 1.18304,-2.12794 1.54531,-4.05901 0.36227,-1.93108 1.08829,-3.51105 1.61336,-3.51105 0.52508,0 0.95469,-0.59656 0.95469,-1.32569 0,-1.60915 4.16555,-5.67431 5.81445,-5.67431 0.65205,0 1.18555,-0.39752 1.18555,-0.88337 0,-0.48585 0.99685,-1.14405 2.21523,-1.46266 3.05087,-0.79782 10.51736,3.10362 12.13136,6.33896 2.29875,4.60796 0.93445,6.04118 -11.55292,12.13657 -0.93847,0.45809 -3.52597,1.12387 -5.75,1.47951 -2.22402,0.35563 -4.04367,0.99909 -4.04367,1.4299 0,1.77387 6.33427,5.96109 9.01771,5.96109 1.57534,0 3.10357,0.38722 3.39607,0.8605 0.66275,1.07235 14.92651,-1.33873 19.04373,-3.21906 4.06562,-1.85677 10.79468,-2.85851 9.94282,-1.48017 -0.35447,0.57354 -2.05205,1.67859 -3.77241,2.45568 -1.72035,0.77709 -3.80292,1.78623 -4.62792,2.24254 -0.825,0.45631 -2.62469,1.42348 -3.99931,2.14925 -2.55889,1.35106 -19.83787,2.33519 -23.50069,1.3385 z m -24.34718,2.3369 c -0.60063,-0.72372 -1.39207,-3.98622 -1.75874,-7.25 -0.36666,-3.26378 -1.07203,-6.45036 -1.56746,-7.08129 -0.96661,-1.23097 -2.78745,-34.37371 -2.23069,-40.60285 0.31373,-3.51015 0.15828,-3.75 -2.43038,-3.75 -1.52105,0 -3.19305,0.41658 -3.71555,0.92573 -0.87726,0.85484 -6.59553,1.91979 -21.95,4.08787 -6.15387,0.86893 -8.1876,0.22065 -7.21979,-2.30142 0.61013,-1.58998 5.84203,-2.68459 12.91077,-2.70117 2.58004,-0.006 4.9366,-0.40842 5.23679,-0.89414 0.30019,-0.48571 3.0992,-1.20215 6.22001,-1.59207 3.12082,-0.38992 6.38927,-1.09933 7.26322,-1.57646 0.87395,-0.47713 3.614,-1.30731 6.089,-1.84483 2.475,-0.53752 6.3,-1.44497 8.5,-2.01656 2.2,-0.57158 7.68594,-1.04997 12.19098,-1.06309 4.50504,-0.0131 8.4691,-0.47386 8.80902,-1.02386 0.97651,-1.58003 5.49992,-1.16379 6.16417,0.56722 0.94688,2.46754 -0.65507,3.23076 -8.16417,3.88962 -3.85,0.33781 -11.275,1.16071 -16.5,1.82868 l -9.5,1.21448 0.13643,16 c 0.13143,15.4131 1.93977,32.1975 4.255,39.4934 0.60971,1.92137 1.10857,4.28387 1.10857,5.25 0,2.06401 -2.28293,2.32555 -3.84718,0.44074 z"
         style="fill:#2ca05a"
         id="path3410" />
      <path
         inkscape:connector-curvature="0"
         id="path3402"
         d="m -206.41035,570.08813 c 0,-1.96431 1.272,-4.08179 2.452,-4.08179 0.68091,0 2.05251,-0.9 3.048,-2 0.99549,-1.1 2.2023,-2 2.6818,-2 0.4795,0 4.57226,-3.57622 9.09501,-7.94715 14.39206,-13.90893 20.11253,-19.12064 24.47319,-22.29656 2.3375,-1.70243 4.25,-3.46905 4.25,-3.92581 0,-0.45676 0.60532,-0.83048 1.34517,-0.83048 1.69429,0 20.60662,-19.38141 23.17517,-23.75 2.03526,-3.46156 3.58039,-4.03848 5.29212,-1.97598 0.77788,0.9373 0.34772,2.1097 -1.62756,4.43584 -1.47669,1.739 -3.79027,4.65318 -5.14128,6.47598 -3.16783,4.27405 -14.60585,15.59026 -19.01668,18.81416 -1.88123,1.375 -5.01939,3.96035 -6.97368,5.74522 -1.95429,1.78487 -3.85997,3.24737 -4.23484,3.25 -0.37487,0.003 -5.61331,4.95478 -11.64097,11.00478 -6.02766,6.05 -11.21793,11 -11.53394,11 -0.316,0 -1.95558,1.35 -3.64351,3 -1.68793,1.65 -3.6803,3 -4.42749,3 -0.74719,0 -1.61755,0.675 -1.93414,1.5 -0.61526,1.60335 -5.63837,2.12165 -5.63837,0.58179 z"
         style="fill:#000000" />
      <path
         inkscape:connector-curvature="0"
         id="path3388"
         d="m 304.79315,549.32856 c -0.7131,-0.28593 -2.7381,-1.86732 -4.5,-3.5142 -1.7619,-1.64688 -4.7785,-4.02489 -6.7035,-5.28448 -1.925,-1.25958 -4.85,-3.487 -6.5,-4.9498 -1.65,-1.46281 -4.2945,-3.65282 -5.8766,-4.8667 -3.8137,-2.92604 -4.2191,-3.33316 -18.1234,-18.20178 -6.6,-7.05773 -13.2375,-14.12418 -14.75,-15.70322 -1.5125,-1.57905 -2.7521,-3.19298 -2.7546,-3.58652 0,-0.39354 -1.4078,-2.21275 -3.1228,-4.0427 -2.1649,-2.30999 -2.7993,-3.64611 -2.075,-4.37039 0.7242,-0.72427 2.214,0.26234 4.8728,3.22716 2.1063,2.3487 5.6296,6.15141 7.8296,8.45047 2.2,2.29905 6.986,7.51906 10.6356,11.60002 9.7242,10.87361 19.6546,20.91992 20.6786,20.91992 0.4915,0 1.9956,1.0125 3.3424,2.25 1.3467,1.2375 3.9413,3.375 5.7658,4.75 1.8245,1.375 5.732,4.4125 8.6833,6.75 2.9513,2.3375 5.8224,4.25 6.3802,4.25 0.5577,0 1.0141,0.675 1.0141,1.5 0,1.47062 -2.2273,1.85243 -4.7965,0.82222 z"
         style="fill:#000000" />
      <path
         inkscape:connector-curvature="0"
         d="m 141.87257,404.20645 c 0,-0.4962 1.35,-1.37279 3,-1.94799 3.83813,-1.33798 3.75198,-2.7636 -0.44881,-7.42666 -1.87132,-2.07724 -3.55655,-4.23925 -3.74495,-4.80445 -0.1884,-0.5652 -1.21015,-1.15498 -2.27055,-1.31061 -1.06041,-0.15564 -2.2198,-0.91863 -2.57643,-1.69555 -0.35662,-0.77691 -1.16835,-2.41896 -1.80383,-3.649 -1.50445,-2.912 -1.45724,-4.10462 0.22928,-5.79114 1.17961,-1.17961 1.62396,-1.12033 3,0.40017 0.88841,0.98169 1.61529,2.24624 1.61529,2.81012 0,0.56388 1.0125,2.14772 2.25,3.51964 3.81905,4.2339 6.17695,7.18524 8.00199,10.01594 2.22447,3.45024 3.57251,2.89276 7.22091,-2.98633 2.5695,-4.14036 2.9201,-5.6041 2.8049,-11.70763 -0.075,-3.96262 -0.5952,-7.13014 -1.2048,-7.33333 -0.5901,-0.19672 -1.073,-0.88964 -1.073,-1.53981 0,-4.9445 -10.35699,-15.91062 -16.25,-17.20574 -1.5125,-0.3324 -2.75,-0.99822 -2.75,-1.4796 0,-0.48138 -1.593,-1.17408 -3.53999,-1.53934 -2.57793,-0.48362 -4.02678,-0.22357 -5.33116,0.95687 -2.30757,2.08833 -3.18551,1.14993 -2.435,-2.60266 0.39932,-1.99658 0.13795,-3.26665 -0.7903,-3.84034 -1.81038,-1.11888 -5.77061,-0.0914 -7.79828,2.02318 -2.63921,2.75238 -6.10527,7.8795 -6.10527,9.03112 0,0.59162 -0.73992,2.20493 -1.64426,3.58514 -1.3509,2.06173 -1.54303,4.20624 -1.07687,12.01973 0.31206,5.23065 0.99055,10.04806 1.50774,10.70535 0.51719,0.6573 1.23717,3.13927 1.59995,5.51549 0.94864,6.2137 4.49975,11.3781 10.55932,15.3565 2.78396,1.82781 19.05412,2.61418 19.05412,0.92093 z m 21,6.20081 c -0.825,-0.29891 -3.6327,-2.31108 -6.2392,-4.4715 l -4.7393,-3.92804 -2.76074,2.57197 c -1.51842,1.41458 -4.45823,2.84639 -6.53292,3.1818 -2.07469,0.33541 -4.01375,1.00073 -4.30902,1.47848 -0.7055,1.14153 -9.14166,1.12612 -9.84876,-0.018 -0.30138,-0.48765 -2.12794,-1.18304 -4.05901,-1.54531 -1.93108,-0.36226 -3.51105,-1.08828 -3.51105,-1.61335 0,-0.52508 -0.5625,-0.96246 -1.25,-0.97197 -3.17928,-0.0439 -10.181,-10.63596 -11.24786,-17.01546 -0.41089,-2.45699 -1.13374,-4.71373 -1.60633,-5.01498 -0.47259,-0.30125 -1.15594,-5.0749 -1.51855,-10.60811 -0.61025,-9.31196 -0.48143,-10.4243 1.73172,-14.95227 1.31506,-2.69055 2.72852,-5.0419 3.14102,-5.22523 0.4125,-0.18334 0.75,-0.98496 0.75,-1.78139 0,-0.79643 0.675,-1.70707 1.5,-2.02365 0.825,-0.31659 1.50307,-1.08996 1.50683,-1.71862 0.004,-0.62865 1.56968,-2.20729 3.47983,-3.50809 2.72247,-1.85398 4.22675,-2.22367 6.96102,-1.71071 1.91841,0.35989 4.09049,1.25681 4.82682,1.99315 0.73634,0.73634 2.77581,1.65442 4.53215,2.04017 1.75634,0.38576 3.19335,1.11563 3.19335,1.62193 0,0.5063 0.86786,0.92054 1.92857,0.92054 1.06072,0 2.60357,0.675 3.42857,1.5 0.825,0.825 2.16674,1.5 2.98163,1.5 2.44733,0 11.58173,7.8351 12.25313,10.51022 0.3437,1.36938 0.9904,2.48978 1.4371,2.48978 0.4466,0 1.1248,1.4625 1.507,3.25 0.3822,1.7875 1.1718,3.84104 1.7546,4.56343 0.5827,0.72239 1.0933,4.32239 1.1345,8 0.075,6.6725 -1.6827,11.8987 -6.0181,17.89615 -1.5103,2.08931 -1.4454,2.35035 1.1934,4.79585 1.5348,1.42245 4.249,3.27835 6.0316,4.12421 4.6489,2.20607 3.2168,5.42577 -1.632,3.669 z m 97.4862,-2.73456 c -1.3675,-2.98976 -2.4864,-5.76683 -2.4864,-6.17126 0,-0.40444 -0.6341,-1.44577 -1.4091,-2.31408 -0.775,-0.86831 -2.5299,-3.69853 -3.8999,-6.28939 -1.9769,-3.7388 -2.2281,-4.92863 -1.2176,-5.76725 2.1316,-1.76908 4.4387,-0.0313 5.0773,3.82445 0.86,5.19245 1.3187,6.35217 2.278,5.7593 0.4636,-0.2865 0.634,-3.03938 0.3788,-6.11751 -0.3495,-4.21389 -0.01,-6.44795 1.3916,-9.04247 1.0206,-1.89523 2.2034,-3.44587 2.6283,-3.44587 0.4249,0 0.7726,-0.73425 0.7726,-1.63167 0,-2.54867 7.9448,-1.15348 10.3562,1.81867 1.6279,2.00641 1.6693,2.35452 0.3126,2.62623 -0.8602,0.17228 -2.4876,-0.18105 -3.6164,-0.78518 -2.6255,-1.40514 -6.0524,0.2641 -6.0524,2.94812 0,1.04819 -0.45,2.18391 -1,2.52383 -0.55,0.33992 -0.9996,2.27898 -0.9992,4.30902 0,5.18565 2.9028,18.51335 4.2059,19.31875 1.6896,1.04422 0.091,3.87223 -2.1889,3.87223 -1.5042,0 -2.7024,-1.43745 -4.5314,-5.43592 z m -83.0654,0.1562 c -5.2195,-4.85831 -5.7122,-5.69503 -6.1722,-10.48318 -0.4071,-4.23604 -0.1898,-5.32252 1.1687,-5.84382 2.3083,-0.88576 2.7401,-0.19935 3.3391,5.30732 0.4269,3.92429 1.2337,5.48317 4.4248,8.5494 2.1466,2.0625 4.8432,3.75 5.9926,3.75 3.1872,0 8.5297,-6.28677 9.3206,-10.96796 0.3737,-2.21186 1.0903,-4.27548 1.5924,-4.58582 1.4177,-0.87618 1.0769,-5.26643 -0.6085,-7.83863 -1.1126,-1.69812 -2.1874,-2.19473 -4,-1.84824 -2.8734,0.5493 -3.2422,-1.1647 -0.9135,-4.2459 1.389,-1.83784 1.7048,-1.87343 4.2182,-0.47546 1.4942,0.8311 3.161,2.51255 3.7039,3.73655 0.5429,1.224 1.3304,2.22546 1.75,2.22546 1.0886,0 0.9483,9.7674 -0.1501,10.44622 -0.5021,0.31034 -1.2166,2.36117 -1.5876,4.5574 -0.4775,2.82604 -1.9534,5.30887 -5.0497,8.49476 -6.2407,6.42118 -9.4518,6.27445 -17.0287,-0.7781 z m 42.0252,-12.63327 c 0.3104,-0.50214 2.3267,-1.21074 4.4807,-1.57466 5.4436,-0.91969 6.2077,-3.9965 2.1649,-8.71807 -2.9915,-3.49383 -7.2801,-1.60436 -13.5541,5.97162 -1.8369,2.21809 -1.836,2.29655 0.043,3.7182 2.1687,1.64094 6.0153,1.97874 6.8656,0.60291 z m 0.054,18.02875 c -4.0166,-1.37544 -7.9253,-3.66294 -11.175,-6.53999 -2.8989,-2.56653 -3.325,-3.56093 -3.325,-7.75977 0,-2.6488 0.4012,-4.816 0.8916,-4.816 0.4904,0 1.1488,-1.02476 1.4631,-2.27724 0.3144,-1.25249 2.8014,-4.62749 5.5268,-7.5 4.4263,-4.66539 5.3989,-5.22276 9.1137,-5.22276 6.7578,0 12.2373,6.95312 10.6049,13.457 -0.9673,3.85412 -6.7086,6.043 -15.8503,6.043 -6.388,0 -7.7502,0.27696 -7.75,1.57569 3e-4,2.04054 4.1399,5.92431 6.3147,5.92431 0.927,0 1.6855,0.40483 1.6855,0.89962 0,1.64421 14.8932,4.28484 22.2497,3.94498 4.5923,-0.21215 7.2201,0.0649 7.4607,0.78662 0.2043,0.61277 -0.6595,1.39028 -1.9195,1.7278 -3.0455,0.8158 -22.7517,0.62626 -25.2909,-0.24326 z m 81.5,36.47652 c 0,-1.87425 1.0957,-5.58675 2.4348,-8.25 3.8922,-7.74066 6.5652,-14.11877 6.5652,-15.6653 0,-1.41809 1.782,-6.23308 4.5625,-12.32812 2.0545,-4.50358 1.8583,-5.0189 -2.1591,-5.67084 -3.7839,-0.61404 -11.7123,-6.08125 -17.0988,-11.79091 -14.9469,-15.84357 -16.3985,-17.88712 -12.706,-17.88712 1.4885,0 5.0707,3.36593 13.4014,12.59238 6.4151,7.10483 16.7874,14.40822 20.4614,14.40738 1.282,-2.9e-4 8.998,-16.07256 11.2818,-23.49976 1.0011,-3.2554 3.6616,-4.49339 4.5699,-2.12642 0.5381,1.40225 -2.879,12.13635 -5.1589,16.2054 -1.136,2.02758 -4.8474,10.21066 -7.6743,16.92102 -0.9269,2.2 -2.9963,7.9809 -4.5989,12.84645 -1.6025,4.86555 -3.9742,11.16555 -5.2705,14 -3.8678,8.4574 -4.2209,9.43182 -4.4952,12.40355 -0.063,0.6875 -1.0153,1.25 -2.1153,1.25 -1.6087,0 -2,-0.66667 -2,-3.40771 z"
         style="fill:#2ca05a"
         id="path3300" />
      <path
         inkscape:connector-curvature="0"
         d="m -189.02054,371.78964 c -3.13488,-4.41913 -4.26412,-7.50899 -3.15108,-8.62203 0.6387,-0.6387 1.695,-1.16127 2.34733,-1.16127 1.48714,0 4.654,6.51898 4.22964,8.70672 -0.41147,2.12128 -2.27039,2.70545 -3.42589,1.07658 z m 240.11019,39.21669 c 0.33992,-0.55 1.68433,-1 2.98759,-1 1.30325,0 3.04455,-0.675 3.86955,-1.5 0.825,-0.825 1.86965,-1.51497 2.32143,-1.53327 1.42389,-0.0577 5.32143,-3.7326 5.32143,-5.01749 0,-0.6766 -0.96117,-3.30447 -2.13592,-5.83971 -3.10378,-6.69824 -3.67629,-8.24592 -4.38278,-11.84806 -0.34934,-1.7812 -0.93805,-3.41813 -1.30824,-3.63763 -1.11754,-0.66266 -12.17306,1.64721 -12.17306,2.54337 0,0.45803 -0.6679,0.83279 -1.48422,0.83279 -0.81633,0 -2.95383,1.31309 -4.75,2.91797 -2.91907,2.60819 -3.26447,3.48404 -3.2534,8.25 0.01,4.11997 0.64439,6.30898 2.7927,9.6298 1.52918,2.36377 3.54861,4.53374 4.48762,4.82215 0.93902,0.28841 2.3823,0.91545 3.2073,1.39342 2.05064,1.18806 3.76063,1.18299 4.5,-0.0133 z m 23,3.17281 c -2.2,-1.51841 -4.58705,-3.97846 -5.30457,-5.46678 -1.58925,-3.29656 -2.25312,-3.34858 -5.30907,-0.416 -4.11428,3.9482 -7.81103,5.79528 -12.7754,6.38323 -6.32157,0.7487 -10.84973,-1.43014 -14.89276,-7.16603 -3.99707,-5.6707 -5.39758,-10.87941 -4.26276,-15.85388 1.10148,-4.8283 3.77235,-7.69982 9.80924,-10.54616 2.60443,-1.22797 5.51671,-2.65443 6.47175,-3.16993 0.95504,-0.51549 3.06598,-0.93726 4.69098,-0.93726 3.73225,0 4.5646,-1.31873 2.66469,-4.22175 -0.82006,-1.25304 -1.79456,-4.30325 -2.16557,-6.77825 -0.371,-2.475 -1.23722,-5.85 -1.92492,-7.5 -2.04398,-4.90413 -3.46538,-10.86001 -4.14611,-17.37283 -0.60576,-5.79558 -0.52447,-6.12717 1.50204,-6.12717 1.34806,0 2.16748,0.64888 2.20995,1.75 0.16988,4.40506 1.0487,8.76619 1.94764,9.66513 0.54168,0.54168 0.98487,2.86477 0.98487,5.16243 0,2.49343 0.6047,4.67941 1.5,5.42244 0.825,0.68469 1.5,2.26311 1.5,3.50761 0,2.82293 2.6653,12.05049 4.57046,15.82343 0.78625,1.55707 1.42954,3.83356 1.42954,5.05887 0,1.22531 0.66069,3.10134 1.4682,4.16896 0.8075,1.06762 1.4825,2.8535 1.5,3.96862 0.0175,1.11513 0.63125,2.91513 1.3639,4 0.73266,1.08488 2.55096,5.06045 4.04066,8.8346 2.95057,7.47521 4.08417,9.01338 7.42388,10.07337 2.32823,0.73895 3.13834,4.58939 0.95336,4.53132 -0.6875,-0.0183 -3.05,-1.27556 -5.25,-2.79397 z m -109.82563,3.07719 c -0.24402,-0.4125 -0.75973,-2.66014 -1.14603,-4.99476 -0.3863,-2.33462 -1.11321,-4.49868 -1.61535,-4.80902 -0.50215,-0.31034 -0.91299,-1.34766 -0.91299,-2.30515 0,-0.9575 -2.0583,-4.56962 -4.57401,-8.02693 -4.3867,-6.02862 -5.09081,-9.11414 -2.07982,-9.11414 1.77757,0 3.12437,1.69046 4.33206,5.4375 1.69421,5.25653 3.02354,3.96929 3.76782,-3.64852 1.08504,-11.10555 4.17138,-16.02422 8.91307,-14.20467 2.38526,0.91531 2.00967,3.22365 -0.58514,3.59614 -1.76792,0.25379 -2.39856,1.24561 -3.06445,4.81955 -1.05983,5.68822 -0.15084,24.95869 1.24305,26.35258 0.57608,0.57608 1.04742,2.53242 1.04742,4.34742 0,2.83206 -0.34613,3.3 -2.44098,3.3 -1.34254,0 -2.64063,-0.3375 -2.88465,-0.75 z M 5.3962797,392.49132 c 2.66519,-1.36053 3.24715,-2.20174 3,-4.33648 -0.27125,-2.34294 -0.79697,-2.68399 -4.55663,-2.95601 -2.51457,-0.18193 -4.24999997,0.12432 -4.24999997,0.75 0,0.58163 -0.70962003,1.0575 -1.57692003,1.0575 -1.85362,0 -7.42308,5.29852 -7.42308,7.06197 0,1.71829 10.5532,0.59433 14.80663,-1.57698 z m 4.19738,27.68331 c -1.92279,-0.18244 -3.94779,-0.68289 -4.5,-1.11212 -0.5522,-0.42922 -2.30301,-1.09146 -3.89068,-1.47165 -1.58766997,-0.38018 -4.33015,-1.79223 -6.09439,-3.13788 -1.76425,-1.34566 -3.6195,-2.44665 -4.12278,-2.44665 -0.91393,0 -2.7041597,-2.40125 -5.1176197,-6.86431 -0.7032,-1.30037 -1.27854,-4.3016 -1.27854,-6.66941 0,-3.77807 0.62081,-4.98437 5.07112,-9.85372 3.6178897,-3.95854 6.0569097,-5.73355 8.5110497,-6.19395 1.89196003,-0.35494 3.68651,-1.04432 3.98789,-1.53197 0.30139,-0.48765 1.81802,-0.88664 3.3703,-0.88664 3.18848,0 9.0596403,5.25763 9.0596403,8.11291 0,2.37493 -5.5616703,7.74635 -8.8272603,8.52532 -1.47001,0.35065 -3.21062,1.06016 -3.86803,1.5767 -0.65742,0.51654 -3.45941,0.81899 -6.22667,0.67211 -2.76725,-0.14687 -5.31172,0.0133 -5.65437,0.35596 -1.3006197,1.30062 1.81144,7.69853 4.87762,10.02762 6.23264,4.73435 12.38281,6.73266 20.5758303,6.68549 4.19258,-0.0241 9.29403,-0.6405 11.33654,-1.36967 2.04252,-0.72918 3.956,-1.08345 4.25219,-0.78726 0.87277,0.87278 -2.62957,4.20082 -4.42084,4.20082 -0.90475,0 -2.07251,0.40852 -2.59501,0.90781 -1.08652,1.03828 -9.26597,1.75197 -14.4459903,1.26049 z m -80.0040097,1.8317 c -0.825,-0.53316 -2.94677,-0.97627 -4.71505,-0.98469 -5.35733,-0.0255 -12.57045,-2.99736 -16.53495,-6.81249 -3.21108,-3.0901 -3.75,-4.23694 -3.75,-7.98011 0,-3.87274 0.5632,-4.96181 4.93723,-9.54706 l 4.93722,-5.17565 7.96641,0 c 7.44164,0 8.13745,0.18455 10.56278,2.80152 2.96837,3.20293 3.25473,5.06648 1.06166,6.90905 -0.84409,0.70919 -2.10708,1.79706 -2.80665,2.41751 -0.69957,0.62044 -2.7038,1.44256 -4.45383,1.82693 -1.75004,0.38438 -3.4386,1.11424 -3.75237,1.62193 -0.69771,1.12892 -9.14065,1.23658 -9.82745,0.12531 -0.99765,-1.61423 0.98942,-2.91023 5.375,-3.50564 2.475,-0.33602 6.44561,-1.55672 8.82357,-2.71267 3.56605,-1.73347 4.11402,-2.35421 3.12756,-3.54283 -0.65781,-0.79261 -1.81592,-1.44111 -2.57357,-1.44111 -0.75766,0 -1.37756,-0.45 -1.37756,-1 0,-1.35785 -6.60958,-1.26889 -9.31574,0.12538 -4.47931,2.30783 -7.68426,6.80826 -7.68426,10.79032 0,6.98978 4.50598,9.61796 21,12.24857 7.8733,1.25571 22.45114,0.53614 24.55773,-1.21219 1.68397,-1.39757 4.15582,0.0844 3.07033,1.84071 -2.04418,3.30756 -24.56815,5.83093 -28.62806,3.20721 z m -67.63672,2.2101 c -0.6148,-0.98445 -1.44843,-4.24695 -1.85252,-7.25 -0.40409,-3.00306 -1.07755,-5.9101 -1.49659,-6.4601 -0.41903,-0.55 -1.08576,-3.25 -1.48161,-6 -0.39585,-2.75 -1.06894,-5.45 -1.49576,-6 -0.42681,-0.55 -1.09996,-2.8 -1.4959,-5 -0.39593,-2.2 -1.15292,-4.52421 -1.68221,-5.16491 -0.52929,-0.6407 -1.36381,-4.2407 -1.8545,-8 -1.22953,-9.4198 -2.96181,-18.44486 -3.99911,-20.83509 -0.47737,-1.1 -1.16591,-4.25 -1.5301,-7 -0.36418,-2.75 -1.07992,-5.50802 -1.59053,-6.12893 -0.51061,-0.62091 -1.21492,-4.84472 -1.56514,-9.38624 -0.52828,-6.85055 -0.39676,-8.17834 0.77197,-7.79377 0.78504,0.25832 1.54613,2.08955 1.71909,4.13624 0.1707,2.01998 0.7332,3.6727 1.25,3.6727 0.51679,0 0.95938,1.6875 0.98352,3.75 0.0241,2.0625 0.68728,5.55 1.47363,7.75 0.78636,2.2 1.72473,6.5875 2.08527,9.75 0.36055,3.1625 0.97861,5.75 1.37346,5.75 0.39486,0 1.24136,3.2625 1.88113,7.25 2.66293,16.59745 3.51279,20.75 4.24665,20.75 0.42538,0 1.07792,2.03053 1.45008,4.5123 0.37217,2.48176 1.03258,4.73226 1.46759,5.00111 0.43501,0.26885 1.1099,2.85082 1.49975,5.73771 0.38985,2.88688 1.0552,5.92388 1.47855,6.74888 0.42335,0.825 1.08877,3.8625 1.4787,6.75 0.55318,4.0963 0.41159,5.25 -0.64432,5.25 -0.74431,0 -1.8563,-0.80546 -2.4711,-1.7899 z m -37.16711,-0.50771 c -1.75789,-1.81368 -3.19894,-3.72618 -3.20233,-4.25 -0.003,-0.52381 -0.73902,-2.30239 -1.63475,-3.95239 -2.34861,-4.32635 -3.26259,-24.5 -1.10999,-24.5 2.75068,0 3.94221,2.48602 2.60168,5.42816 -0.92606,2.03248 -0.94063,3.75227 -0.0624,7.36192 0.63028,2.59046 1.43581,6.39742 1.79007,8.45992 0.35426,2.0625 0.99524,3.75 1.4244,3.75 0.42917,0 1.04246,1.0125 1.36287,2.25 0.32041,1.2375 1.71919,3.55749 3.10841,5.15554 3.0114,3.46408 3.03758,3.59446 0.72201,3.59446 -0.99211,0 -3.24211,-1.48392 -5,-3.29761 z m -56.91526,6.45509 c -1.14654,-0.72643 -1.82562,-4.7392 -3.32665,-19.65748 -0.55339,-5.5 -1.44448,-11.03367 -1.98021,-12.29705 -0.53573,-1.26338 -0.97405,-3.40088 -0.97405,-4.75 0,-2.1367 -0.45124,-2.45295 -3.5,-2.45295 -1.925,0 -3.5,0.45 -3.5,1 0,0.55 -1.125,1 -2.5,1 -1.81402,0 -2.5,-0.53635 -2.5,-1.95469 0,-1.48344 0.90406,-2.10201 3.75,-2.56578 7.91511,-1.28983 7.63225,-0.74923 7.3467,-14.04149 -0.1409,-6.55891 -0.60851,-12.37815 -1.03914,-12.93166 -0.43063,-0.55351 -1.06979,-3.88533 -1.42036,-7.40404 -0.68073,-6.8325 -1.9172,-9.31586 -4.20188,-8.43914 -1.69543,0.65059 -3.10999,-2.38853 -1.74642,-3.7521 0.52496,-0.52496 5.87221,-1.19518 11.88279,-1.48939 6.01057,-0.2942 12.85654,-1.18444 15.21326,-1.97831 2.35672,-0.79387 5.30422,-1.4434 6.55,-1.4434 1.24578,0 2.71475,-0.4497 3.26439,-0.99933 0.54963,-0.54964 2.84957,-1.07184 5.11098,-1.16045 4.28556,-0.16793 7.28968,1.69864 7.28968,4.52933 0,2.26868 -1.60366,2.81294 -3.07271,1.04284 -1.04673,-1.26123 -2.47819,-1.43011 -7.36331,-0.86872 -3.33519,0.38327 -6.36418,1.17145 -6.7311,1.75151 -0.36692,0.58006 -4.53801,1.25782 -9.26911,1.50614 -4.73109,0.24832 -8.84494,0.84461 -9.14189,1.32508 -0.29695,0.48048 -1.63836,0.8736 -2.9809,0.8736 -2.11168,0 -2.44098,0.46092 -2.44098,3.41667 0,1.87916 0.42515,3.56666 0.94477,3.75 0.81257,0.28669 2.67755,16.6417 3.3449,29.33333 l 0.21033,4 13.5,0 c 7.425,0 16.2,-0.225 19.5,-0.5 4.88889,-0.40741 6,-0.22222 6,1 0,1.03053 -1.25192,1.59916 -4,1.81683 -2.2,0.17425 -4.4275,0.73675 -4.95,1.25 -0.5225,0.51324 -7.38814,0.93317 -15.25698,0.93317 l -14.30698,0 0.64323,7.25 c 0.35377,3.9875 0.99003,7.7 1.4139,8.25 0.42387,0.55 1.09552,5.6125 1.49257,11.25 0.39705,5.6375 1.11393,10.25 1.59308,10.25 0.47915,0 0.87118,0.62686 0.87118,1.39301 0,1.64178 -2.23736,2.70326 -3.71909,1.76447 z m 123.98795,0.59252 c -1.23782,-1.58526 -3.13621,-8.52068 -4.44802,-16.25 -0.56007,-3.3 -1.35652,-6.45 -1.76989,-7 -0.41336,-0.55 -1.33042,-3.8125 -2.0379,-7.25 l -1.28634,-6.25 -5.36335,0 c -2.94985,0 -5.36336,0.45 -5.36336,1 0,0.55 -1.35,1 -3,1 -2.27682,0 -3,-0.45633 -3,-1.89301 0,-2.13285 1.86004,-3.10699 5.93256,-3.10699 3.41207,0 9.06744,-1.89531 9.06744,-3.03881 0,-0.46373 -0.41538,-1.09987 -0.92306,-1.41364 -0.50769,-0.31377 -1.23991,-2.01305 -1.62716,-3.77619 -0.38725,-1.76314 -1.07868,-3.89548 -1.53652,-4.73854 -0.88237,-1.62477 -2.92271,-10.17266 -3.23022,-13.53282 -0.12663,-1.38363 0.51037,-2.09848 2.06696,-2.31955 2.04801,-0.29086 2.25,0.0854 2.25,4.19098 0,2.4808 0.39089,4.75212 0.86865,5.04739 0.47775,0.29527 1.14855,2.28729 1.49066,4.42671 0.34211,2.13942 1.29844,5.18689 2.12519,6.77216 0.82675,1.58527 1.5063,3.55731 1.51012,4.38231 0.006,1.23075 2.01116,1.5377 11.17244,1.71003 7.61922,0.14332 11.40934,0.60458 11.93324,1.45226 1.46344,2.3679 -0.26807,2.83771 -10.45852,2.83771 l -10.24018,0 0.40861,3.5 c 0.22473,1.925 0.80937,3.5 1.2992,3.5 0.48982,0 0.89336,1.2375 0.89675,2.75 0.003,1.5125 0.65725,3.9982 1.45303,5.52378 0.79578,1.52558 1.75777,5.57558 2.13774,9 0.37998,3.42442 1.09206,6.48763 1.5824,6.80714 0.49034,0.3195 1.15947,2.232 1.48694,4.25 0.46525,2.86697 0.26566,3.66908 -0.91298,3.66908 -0.82962,0 -1.94762,-0.5625 -2.48443,-1.25 z"
         style="fill:#2ca05a"
         id="path3298" />
      <path
         inkscape:connector-curvature="0"
         id="path3388-7"
         d="m 407.75995,737.49335 c -0.16963,-0.49351 -0.3923,-2.30335 -0.49484,-4.02187 -0.10254,-1.71853 -0.42676,-4.42642 -0.72047,-6.01753 -0.29372,-1.59111 -0.63448,-4.17517 -0.75726,-5.74235 -0.12278,-1.5672 -0.37156,-3.99698 -0.55281,-5.3995 -0.43694,-3.38078 -0.45105,-3.79116 -0.63011,-18.3468 -0.085,-6.90916 -0.18104,-13.84093 -0.21342,-15.40392 -0.0324,-1.563 0.0487,-3.01373 0.18025,-3.22382 0.13246,-0.20889 0.21995,-1.84919 0.19652,-3.6424 -0.0296,-2.26363 0.18364,-3.27687 0.69748,-3.31422 0.5138,-0.0374 0.73715,1.20027 0.73045,4.04818 -0.005,2.25609 0.0283,5.96304 0.0746,8.23769 0.0464,2.27465 0.0736,7.33903 0.0606,11.2542 -0.0347,10.43185 0.28603,20.52339 0.66781,21.01412 0.18325,0.23554 0.40321,1.49379 0.48878,2.79608 0.0855,1.30225 0.33339,3.68024 0.55078,5.28445 0.2174,1.6042 0.65179,5.08911 0.96531,7.7442 0.31351,2.6551 0.74018,5.04618 0.94815,5.31349 0.20793,0.26727 0.15087,0.84428 -0.12683,1.2822 -0.49502,0.7806 -1.45394,-0.0841 -2.06504,-1.8622 z"
         style="fill:#000000" />
    </g>
  </g>
</svg>
